<?xml version="1.0" encoding="UTF-8"?>
<svg id="svg8" xmlns="http://www.w3.org/2000/svg" version="1.1" xmlns:cc="http://creativecommons.org/ns#" xmlns:dc="http://purl.org/dc/elements/1.1/" xmlns:inkscape="http://www.inkscape.org/namespaces/inkscape" xmlns:rdf="http://www.w3.org/1999/02/22-rdf-syntax-ns#" xmlns:sodipodi="http://sodipodi.sourceforge.net/DTD/sodipodi-0.dtd" xmlns:svg="http://www.w3.org/2000/svg" viewBox="0 0 1000 353.1">
  <defs>
    <style>
      .cls-1 {
        fill: #fff;
        stroke-width: 0px;
      }
    </style>
  </defs>
  <sodipodi:namedview id="base" bordercolor="#666666" borderopacity="1.0" inkscape:current-layer="layer1" inkscape:cx="661.02158" inkscape:cy="238.37117" inkscape:document-units="px" inkscape:pageopacity="0.0" inkscape:pageshadow="2" inkscape:window-height="705" inkscape:window-maximized="1" inkscape:window-width="1366" inkscape:window-x="-8" inkscape:window-y="-8" inkscape:zoom="0.35355339" pagecolor="#ffffff" showgrid="false" units="px"/>
  <g id="layer1" inkscape:groupmode="layer" inkscape:label="Layer 1">
    <path id="path36902" class="cls-1" d="M821.2,0C781.3,0,744.3,13.1,714.1,35.3,683.9,13.1,646.9,0,607.1,0s-76.9,13.1-107.1,35.3C469.8,13.1,433.4,0,392.9,0s-76.9,13.1-107.1,35.3C256.3,13.1,219.2,0,178.8,0,80.3,0,0,79.2,0,176.5s80.3,176.5,178.8,176.5,76.9-13.1,107.1-35.3c30.2,22.2,67.2,35.3,107.1,35.3s76.9-13.1,107.1-35.3c29.6,22.2,66.6,35.3,107.1,35.3s76.9-13.1,107.1-35.3c29.6,22.2,66.6,35.3,107.1,35.3,98.5,0,178.8-79.2,178.8-176.5S919.7,0,821.2,0h0ZM714.1,267.7c-21.6-24.5-34.7-56.4-34.7-91.1s13.1-66.6,34.7-91.1c21.6,24.5,34.7,56.4,34.7,91.1s-13.1,66.6-34.7,91.1ZM500,267.7c-21.6-24.5-34.7-56.4-34.7-91.1s13.1-66.6,34.7-91.1c21.6,24.5,34.7,56.4,34.7,91.1s-13.1,66.6-34.7,91.1ZM285.9,267.7c-21.6-24.5-34.7-56.4-34.7-91.1s13.1-66.6,34.7-91.1c21.6,24.5,34.7,56.4,34.7,91.1.6,34.7-13.1,66.6-34.7,91.1ZM37,176.5c0-76.9,63.8-139.5,141.8-139.5s56.4,8.5,79.2,23.9c-27.3,30.8-43.8,71.2-43.8,115.6s16.5,84.9,43.8,115.6c-22.8,14.8-49.5,23.9-79.2,23.9-78,0-141.8-62.6-141.8-139.5h0ZM313.8,292.1c27.3-30.8,43.8-71.2,43.8-115.6s-16.5-84.9-43.8-115.6c22.8-14.8,49.5-23.9,79.2-23.9s56.4,8.5,79.2,23.9c-27.3,30.8-44.4,71.2-44.4,115.6s16.5,84.9,44.4,115.6c-22.8,14.8-49.5,23.9-79.2,23.9s-56.4-9.1-79.2-23.9h0ZM527.9,292.1c27.3-30.8,44.4-71.2,44.4-115.6s-16.5-84.9-44.4-115.6c22.8-14.8,49.5-23.9,79.2-23.9s56.4,8.5,79.2,23.9c-27.3,30.8-44.4,71.2-44.4,115.6s16.5,84.9,44.4,115.6c-22.8,14.8-49.5,23.9-79.2,23.9s-56.4-9.1-79.2-23.9ZM821.2,316.1c-29,0-56.4-8.5-79.2-23.9,27.3-30.8,44.4-71.2,44.4-115.6s-16.5-84.9-44.4-115.6c22.8-14.8,49.5-23.9,79.2-23.9,78,0,141.8,62.6,141.8,139.5s-63.8,139.5-141.8,139.5Z" inkscape:connector-curvature="0"/>
  </g>
</svg>