<?xml version="1.0" encoding="UTF-8"?>
<svg id="Layer_1" data-name="Layer 1" xmlns="http://www.w3.org/2000/svg" version="1.1" viewBox="0 0 500 500">
  <defs>
    <style>
      .cls-1 {
        fill: #000;
        stroke-width: 0px;
      }

      .cls-2 {
        fill: none;
        stroke: #000;
        stroke-miterlimit: 10;
      }

      .cls-3 {
        display: none;
      }
    </style>
  </defs>
  <g id="Layer_2" data-name="Layer 2" class="cls-3">
    <path class="cls-1" d="M419.6,412.2l7.6-9.5-27.8-22.3,11.3-14.1,27.8,22.3,7.6-9.5,11.7,9.4-26.6,33.2-11.7-9.4h.1ZM406.7,443c-3.7-4.8-8.8-11.4-12.6-16.3-6,4.7-1.6,1.2-7.6,5.9,3.7,4.8,8.8,11.4,12.6,16.3l-14.3,11.1-31-40.1,14.3-11.1c3.7,4.8,8.8,11.4,12.5,16.3,6-4.7,1.6-1.2,7.6-5.9-3.7-4.8-8.8-11.4-12.5-16.3l14.3-11.1,31,40.1-14.3,11.1ZM331.6,485.4l-6-13.8,20.7-9.1-2.2-5.1c-3.3,1.5-13.3,5.8-16.6,7.3l-3.9-8.8c3.3-1.5,13.3-5.8,16.6-7.3l-2.2-5.1-20.7,9.1-6-13.8,37.3-16.4,20.4,46.5-37.2,16.4h-.2ZM247.6,498.5l-3.2-14.3-8.1-35.9,17.7-.9,2.6,11.2,8.8-.4,1.4-11.4,17.7-.9-4.6,36.5-1.8,14.6-30.3,1.4h-.2ZM261.3,480c0,.3.3.5.6.5s.5-.2.5-.5l1.5-12.1-5.3.3,2.7,11.9h0ZM150.3,480.1l6.3-13.8,8.8-19.1,6.4-13.8,24.5,6.4-.7,15.3-.2,6c0,.3.2.6.5.7s.6,0,.7-.3l2.7-5.3,6.9-13.7,24.5,6.4-1.2,15.2-1.7,21-1.2,15.2-17.2-4.5,1.1-15.2,1.2-16.8c0-.3-.2-.6-.5-.7s-.6,0-.8.4l-7.1,15.3-6.4,13.8-17.2-4.5,1.1-15.2,1.2-16.8c0-.3-.2-.6-.5-.7s-.6,0-.8.4l-7.1,15.3-6.4,13.8-17.1-4.5h0l.2-.3ZM100.6,448.6l8-12.7,19.1,12.1,2.9-4.7c-3.1-1.9-12.3-7.8-15.4-9.7l5.1-8.2c3.1,1.9,12.3,7.8,15.4,9.7l3-4.7-19.1-12,8-12.7,34.5,21.7-27,42.9-34.5-21.7h0ZM85.5,406.2c-6.5-9.1-18.2-19.2-8-28.9,8.4-7.9,17.9-4.2,24.4,2.8l22.4,23.8-10.9,10.3-17.7-18.9c-3.4-3.7-6.8.4-4.3,3.9,6.5,9.1,17.9,18.9,7.6,28.6-8.4,7.9-17.6,4.5-24.1-2.5l-22.7-24.1,10.9-10.3,18,19.2c3.4,3.7,6.8-.4,4.3-3.9h.1ZM41.2,329.5c30.6-16,55.1,30.7,24.5,46.8s-55.1-30.7-24.5-46.8h0ZM49.9,346.2c-12.2,6.4-5.1,19.9,7.1,13.5,12.1-6.4,5-19.9-7.1-13.5Z"/>
    <path class="cls-1" d="M28.8,270.9l1.9,12.1,35.3-5.5,2.8,17.9-35.3,5.5,1.9,12.1-14.8,2.3-6.6-42,14.8-2.3h0ZM14.8,240.6c6.1.5,14.4,1.2,20.5,1.7.6-7.6.2-2,.8-9.6-6.1-.5-14.4-1.2-20.5-1.7l1.5-18.1,50.5,4.1-1.4,18c-6.1-.5-14.3-1.1-20.5-1.7-.6,7.6,0,2-.8,9.6,6.1.5,14.3,1.1,20.5,1.7l-1.5,18.1-50.5-4.1,1.5-18h0ZM34,156.6l14.2,4.8-7.2,21.4,5.3,1.8c1.2-3.5,4.6-13.8,5.8-17.2l9.1,3.1c-1.2,3.5-4.6,13.8-5.8,17.2l5.3,1.8,7.2-21.5,14.2,4.8-13,38.6-48.1-16.2,13-38.5h0ZM80.9,85.6l12.8,7.3,32,18.1-11.3,13.7-10-5.6-5.6,6.8,7.5,8.7-11.3,13.7-23.9-28-9.6-11.2,19.4-23.4h0ZM85.3,108.2c-.2-.2-.6,0-.7,0s-.2.5,0,.7l7.9,9.3,3.4-4.1s-10.6-6-10.6-6ZM160,26l6,14,8.2,19.4,6,14-21.3,13.8-10.9-10.8-4.3-4.2c-.2-.2-.6-.3-.8,0s-.4.5-.3.8l2.1,5.6,5.5,14.3-21.3,13.8-10.4-11.1-14.4-15.4-10.4-11.1,14.9-9.7,10.5,11.1,11.6,12.2c.2.2.6.3.8,0s.4-.5.3-.8l-6.5-15.5-5.9-14.1,14.9-9.7,10.5,11.1,11.6,12.2c.2.2.6.3.8,0s.4-.5.3-.8l-6.5-15.5-5.9-14.1,14.9-9.6h0ZM216.8,10.6l4,14.5-21.8,6,1.5,5.3c3.5-1,14.1-3.9,17.5-4.9l2.6,9.3c-3.5,1-14.1,3.9-17.5,4.9l1.5,5.4,21.8-6.1,4,14.5-39.2,10.8-13.6-48.9,39.3-10.9h-.1ZM258.3,28c11.2,1.3,26.5-.5,26.7,13.6.2,11.5-9,16-18.5,16.2l-32.7.5-.3-15,25.9-.4c5,0,4.3-5.3,0-5.8-11.2-1.3-26,.5-26.2-13.6-.2-11.5,8.5-16,18.1-16.2l33.1-.5.3,15-26.3.4c-5,0-4.3,5.3,0,5.8h-.1ZM344.8,46.9c-8.7,33.4-59.8,20.1-51.1-13.4,8.7-33.5,59.8-20.1,51.1,13.4h0ZM326.6,42.1c3.5-13.3-11.2-17.2-14.7-3.8-3.4,13.3,11.3,17.1,14.7,3.8Z"/>
    <path class="cls-1" d="M419.6,412.2l7.6-9.5-27.8-22.3,11.3-14.1,27.8,22.3,7.6-9.5,11.7,9.4-26.6,33.2-11.7-9.4h.1ZM406.7,443c-3.7-4.8-8.8-11.4-12.6-16.3-6,4.7-1.6,1.2-7.6,5.9,3.7,4.8,8.8,11.4,12.6,16.3l-14.3,11.1-31-40.1,14.3-11.1c3.7,4.8,8.8,11.4,12.5,16.3,6-4.7,1.6-1.2,7.6-5.9-3.7-4.8-8.8-11.4-12.5-16.3l14.3-11.1,31,40.1-14.3,11.1ZM331.6,485.4l-6-13.8,20.7-9.1-2.2-5.1c-3.3,1.5-13.3,5.8-16.6,7.3l-3.9-8.8c3.3-1.5,13.3-5.8,16.6-7.3l-2.2-5.1-20.7,9.1-6-13.8,37.3-16.4,20.4,46.5-37.2,16.4h-.2ZM247.6,498.5l-3.2-14.3-8.1-35.9,17.7-.9,2.6,11.2,8.8-.4,1.4-11.4,17.7-.9-4.6,36.5-1.8,14.6-30.3,1.4h-.2ZM261.3,480c0,.3.3.5.6.5s.5-.2.5-.5l1.5-12.1-5.3.3,2.7,11.9h0ZM150.3,480.1l6.3-13.8,8.8-19.1,6.4-13.8,24.5,6.4-.7,15.3-.2,6c0,.3.2.6.5.7s.6,0,.7-.3l2.7-5.3,6.9-13.7,24.5,6.4-1.2,15.2-1.7,21-1.2,15.2-17.2-4.5,1.1-15.2,1.2-16.8c0-.3-.2-.6-.5-.7s-.6,0-.8.4l-7.1,15.3-6.4,13.8-17.2-4.5,1.1-15.2,1.2-16.8c0-.3-.2-.6-.5-.7s-.6,0-.8.4l-7.1,15.3-6.4,13.8-17.1-4.5h0l.2-.3ZM100.6,448.6l8-12.7,19.1,12.1,2.9-4.7c-3.1-1.9-12.3-7.8-15.4-9.7l5.1-8.2c3.1,1.9,12.3,7.8,15.4,9.7l3-4.7-19.1-12,8-12.7,34.5,21.7-27,42.9-34.5-21.7h0ZM85.5,406.2c-6.5-9.1-18.2-19.2-8-28.9,8.4-7.9,17.9-4.2,24.4,2.8l22.4,23.8-10.9,10.3-17.7-18.9c-3.4-3.7-6.8.4-4.3,3.9,6.5,9.1,17.9,18.9,7.6,28.6-8.4,7.9-17.6,4.5-24.1-2.5l-22.7-24.1,10.9-10.3,18,19.2c3.4,3.7,6.8-.4,4.3-3.9h.1ZM41.2,329.5c30.6-16,55.1,30.7,24.5,46.8s-55.1-30.7-24.5-46.8h0ZM49.9,346.2c-12.2,6.4-5.1,19.9,7.1,13.5,12.1-6.4,5-19.9-7.1-13.5Z"/>
    <path class="cls-1" d="M397.6,77.5l-9.9-7.1-20.9,28.9-14.7-10.6,20.9-28.9-9.9-7.1,8.8-12.1,34.5,24.9-8.8,12.1h0ZM429.1,88.9c-4.7,4-11,9.4-15.6,13.4,5,5.8,1.3,1.5,6.3,7.3,4.7-4,11-9.4,15.6-13.4l11.8,13.8-38.5,32.9-11.8-13.7c4.7-4,10.9-9.4,15.6-13.3-5-5.8-1.3-1.5-6.3-7.3-4.7,4-10.9,9.4-15.6,13.3l-11.8-13.8,38.5-32.9,11.8,13.7ZM475.1,161.8l-13.4,6.7-10.1-20.2-5,2.5c1.6,3.3,6.5,13,8.1,16.2l-8.6,4.3c-1.6-3.3-6.5-13-8.1-16.2l-5,2.5,10.2,20.2-13.4,6.7-18.2-36.4,45.4-22.7,18.2,36.4h-.1ZM492.4,245.1l-14.2,4-35.4,9.9-1.7-17.7,11.1-3.1-.8-8.7-11.4-.9-1.7-17.6,36.7,2.8,14.7,1.1,2.9,30.2h-.2ZM473.3,232.3c.3,0,.4-.3.4-.6s-.3-.5-.5-.5l-12.2-.9.5,5.3,11.7-3.3h.1ZM478.9,343.1l-14.1-5.6-19.6-7.8-14.1-5.7,5.2-24.8h21.3c.3-.1.6-.3.7-.6s0-.6-.4-.7l-5.5-2.4-14-6.2,5.2-24.8,15.2.5,21,.6,15.2.5-3.6,17.4-15.3-.4-16.8-.4c-.3,0-.6.2-.7.5s0,.6.4.8l15.6,6.3,14.1,5.7-3.6,17.4-15.3-.4-16.8-.4c-.3,0-.6.2-.7.5s0,.6.4.8l15.6,6.3,14.1,5.7-3.7,17.3h.2Z"/>
  </g>
  <g>
    <path class="cls-1" d="M469.4,173.8l-39.3,12.8,4.8-9.5,11.2,34.5-14.2,4.6-14.1-43.3,46.4-15.1,5.2,15.9Z"/>
    <path class="cls-1" d="M457.7,240.9l-18.2-2.6,6.9-6.5.9,37-13.3.3-1.1-47.2,24.5,3,24.3-4.1,1.1,46.9-13.3.3-.8-36.7,7.2,6.2-18.1,3.4ZM464.1,266l-11.6.3-.8-36.7,11.6-.3.9,36.7Z"/>
    <path class="cls-1" d="M468.8,303.2l-4.6,16.1-40-11.3,4.6-16.1,40,11.3ZM480.6,288.2l-14.1,49.9-14.4-4.1,14.1-49.9,14.4,4.1Z"/>
    <path class="cls-1" d="M435.4,341.3l9.9,13.6-5.9-2c.8-1.4,1.8-2.6,3.2-3.4,1.3-.8,2.8-1.2,4.3-1.3,1.5,0,3,.3,4.4,1.1,1.4.8,2.5,1.8,3.3,3.1.8,1.3,1.2,2.7,1.2,4.3,0,1.6-.3,3.1-1.1,4.5-.8,1.4-1.8,2.6-3.1,3.4-1.3.8-2.7,1.2-4.3,1.3-1.5,0-3-.3-4.5-1.1-1.3-.7-2.5-1.8-3.7-3.3-1.2-1.5-2.4-3.6-3.8-6.5l-3.5-7.1,3.6-6.6Z"/>
    <path class="cls-1" d="M417.3,361.7l-11.2,12.8c-.8-.5-1.8-.7-2.8-.5-1,.2-2.2.7-3.4,1.5-1.2.8-2.5,2-3.8,3.5-1.7,2-2.9,3.6-3.4,5.1-.6,1.4-.4,2.5.5,3.3.6.5,1.4.6,2.3.4,1-.3,2.3-1.3,4.2-3.1l5.7-5.7c5.2-5.2,9.9-8.1,14-8.8,4.1-.7,7.8.4,11.1,3.2,2.7,2.4,4.3,5.2,4.8,8.3.5,3.2-.1,6.6-1.7,10.2-1.6,3.6-4,7.3-7.3,11.1-3.2,3.7-6.6,6.5-10.1,8.4-3.5,1.9-7,2.9-10.3,3-3.3,0-6.3-.9-8.9-2.9l11.2-12.8c.7.4,1.5.5,2.4.4.9-.2,1.9-.6,3-1.4,1.1-.8,2.2-1.9,3.5-3.3,1.6-1.8,2.6-3.4,3.2-4.7.5-1.3.4-2.4-.4-3.1-.6-.5-1.3-.6-2.2-.3s-2.2,1.2-3.8,2.8l-6.4,6.5c-3.4,3.4-6.4,5.8-9.2,7.3-2.8,1.5-5.3,2.1-7.7,1.8-2.4-.3-4.6-1.3-6.8-3.2-2.7-2.4-4.4-5.2-5-8.6-.6-3.4-.2-7,1.2-10.9s3.8-7.7,7.2-11.6c3.5-4,7.1-7,10.8-9s7.3-3.1,10.7-3c3.4,0,6.5,1.2,9.1,3.3Z"/>
    <path class="cls-1" d="M306.7,448.4c-1.3-4.3-1.5-8.5-.6-12.6s3-7.8,6-11.2,7-6.2,11.9-8.4c5.3-2.4,10.4-3.4,15.2-3.3,4.8.2,9.1,1.5,12.9,4.1,3.8,2.5,6.7,6.1,8.7,10.8,2.1,4.7,2.8,9.3,2.2,13.7-.6,4.5-2.5,8.6-5.6,12.3-3.1,3.7-7.3,6.7-12.6,9.1-4.9,2.2-9.6,3.3-14.2,3.2-4.6,0-8.7-1-12.3-3.1-3.7-2-6.7-5-8.9-8.8l15.4-6.8c1,1.4,2.3,2.4,3.7,3.1,1.4.7,3,.9,4.8.8,1.8-.1,3.7-.6,5.8-1.5,2.3-1,4.1-2.3,5.4-3.8,1.3-1.5,2-3.3,2.2-5.2.2-1.9-.2-4-1.1-6.1-1-2.1-2.2-3.8-3.7-4.9-1.5-1.1-3.3-1.8-5.3-1.9-2-.1-4.2.4-6.5,1.4-2.1.9-3.7,2-5,3.2-1.3,1.2-2.2,2.6-2.6,4.1s-.5,3.2-.2,4.9l-15.4,6.8Z"/>
    <path class="cls-1" d="M275.7,454.4l-18.5,1.6-18.1-21.3,19.1-1.7,17.4,21.4ZM281.8,458.9l-16.3,1.4c-1.6.1-2.9.6-3.7,1.5s-1.2,2-1.1,3.5c.1,1.5.7,2.6,1.7,3.2,1,.7,2.3,1,3.9.8l18.7-1.6-6.9,8.2-3.8-44.4,16.7-1.4,4.2,48.6-30.4,2.6c-3.9.3-7.3,0-10.4-1.2-3-1.1-5.5-2.8-7.3-5.1-1.8-2.3-2.9-5.1-3.2-8.3-.3-3.2.3-6.1,1.7-8.7,1.4-2.6,3.5-4.7,6.3-6.3,2.8-1.6,6.1-2.6,10-2.9l18.9-1.6,1,11.6Z"/>
    <path class="cls-1" d="M209.4,453.3l6.9-17.1,4.7,8.2-36.1-8,2.9-12.9,46.1,10.3-8.8,23-1.8,24.6-45.7-10.2,2.9-12.9,35.8,8-7.7,5.5,1-18.4ZM183.5,453.5l2.5-11.3,35.8,8-2.5,11.3-35.8-8Z"/>
    <path class="cls-1" d="M121.2,442.7l6.9-52.8,15.3,9.2-7,44.1-3.7-2.2,35.8-26.7,15.3,9.2-43.5,30.7-19.1-11.6ZM166.2,422.5l-6.9,11.4-28.4-17.2,6.9-11.4,28.4,17.2Z"/>
    <path class="cls-1" d="M95.8,424.5l-34.8-38.5,11.1-10,34.8,38.5-11.1,10ZM89.4,406.6l-11.2-12.5,30.8-27.8,11.2,12.5-30.8,27.8Z"/>
    <path class="cls-1" d="M64,340.8l17.7-4.9-3.7,8.7-15.5-33.6,12-5.6,19.8,42.8-23.6,7-20.6,13.5-19.7-42.5,12-5.6,15.4,33.3-9-2.8,15.2-10.3ZM48.2,320.3l10.5-4.9,15.4,33.3-10.5,4.9-15.4-33.3Z"/>
    <path class="cls-1" d="M19.9,284.4l-1.9-51.8,14.9-.5,1.9,51.8-14.9.5ZM26.4,266.6l-.6-16.8,41.5-1.5.6,16.8-41.5,1.5Z"/>
    <path class="cls-1" d="M75.9,199.1c-1.7,5.7-4.1,10.4-7.4,14.1-3.3,3.7-7.1,6.2-11.5,7.5-4.4,1.3-9,1.2-13.9-.2-4.9-1.4-8.9-3.9-11.9-7.3-3-3.4-4.9-7.6-5.7-12.5-.8-4.9-.4-10.1,1.3-15.8,1.7-5.7,4.1-10.4,7.4-14.1,3.3-3.7,7.1-6.2,11.5-7.5,4.4-1.3,9-1.2,13.9.2,4.9,1.4,8.9,3.9,11.9,7.3,3,3.4,4.9,7.6,5.7,12.5.8,4.9.4,10.1-1.3,15.8ZM61.6,194.9c.7-2.5,1-4.8.7-6.9-.3-2.1-1-3.8-2.3-5.2-1.2-1.4-2.9-2.4-5-3.1-2.1-.6-4.1-.7-5.9-.1-1.8.5-3.4,1.6-4.7,3.2-1.3,1.6-2.4,3.7-3.1,6.2-.7,2.5-1,4.8-.7,6.9.3,2.1,1,3.8,2.3,5.2,1.2,1.4,2.9,2.4,5,3.1,2.1.6,4.1.7,5.9.1,1.8-.5,3.4-1.6,4.7-3.2,1.3-1.6,2.4-3.7,3.1-6.2Z"/>
    <path class="cls-1" d="M99.8,110.5c2.2,1.8,4.1,4,5.6,6.4,1.5,2.4,2.6,5,3.1,7.9.5,2.8.4,5.8-.5,9-.8,3.2-2.5,6.4-4.9,9.8-2.2,3-4.8,5.6-7.7,7.6-2.9,2.1-5.9,3.5-9.2,4.3s-6.6.8-10,.1c-3.4-.7-6.8-2.3-10.2-4.8-3.4-2.5-5.9-5.3-7.6-8.4-1.7-3.1-2.6-6.3-2.8-9.7-.2-3.4.4-6.8,1.5-10.2,1.2-3.4,3-6.8,5.4-10,3.3-4.5,6.9-7.9,10.6-10.2,3.7-2.2,7.5-3.5,11.3-3.7,3.8-.2,7.5.4,11,2.1l-10,13.5c-1.2-.4-2.5-.4-3.9,0-1.4.4-2.7,1.2-4.1,2.2-1.3,1.1-2.6,2.4-3.8,4-1.5,2-2.4,4-2.8,6-.4,2-.2,3.9.6,5.7.8,1.8,2.3,3.5,4.5,5.2,2.2,1.6,4.4,2.6,6.5,2.8,2.1.2,4.1-.3,6.1-1.4,1.9-1.1,3.7-2.8,5.4-5.1,1.6-2.2,2.8-4.3,3.6-6.4.8-2.1,1-4,.7-5.9-.3-1.8-1.1-3.5-2.6-5l4.2-5.7ZM92.6,131.2l-9.3-6.8,15.8-21.4,21,15.5-6.9,9.4-16.5-9.1h5c0,0-9.2,12.5-9.2,12.5Z"/>
    <path class="cls-1" d="M127.9,82.7l8,16.6-9.2-2.1,30.3-21.3,7.6,10.8-38.6,27.1-11.1-22-16.9-17.9,38.3-26.9,7.6,10.8-30,21.1,1.2-9.4,12.9,13.1ZM145.3,63.4l6.7,9.5-30,21.1-6.7-9.5,30-21.1Z"/>
    <path class="cls-1" d="M154.6,37.4l49.4-15.9,4.6,14.2-49.4,15.9-4.6-14.2ZM173.6,38.9l16-5.1,12.7,39.5-16,5.1-12.8-39.5Z"/>
    <path class="cls-1" d="M226.5,17.9l16.8.3-.8,48.7-16.8-.3.8-48.7ZM235.7,34.5l34.6.6-.2,14.8-34.6-.6.2-14.8ZM264,18.5l16.8.3-.8,48.7-16.8-.3.8-48.7Z"/>
    <path class="cls-1" d="M314.5,52.7l-8.8,16.2-3.7-8.7,34.9,12.1-4.3,12.5-44.6-15.5,11.4-21.9,4.6-24.2,44.3,15.4-4.3,12.5-34.6-12,8.3-4.5-3.1,18.1ZM340.2,55.5l-3.8,10.9-34.7-12,3.8-10.9,34.7,12Z"/>
    <path class="cls-1" d="M366.2,73.2l13.1,9.8c1.3,1,2.6,1.4,3.8,1.4,1.2,0,2.2-.7,3.1-1.9.9-1.2,1.2-2.4.9-3.5s-1.1-2.2-2.4-3.2l-15-11.2,10.6-1.5-26.7,35.7-13.4-10,29.2-39.1,24.5,18.3c3.1,2.3,5.4,4.9,7,7.8,1.5,2.8,2.2,5.7,2.1,8.6-.2,2.9-1.2,5.7-3.2,8.3-1.9,2.6-4.3,4.3-7,5.3-2.8,1-5.7,1.1-8.9.5-3.1-.7-6.3-2.2-9.4-4.5l-15.2-11.4,7-9.3ZM367.7,80.7l14.8,11.1-.7,28-15.4-11.5,1.2-27.6Z"/>
    <path class="cls-1" d="M389.9,132.7c-1.7-2-2.5-4.1-2.4-6.3.1-2.2,1.1-4.1,3-5.6,1.9-1.6,3.9-2.2,6-1.9,2.2.3,4.1,1.4,5.8,3.4,1.7,2,2.5,4.1,2.4,6.3-.1,2.2-1.1,4.1-3,5.6-1.9,1.6-3.9,2.2-6,1.9-2.2-.3-4.1-1.4-5.8-3.4ZM422.2,94.2l11.1,13.2-24.7,17.1-7.5-8.9,21.1-21.4Z"/>
  </g>
  <circle class="cls-2" cx="250" cy="250" r="236"/>
  <circle class="cls-2" cx="250" cy="250" r="178"/>
</svg>