<?xml version="1.0" encoding="UTF-8"?>
<svg xmlns="http://www.w3.org/2000/svg" version="1.1" viewBox="0 0 500 500">
  <defs>
    <style>
      .cls-1 {
        fill: #000;
      }

      .cls-1, .cls-2 {
        stroke-width: 0px;
      }

      .cls-2 {
        fill: #b37dff;
      }

      .cls-3 {
        display: none;
      }
    </style>
  </defs>
  <g id="Layer_1" data-name="Layer 1">
    <g>
      <path class="cls-2" d="M85.8,155.7c-.9,1.8-1.8,3.3-2.7,4.7-.9,1.3-1.7,2.7-2.3,4.1-1,2.2-2.2,4.9-3.4,8-.5,1.5-1,2.7-1.4,3.5-.7,1.5-1.7,2.8-2.8,3.9-1.2,1.1-2.5,1.8-4,2.1-1.5.3-3.1,0-4.8-.8l-1-.5c-4.5-2.7-9.5-5.3-14.9-7.9-8-3.8-15.1-6.7-21.4-8.8-.5-.1-.9-.3-1.3-.5-1.4-.7-2.3-1.6-2.8-2.7-.5-1.2-.7-2.4-.6-3.8.1-1.4.5-2.7,1.1-4,.7-1.5,1.6-2.8,2.8-3.9,1.2-1.2,2.5-2,3.9-2.4,1.4-.5,2.8-.4,4.2.3.3.1.6.3.8.5,3.1,2.1,6.2,4,9.1,5.8,2.9,1.8,5.9,3.3,8.9,4.8,4,1.9,8.2,3.6,12.6,5.2,2.4-5.3,4.1-9.7,5.2-13.3.1-.4.2-.8.4-1.1.6-1.2,1.3-2,2.3-2.5,1-.5,2.1-.6,3.3-.5,1.2.1,2.3.5,3.5,1,1.2.6,2.4,1.4,3.4,2.3,1,1,1.8,2,2.2,3.2.4,1.2.4,2.3-.1,3.4Z"/>
      <path class="cls-2" d="M118.2,114.3l-.6.6c-2,1.7-3.8,3.4-5.3,5.1-1.6,1.7-3,3.5-4.3,5.3-1.3,1.8-2.8,3.6-4.6,5.6-1.2,1.4-2.6,2.4-4,3.1-1.4.7-2.9.9-4.4.7-1.5-.2-2.9-.9-4.3-2.1l-.7-.7c-3.6-3.8-7.6-7.7-12.1-11.7-6.6-5.9-12.7-10.7-18.2-14.5-.5-.3-.9-.6-1.2-1-2-1.8-2.5-3.9-1.6-6.4.7-1.8,2.1-3.9,4.2-6.2,1.4-1.6,3-3.2,4.6-4.8,1.7-1.6,3.3-3.3,4.9-5.1,1.5-1.6,2.9-3.5,4.2-5.4l.5-.7c.9-1,1.9-1.5,3.2-1.6,1.3-.1,2.6.1,3.9.6s2.5,1.3,3.6,2.2c.9.8,1.7,1.8,2.2,2.8.6,1,.8,2.1.8,3.2,0,1.1-.5,2.1-1.4,3.1-.2.3-.5.6-.9.8-2.9,2.4-6.3,5.6-10.3,9.8,1.7,1.8,3.3,3.6,5,5.3l.6-.7c1.7-1.8,3.2-3.9,4.7-6.1l.4-.5c.7-.8,1.5-1.2,2.6-1.3,1,0,2.1,0,3.1.5,1.1.4,2,1,2.9,1.8.8.7,1.4,1.4,1.8,2.3.5.9.7,1.7.6,2.6,0,.9-.4,1.7-1.1,2.5-.2.2-.4.5-.7.7-1.9,1.5-4,3.5-6.5,6.1,2.3,1.8,4.7,3.7,7.2,5.5,3.7-4.4,6.6-8.2,8.7-11.3.2-.4.5-.7.7-1,.9-1,1.9-1.5,3-1.7,1.1-.2,2.2,0,3.3.4,1.1.4,2.1,1.1,3,1.9,1.1.9,1.9,2,2.6,3.3.7,1.3,1,2.5,1.1,3.8,0,1.3-.4,2.4-1.3,3.4Z"/>
      <path class="cls-2" d="M153.7,87.6c-1.3.8-2.7,1.3-4.2,1.5-1.5.2-3,0-4.4-.5-1.4-.6-2.6-1.7-3.5-3.3l-.5-.9c-2.3-4.7-5-9.7-8.1-14.9-2.9-4.8-5.8-9.3-8.7-13.4-2.2,1.5-4.1,2.9-5.5,4.2-.3.3-.6.5-1,.7-1.1.7-2.2.9-3.3.8-1.1-.2-2.1-.6-3-1.4-.9-.8-1.7-1.7-2.3-2.7-.7-1.2-1.2-2.4-1.5-3.8-.3-1.4-.3-2.7,0-3.9.3-1.2.9-2.1,1.9-2.7.8-.5,1.9-1,3.2-1.7,1.3-.7,2.8-1.5,4.7-2.5,1.9-1,4-2.2,6.5-3.7,2.9-1.7,5.5-3.4,8-5,3.2-2.1,5-3.3,5.4-3.7.1-.1.3-.2.5-.4,1.1-.6,2.2-.8,3.4-.5,1.2.3,2.3.9,3.4,1.8,1.1.9,2,2,2.7,3.2.6,1.1,1.1,2.2,1.3,3.4.2,1.2.2,2.3-.2,3.3-.4,1-1.1,1.9-2.2,2.5-.3.2-.7.4-1.1.5-1.8.7-3.9,1.7-6.4,3,1.9,4.3,4.1,8.3,6.3,12.2,1.7,2.8,3.6,5.6,5.6,8.4,2,2.7,4.2,5.6,6.6,8.6.2.3.4.6.6.9.7,1.2,1,2.4.7,3.7-.2,1.3-.8,2.5-1.6,3.6-.9,1.1-1.9,2-3.2,2.8Z"/>
      <path class="cls-2" d="M183.1,32.2c-1.1.4-2.4.3-3.7-.1-1.3-.5-2.1-1.1-2.3-1.8-.1-.4,0-.9.4-1.3.2-.2.5-.7.9-1.4.4-.7.8-1.5,1.1-2.3.3-.8.5-1.4.4-1.7,0-.2-.2-.2-.6-.2-1.9.6-3.6.5-5.4-.3-1.7-.8-2.8-2-3.4-3.7-.5-1.7-.3-3.4.6-5,1-1.6,2.4-2.7,4.2-3.3,1.8-.6,3.3-.6,4.5-.1,1.3.5,2.3,1.3,3.2,2.4.9,1.2,1.5,2.5,2,4,.7,2.4,1.1,4.8,1,7.4-.2,4.4-1.2,6.8-3.1,7.4Z"/>
      <path class="cls-2" d="M238.2,61.3c-3.3.2-6.6-.1-9.8-1.1-3.3-.9-6.3-2.5-9.2-4.7-1.6-1.3-2.5-2.9-2.6-4.8-.1-1.6.3-3.2,1.1-4.8.8-1.6,1.9-2.9,3.2-3.9,1.3-1.1,2.6-1.6,3.8-1.7,1.3,0,2.4.5,3.4,1.7.6.7,1.9,1.4,4,2.1s3.9,1,5.6.9c1.8-.1,2.7-.8,2.6-2.2,0-.6-.4-1.2-1-1.9-.6-.7-1.6-1.2-2.8-1.7-1.2-.5-2.7-1-4.3-1.4-1.9-.5-3.8-1.1-5.7-1.9-2-.7-3.8-1.7-5.5-3-1.7-1.2-3.2-2.8-4.3-4.8-1.2-2-1.8-4.5-2-7.5-.2-2.6.3-5,1.3-7,1.1-2,2.5-3.7,4.4-5.1,1.9-1.4,4-2.5,6.4-3.3,2.4-.8,4.9-1.2,7.4-1.4,3.3-.2,6.5,0,9.6.9,3.1.8,5.8,2.1,8,3.9,1.9,1.6,2.9,3.5,3.1,5.6,0,1.5-.2,2.9-1,4.2-.7,1.3-1.7,2.4-2.9,3.3-1.2.9-2.4,1.3-3.7,1.4-1.6.1-2.9-.5-4-1.7-.7-.8-1.7-1.7-2.8-2.7-2.8-2.3-5.4-3.4-7.8-3.2-1,0-1.7.4-2.2,1-.5.6-.7,1.3-.6,2.1,0,1.1.7,2.1,1.9,3.1.9.7,2.1,1.3,3.4,1.8,1.4.5,2.8,1,4.4,1.5,2,.6,4,1.3,6.1,2.1,2.1.8,4,1.9,5.8,3.2,1.8,1.3,3.3,3,4.5,5.1,1.2,2.1,1.9,4.7,2.1,7.9.2,2.9-.4,5.6-1.7,8.2s-3.5,4.7-6.5,6.5c-3,1.7-6.9,2.8-11.6,3.1Z"/>
      <path class="cls-2" d="M331.6,78.7c-4.1-1.8-7.3-4.2-9.7-7s-4.1-6.1-5-9.6-1.2-7-.8-10.7c.4-3.7,1.3-7.1,2.8-10.5,1.4-3.2,3.3-6.1,5.6-8.8,2.3-2.6,5-4.7,8-6.3,3-1.6,6.3-2.4,9.9-2.6s7.3.7,11.2,2.4c3,1.3,5.3,3.3,6.9,5.9,1.6,2.6,2.4,5.5,2.6,8.6.1,3.1-.4,6.1-1.7,9.1-.6,1.3-1.4,2.2-2.4,2.8s-2.2.8-3.4.8-2.4-.3-3.5-.8c-1.5-.6-2.6-1.6-3.5-2.8-.9-1.2-1-2.5-.5-3.7.2-.5.5-.9.9-1.4.4-.5.7-1,.9-1.5.5-1.1.6-2.1.4-3.1-.2-1-.9-1.7-1.9-2.2-2.2-.8-4.4-.3-6.5,1.7-2.1,2-3.9,4.6-5.3,7.9-1.1,2.6-1.9,5.2-2.4,7.9s-.5,5.1-.1,7.2c.4,2.1,1.4,3.5,3,4.2,1.5.5,3,.5,4.5,0,1.6-.6,3-1.3,4.2-2.2.9-.5,1.8-.6,2.9-.1,1,.5,2.1,1.3,3,2.5,1,1.2,1.7,2.5,2.1,3.9.5,1.4.5,2.6,0,3.6-.2.5-.5.9-1,1.2-2.1,1.5-4.3,2.7-6.6,3.7-2.4.9-4.8,1.5-7.3,1.6-2.5,0-5-.4-7.4-1.5Z"/>
      <path class="cls-2" d="M386.8,117.5c-1.4-1.3-2.3-3-2.7-5.2-.3-2.2-.3-4.6.1-7.2.4-2.6,1.1-5.2,2-7.8.9-2.6,1.9-4.9,3-7.1-.4-.4-.8-.8-1.2-1.2-2.2,2.8-4.2,5.6-6,8.4-1.4,2.1-2.4,3.5-2.9,4.1-.9,1-2,1.7-3.4,1.9-1.3.2-2.7,0-4-.4s-2.6-1.2-3.7-2.2c-1.1-1-2-2.2-2.6-3.6-.6-1.4-.8-2.9-.7-4.5.2-1.6.9-3,2.2-4.5l.7-.8c3.9-3.6,7.8-7.7,11.8-12.2,5.8-6.5,10.5-12.4,14.1-17.8.3-.4.5-.8.8-1.1,1-1.1,2.1-1.8,3.4-2,1.3-.2,2.5,0,3.8.5,1.3.5,2.5,1.2,3.5,2.2,1.2,1,2.1,2.2,2.9,3.5.8,1.3,1.2,2.7,1.3,4.1,4,1,7.1,2.5,9.3,4.5,2.2,2,3.7,4.3,4.4,7s.7,5.3,0,8c-.7,2.7-2,5.1-3.8,7.2-1.8,2-3.8,3.7-5.8,5-2.1,1.3-4.4,2-6.8,2.1-2.5.1-5.2-.5-8.1-1.9-.3,1.9,0,3.9.6,6.2.7,2.3,2,5,4,8.3.7,1.2,1,2.4.8,3.5s-.6,2.1-1.4,3c-1,1.1-2.4,2-4.1,2.5-1.8.6-3.6.7-5.6.4-2-.3-3.9-1.3-5.7-2.9ZM395.9,83.4c1.5,1.3,2.9,2.1,4.2,2.4,1.4.3,2.6.3,3.7,0,1.1-.4,2-1,2.7-1.8,1-1.1,1.5-2.4,1.5-3.9,0-1.5-.6-2.9-2-4.1-.9-.8-2.2-1.5-3.9-2-2.9,2.6-5.5,5.2-8,7.7.5.6,1.1,1.2,1.6,1.6Z"/>
      <path class="cls-2" d="M420.8,164.7l-.4-.8c-1-2.5-2.1-4.6-3.3-6.6-1.2-2-2.5-3.9-3.8-5.7-1.3-1.8-2.6-3.8-4-6-.9-1.6-1.5-3.1-1.8-4.7-.2-1.6,0-3,.6-4.4.6-1.4,1.7-2.5,3.3-3.5l.9-.5c4.7-2.3,9.6-5,14.8-8.1,7.6-4.6,14-8.9,19.2-13.1.4-.4.9-.7,1.3-.9,2.3-1.4,4.5-1.2,6.6.4,1.5,1.2,3.1,3.1,4.7,5.8,1.1,1.9,2.2,3.8,3.2,5.8,1,2,2.1,4.1,3.4,6.2,1.1,1.9,2.5,3.8,4,5.7l.5.7c.7,1.1.9,2.3.6,3.5-.3,1.2-.9,2.4-1.8,3.5-.9,1.1-2,2-3.2,2.8-1.1.6-2.2,1.1-3.3,1.3-1.2.2-2.3.2-3.3-.2s-1.9-1.1-2.6-2.2c-.2-.3-.4-.7-.5-1.1-1.4-3.5-3.5-7.7-6.4-12.8-2.2,1-4.4,2.1-6.5,3.2l.5.8c1.3,2.1,2.8,4.2,4.5,6.3l.4.6c.5.9.7,1.8.5,2.8-.2,1-.7,1.9-1.4,2.9-.7.9-1.6,1.6-2.5,2.2-.9.5-1.8.9-2.7,1.1-.9.2-1.8.1-2.7-.2-.8-.3-1.5-.9-2.1-1.8-.2-.3-.3-.6-.4-.9-.9-2.2-2.2-4.9-3.9-8-2.4,1.6-4.9,3.4-7.3,5.3,3.1,4.9,5.9,8.8,8.2,11.6.3.3.5.6.7,1,.7,1.1.9,2.2.8,3.3-.2,1.1-.6,2.1-1.4,3s-1.7,1.7-2.7,2.3c-1.2.7-2.5,1.2-3.9,1.5-1.4.3-2.7.3-3.9,0-1.2-.3-2.2-1.1-2.8-2.2Z"/>
      <path class="cls-2" d="M439.7,223.2c-.4-1.7-.3-3.3.4-4.8.6-1.5,1.9-2.7,3.8-3.5,3.8-1.4,7.5-3,11.2-4.7l-2.7-11.6c-4.1.1-8.2.4-12.1.7-2.1.1-3.7-.3-5-1.5-1.2-1.1-2.1-2.5-2.4-4.2-.4-1.5-.3-3.1,0-4.8.4-1.7,1.1-3.2,2.2-4.5,1.1-1.3,2.6-2.2,4.4-2.6,2.3-.5,4.6-.7,6.9-.6,2.3.1,4.7.4,7.1.9s4.9,1,7.4,1.6c3.6.9,7.4,1.7,11.4,2.4,4,.6,8.2.8,12.6.5,1.8,0,3.3.8,4.6,2.7,1.3,1.8,2.2,4,2.8,6.4.6,2.4.6,4.8.3,7-.4,2.2-1.4,3.7-3,4.4-4.1,1.6-7.8,3.6-11.1,5.9-3.3,2.3-6.4,4.7-9.3,7.1-2,1.7-4,3.2-5.9,4.7s-3.9,2.8-6,3.9c-2,1.1-4.2,1.9-6.5,2.4-1.8.4-3.5.3-5.1-.4-1.6-.7-2.9-1.7-3.9-3.1-1.1-1.3-1.8-2.8-2.1-4.3ZM464.6,198.6l1.6,6.3c3.4-1.8,6.9-3.7,10.4-5.7-4.1-.3-8-.5-12-.6Z"/>
      <path class="cls-2" d="M440.7,260.3c0-1.5.4-2.9,1.1-4.3.7-1.4,1.6-2.5,2.9-3.3,1.3-.8,2.8-1.2,4.7-1.1h1.1c5.2.8,10.9,1.3,16.9,1.6,5.6.3,10.9.3,15.9.2,0-2.7-.2-5-.4-7,0-.4,0-.8,0-1.2,0-1.3.5-2.4,1.2-3.2s1.7-1.4,2.8-1.8c1.1-.3,2.3-.5,3.6-.4,1.4,0,2.7.3,4,.8,1.3.5,2.4,1.2,3.3,2.1.9.9,1.3,1.9,1.2,3.1,0,1-.2,2.1-.3,3.6-.1,1.4-.3,3.2-.5,5.3-.2,2.1-.4,4.6-.5,7.5-.2,3.4-.2,6.5-.3,9.4,0,3.8,0,6,0,6.6,0,.2,0,.4,0,.6,0,1.3-.6,2.3-1.5,3.1-.9.8-2.1,1.4-3.4,1.8-1.4.4-2.7.6-4.1.5-1.3,0-2.4-.3-3.5-.8-1.1-.5-2-1.1-2.6-2s-1-2-.9-3.3c0-.4,0-.8.2-1.2.4-1.9.7-4.2,1-7-4.6-.7-9.2-1.2-13.6-1.4-3.3-.2-6.7-.1-10.1,0-3.4.2-7,.4-10.8.8-.3,0-.7,0-1,0-1.4,0-2.6-.5-3.5-1.4-.9-.9-1.6-2-2.1-3.3s-.6-2.7-.6-4.2Z"/>
      <path class="cls-2" d="M425.5,327.1l.4-.8c1.2-2.4,2.2-4.6,3-6.7.8-2.2,1.4-4.4,2-6.5s1.2-4.4,2.1-6.9c.6-1.7,1.5-3.2,2.5-4.3,1.1-1.2,2.3-1.9,3.8-2.3,1.4-.4,3-.3,4.8.4l1,.4c4.8,2.2,10,4.3,15.6,6.3,8.3,3,15.8,5.1,22.3,6.5.6.1,1.1.2,1.5.4,2.5.9,3.8,2.7,3.9,5.3,0,1.9-.5,4.4-1.5,7.4-.7,2-1.5,4.1-2.5,6.2-.9,2.1-1.8,4.3-2.6,6.5-.7,2.1-1.4,4.3-1.8,6.6l-.2.8c-.4,1.2-1.2,2.1-2.3,2.7-1.1.6-2.4.9-3.8.9-1.4,0-2.8-.2-4.1-.7-1.2-.4-2.2-1-3.1-1.7-.9-.7-1.6-1.6-1.9-2.7-.4-1-.4-2.2,0-3.4.1-.4.3-.7.5-1.1,1.8-3.3,3.7-7.6,5.8-13-2.2-1.1-4.4-2.1-6.6-3l-.3.9c-.8,2.3-1.5,4.8-2.1,7.5l-.2.7c-.3,1-1,1.7-1.9,2.2-.9.5-1.9.7-3.1.7-1.2,0-2.3-.2-3.3-.5-1-.3-1.8-.8-2.5-1.4s-1.3-1.3-1.6-2.2c-.3-.8-.3-1.7,0-2.8.1-.3.2-.6.4-.9,1.2-2.1,2.4-4.8,3.7-8.1-2.8-.8-5.7-1.6-8.7-2.3-1.8,5.5-3,10.1-3.7,13.7,0,.4-.2.8-.3,1.2-.4,1.2-1.1,2.1-2.1,2.7-1,.6-2,.9-3.2.9s-2.4-.2-3.5-.6c-1.3-.5-2.6-1.2-3.7-2.1-1.1-.9-1.9-1.9-2.4-3.1s-.5-2.4-.1-3.6Z"/>
      <path class="cls-2" d="M381,389.5c1.1-1,2.3-1.8,3.8-2.4,1.4-.5,2.9-.7,4.4-.4,1.5.3,2.9,1.1,4.2,2.5l.7.8c3.3,4.1,7,8.4,11.1,12.8,3.8,4.1,7.6,7.8,11.3,11.2,1.8-2,3.4-3.7,4.5-5.3.2-.3.5-.6.8-.9,1-.9,2-1.4,3.1-1.5,1.1,0,2.2.1,3.2.7,1.1.5,2,1.3,2.9,2.2.9,1,1.7,2.1,2.3,3.4.6,1.3.9,2.5.9,3.8s-.4,2.3-1.3,3.1c-.7.6-1.6,1.4-2.7,2.3-1.1.9-2.4,2.1-4,3.5-1.6,1.4-3.4,3.1-5.5,5-2.4,2.3-4.7,4.5-6.7,6.6-2.6,2.7-4.2,4.3-4.5,4.8,0,.1-.2.3-.4.5-.9.9-2,1.3-3.2,1.2-1.2,0-2.5-.4-3.7-1.1s-2.3-1.5-3.3-2.5c-.9-.9-1.5-1.9-2-3s-.7-2.2-.5-3.3c.1-1.1.7-2.1,1.6-3,.3-.3.6-.5,1-.7,1.6-1.1,3.4-2.5,5.6-4.3-2.8-3.8-5.8-7.3-8.8-10.5-2.3-2.4-4.7-4.7-7.3-7-2.6-2.2-5.4-4.6-8.3-7-.3-.2-.5-.5-.8-.7-1-1-1.5-2.2-1.5-3.5,0-1.3.2-2.6.8-3.9.6-1.3,1.5-2.4,2.5-3.4Z"/>
      <path class="cls-2" d="M335.9,421c2.5-1.3,5.3-1.9,8.3-2.1,3-.1,6,.4,9,1.6,3,1.2,5.9,3.2,8.7,5.8,2.8,2.7,5.3,6.2,7.4,10.6,2.1,4.2,3.3,8.2,3.7,11.9.4,3.7.2,7.1-.7,10.2s-2.3,5.7-4.2,8c-1.9,2.3-4.2,4-6.7,5.3-2.5,1.2-5.2,2-8.2,2.2-2.9.2-5.9-.3-8.9-1.3-3-1.1-5.8-2.9-8.5-5.4-2.7-2.5-5.1-5.9-7.2-10.1-2.2-4.5-3.6-8.7-4-12.6s-.3-7.4.6-10.6c.9-3.2,2.3-5.9,4.2-8.2,1.9-2.3,4.1-4.1,6.7-5.3ZM342.3,434.4c-1.1.5-1.9,1.6-2.3,3.1-.5,1.5-.5,3.5,0,6,.4,2.4,1.4,5.3,3,8.4,1.4,2.7,2.8,4.9,4.4,6.4,1.6,1.5,3.1,2.5,4.5,2.9,1.5.4,2.8.4,3.9-.2,1.1-.5,1.9-1.5,2.5-2.9.6-1.4.7-3.1.5-5.2-.2-2.1-1-4.5-2.3-7.1-1.6-3.3-3.3-5.8-5-7.7-1.7-1.9-3.4-3.1-4.9-3.7s-2.9-.6-4.1,0Z"/>
      <path class="cls-2" d="M276.5,439.3c6.9-1,12.9.8,17.8,5.3,4.9,4.5,8.1,11.3,9.7,20.3.5,3.5.5,7,0,10.4-.5,3.4-1.4,6.6-2.9,9.5-1.5,2.9-3.6,5.4-6.2,7.3-2.6,2-5.8,3.2-9.6,3.8-3.3.5-6.3,0-9-1.3-2.7-1.4-5-3.3-6.7-5.9-1.8-2.5-2.9-5.4-3.4-8.6-.2-1.4,0-2.6.6-3.7.6-1,1.4-1.8,2.5-2.4,1.1-.6,2.2-1,3.4-1.2,1.6-.2,3.1,0,4.5.5,1.4.6,2.2,1.5,2.4,2.9,0,.5,0,1,0,1.6,0,.6,0,1.2,0,1.8.2,1.2.6,2.2,1.3,2.9.7.7,1.6,1,2.8.8,4.2-.7,5.5-6.1,4.1-16.1-.6-3.9-1.4-6.9-2.5-9.1-1.1-2.2-2.4-3.8-3.8-4.6s-2.7-1.2-4-1c-1.2.2-2.3.7-3.2,1.7-.9,1-1.6,2.2-1.9,3.8,1.1-.3,2.6-.7,4.5-1.3.2,0,.4-.1.7-.1,1-.1,2,0,2.8.6.8.6,1.5,1.4,2.1,2.4.6,1,.9,2.1,1.1,3.2.1,1,.1,2,0,2.9-.2.9-.6,1.7-1.2,2.4-.6.7-1.4,1.1-2.5,1.2-.3,0-.6,0-1,0-3.2,0-7.1.4-11.9,1.1l-2.5.4c-1,.1-1.8-.2-2.4-1-.6-.8-1-1.8-1.2-3-.2-1.1-.1-2.2.2-3.4.3-1.2.7-2.2,1.5-3l-.3-1.8c-.4-2.9-.3-5.5.4-7.8.7-2.3,1.7-4.2,3.2-5.9,1.4-1.6,3.1-2.9,5-3.9,1.9-1,3.9-1.6,6.1-1.9Z"/>
      <path class="cls-2" d="M209.7,437l.8.2c2.6.8,4.9,1.3,7.2,1.6,2.3.3,4.6.6,6.8.7,2.2.1,4.6.4,7.2.7,1.8.3,3.4.8,4.8,1.6,1.3.8,2.3,1.9,3,3.3.7,1.3.8,2.9.6,4.8l-.2,1c-1.2,5.1-2.2,10.6-3.1,16.5-1.3,8.8-2,16.5-2,23.2,0,.6,0,1.1-.1,1.6-.4,2.6-1.9,4.2-4.5,4.8-1.9.4-4.4.4-7.5,0-2.1-.3-4.3-.7-6.5-1.2-2.2-.5-4.5-.9-6.9-1.3-2.2-.3-4.5-.5-6.9-.5h-.8c-1.3-.2-2.3-.8-3.1-1.8-.8-1-1.3-2.2-1.6-3.6s-.3-2.8-.1-4.2c.2-1.2.6-2.4,1.1-3.4.6-1,1.3-1.8,2.3-2.4.9-.6,2.1-.8,3.4-.6.4,0,.8.2,1.2.3,3.6,1.1,8.2,2.2,13.9,3.2.6-2.4,1.2-4.7,1.6-7h-1c-2.5-.5-5-.7-7.7-.7h-.7c-1-.2-1.9-.7-2.5-1.5-.6-.8-1.1-1.8-1.3-2.9-.2-1.1-.3-2.3-.1-3.4.1-1,.5-1.9.9-2.8.5-.8,1.1-1.5,1.8-2,.8-.5,1.7-.6,2.7-.5.3,0,.6.1.9.2,2.3.7,5.2,1.4,8.7,2.1.3-2.9.5-5.9.6-9-5.8-.7-10.5-1-14.2-1-.4,0-.8,0-1.2,0-1.3-.2-2.3-.7-3.1-1.5-.7-.8-1.2-1.8-1.5-3s-.3-2.4,0-3.6c.2-1.4.6-2.7,1.3-4,.7-1.3,1.5-2.3,2.6-3,1-.7,2.2-1,3.5-.8Z"/>
      <path class="cls-2" d="M167.9,422c1.3.7,2.5,1.5,3.5,2.7,1,1.1,1.7,2.5,1.9,3.9.3,1.5,0,3.1-.8,4.8l-.5,1c-2.7,4.5-5.4,9.5-8,14.9-2.4,5-4.6,9.9-6.4,14.6,2.5,1,4.7,1.8,6.6,2.3.4.1.8.2,1.1.4,1.2.6,2,1.4,2.5,2.3.5,1,.6,2.1.5,3.3-.1,1.2-.5,2.3-1,3.5-.6,1.2-1.4,2.3-2.4,3.4s-2,1.8-3.2,2.2c-1.1.4-2.3.4-3.3-.1-.9-.4-1.9-1-3.2-1.7-1.2-.7-2.8-1.5-4.7-2.5-1.9-1-4.1-2.1-6.7-3.4-3-1.5-5.9-2.8-8.5-3.9-3.5-1.5-5.5-2.3-6.1-2.5-.2,0-.4-.1-.6-.2-1.1-.5-1.9-1.4-2.3-2.6-.4-1.2-.5-2.5-.3-3.9.2-1.4.6-2.7,1.2-4,.5-1.1,1.2-2.1,2.1-2.9.8-.8,1.8-1.4,2.9-1.6,1.1-.3,2.2-.1,3.4.5.4.2.7.4,1,.6,1.6,1.1,3.6,2.3,6.1,3.7,2.5-4,4.7-8,6.7-12,1.4-3,2.7-6.1,3.9-9.3,1.2-3.2,2.4-6.6,3.6-10.3.1-.3.2-.7.4-1,.6-1.2,1.5-2.1,2.7-2.7s2.5-.7,3.9-.6c1.4.1,2.8.5,4.1,1.1Z"/>
      <path class="cls-2" d="M109.7,379c1.2,1.1,2.1,2.4,2.9,3.9.7,1.5,1.1,2.9,1.1,4.4s-.5,2.7-1.6,3.8c-.2.2-.5.4-.7.6-4.6,3.5-8.7,7-12.3,10.5,1,1.1,2.2,2.2,3.4,3.4,1.5,1.5,3.2,3,4.9,4.5,3.3-3.8,6.6-8,9.9-12.8.2-.3.4-.5.6-.8,1-1.1,2.3-1.7,3.8-1.8,1.5,0,2.9.2,4.5.9s2.8,1.6,4,2.7c1.1,1,1.9,2.1,2.5,3.4.6,1.2.9,2.5.8,3.7,0,1.3-.7,2.5-1.7,3.6-.3.3-.6.6-1,.9-5.2,4.1-10.8,9.4-16.9,15.8-4.1,4.3-7.9,8.6-11.2,12.7l-.7.8c-1.3,1.4-2.7,2.2-4.2,2.5-1.5.3-2.9.1-4.4-.4s-2.7-1.4-3.8-2.4c-1.1-1-1.9-2.2-2.5-3.4-.6-1.3-.9-2.6-.8-3.9,0-1.3.6-2.5,1.6-3.5.2-.2.5-.5.7-.7,4-3,7.6-6,10.7-9-2.8-2.6-5.6-5.1-8.4-7.3-2.7,3.3-5.4,6.8-8.2,10.7-.2.3-.4.6-.7.8-1,1-2.1,1.6-3.4,1.7-1.3.1-2.6,0-3.9-.6-1.3-.5-2.5-1.3-3.6-2.3-1.1-1.1-2-2.3-2.6-3.6-.6-1.4-.8-2.8-.6-4.3.2-1.5,1-2.9,2.3-4.3l.8-.8c4-3.5,8-7.4,12.1-11.8,6.1-6.4,11.1-12.3,15-17.6.3-.4.6-.8.9-1.1,1-1.1,2.2-1.7,3.5-1.9,1.3-.2,2.5,0,3.8.6,1.2.5,2.4,1.3,3.5,2.3Z"/>
      <path class="cls-2" d="M77.8,330.7l.3.8c.9,2.5,2,4.7,3,6.7,1.1,2.1,2.3,4,3.6,5.8,1.2,1.8,2.5,3.9,3.8,6.2.9,1.6,1.4,3.2,1.6,4.8.2,1.6,0,3-.8,4.4-.7,1.3-1.8,2.4-3.4,3.3l-.9.5c-4.8,2.1-9.8,4.6-15.1,7.5-7.8,4.3-14.3,8.4-19.7,12.4-.5.3-.9.6-1.3.9-2.3,1.3-4.5,1.1-6.6-.6-1.5-1.3-3-3.3-4.5-6-1-1.9-2-3.9-3-6-.9-2.1-2-4.2-3.1-6.3-1.1-1.9-2.3-3.9-3.7-5.8l-.5-.7c-.6-1.1-.8-2.3-.5-3.6.3-1.2.9-2.4,1.9-3.4.9-1.1,2-1.9,3.3-2.6,1.1-.6,2.2-1,3.4-1.2,1.2-.2,2.3,0,3.3.3,1,.4,1.9,1.2,2.5,2.3.2.3.3.7.5,1.1,1.3,3.5,3.2,7.8,5.9,13,2.3-.9,4.5-1.9,6.6-2.9l-.5-.8c-1.2-2.2-2.6-4.3-4.2-6.5l-.4-.6c-.5-.9-.6-1.9-.4-2.9.2-1,.8-1.9,1.5-2.8.8-.9,1.6-1.6,2.6-2.1.9-.5,1.8-.8,2.8-1,1-.1,1.8,0,2.7.3.8.3,1.5,1,2,1.9.2.3.3.6.4.9.8,2.3,2,5,3.6,8.2,2.5-1.5,5-3.2,7.5-5-2.9-5-5.5-9-7.8-11.9-.3-.3-.5-.7-.7-1-.6-1.1-.8-2.3-.6-3.4.2-1.1.7-2.1,1.5-3,.8-.9,1.7-1.6,2.8-2.2,1.2-.7,2.6-1.1,4-1.4,1.4-.2,2.7-.1,3.9.2,1.2.4,2.1,1.2,2.7,2.3Z"/>
      <path class="cls-2" d="M62,276c.4,1.9,0,3.8-1,5.8-1,2-2.5,3.9-4.4,5.7-1.9,1.8-4,3.5-6.3,5-2.3,1.5-4.5,2.8-6.7,3.8.1.5.2,1.1.3,1.7,3.5-.9,6.7-2,9.8-3.1,2.4-.9,4-1.4,4.8-1.5,1.4-.3,2.6-.1,3.8.5s2.2,1.5,3,2.7c.8,1.2,1.4,2.5,1.6,3.9.3,1.5.3,3,0,4.5-.4,1.5-1.1,2.8-2.1,4-1.1,1.1-2.5,1.9-4.4,2.3l-1,.2c-5.3.6-10.9,1.5-16.8,2.6-8.5,1.7-15.9,3.6-22,5.8-.5.2-.9.3-1.3.4-1.5.3-2.8.1-3.9-.5-1.1-.6-2-1.5-2.7-2.7-.7-1.2-1.2-2.5-1.5-3.9-.3-1.5-.4-3-.2-4.6.2-1.5.7-2.9,1.4-4.1-2.6-3.2-4.1-6.2-4.7-9.1-.6-2.9-.4-5.7.7-8.2,1.1-2.5,2.7-4.7,4.8-6.4,2.2-1.7,4.6-2.9,7.4-3.4,2.7-.5,5.2-.7,7.7-.5,2.4.2,4.7,1,6.7,2.4,2,1.4,3.8,3.5,5.3,6.4,1.3-1.3,2.4-3.1,3.2-5.3.8-2.2,1.4-5.2,1.8-9,.2-1.4.6-2.5,1.5-3.3.8-.8,1.8-1.3,3-1.6,1.5-.3,3.1-.1,4.8.4,1.8.6,3.3,1.6,4.7,3.1,1.4,1.5,2.4,3.4,2.8,5.8ZM34.2,297.7c-.4-1.9-1-3.4-1.9-4.5-.9-1.1-1.9-1.8-3-2.2-1.1-.4-2.2-.5-3.3-.2-1.4.3-2.6,1-3.6,2.2-.9,1.2-1.2,2.7-.9,4.4.2,1.2.9,2.5,1.9,3.9,3.9-.3,7.5-.8,11.1-1.4,0-.8-.1-1.6-.3-2.3Z"/>
      <path class="cls-2" d="M44.1,240.1c0,1.4-.4,2.7-.9,4-.5,1.3-1.4,2.3-2.4,3-1.1.8-2.4,1.1-3.9,1-.5,0-.9,0-1.3-.2-2.6-.6-6.2-1-10.9-1.3-2.7-.1-5.9-.2-9.3,0h-5.9c-.2,0-.5,0-.9,0-1.8,0-3.2-.6-4.2-1.6-1.1-1-1.8-2.2-2.3-3.7-.5-1.5-.6-2.9-.6-4.4,0-1.5.4-2.8.9-4.1.6-1.3,1.3-2.3,2.3-3.1s2.1-1.1,3.4-1.1c.4,0,.8.1,1.3.2,4.8,1.3,10.3,2.1,16.5,2.5,4.5.2,8.1.1,10.8-.4.5,0,1-.1,1.4,0,1.4,0,2.5.6,3.4,1.5.9.9,1.6,2.1,2,3.5.4,1.4.6,2.8.5,4.3ZM61.1,241c-.1,2.2-.9,4.1-2.3,5.5-1.4,1.5-3,2.2-4.8,2.1s-3.4-1-4.6-2.6c-1.2-1.6-1.8-3.5-1.7-5.8.1-2.2.9-4.1,2.3-5.6,1.4-1.5,3-2.2,4.8-2.1,1.8.1,3.4,1,4.6,2.6s1.8,3.6,1.6,5.8Z"/>
    </g>
  </g>
  <g id="Layer_2" data-name="Layer 2" class="cls-3">
    <path class="cls-1" d="M419.6,412.2l7.6-9.5-27.8-22.3,11.3-14.1,27.8,22.3,7.6-9.5,11.7,9.4-26.6,33.2-11.7-9.4h0ZM406.7,443c-3.7-4.8-8.8-11.4-12.6-16.3-6,4.7-1.6,1.2-7.6,5.9,3.7,4.8,8.8,11.4,12.6,16.3l-14.3,11.1-31-40.1,14.3-11.1c3.7,4.8,8.8,11.4,12.5,16.3,6-4.7,1.6-1.2,7.6-5.9-3.7-4.8-8.8-11.4-12.5-16.3l14.3-11.1,31,40.1-14.3,11.1ZM331.6,485.4l-6-13.8,20.7-9.1-2.2-5.1c-3.3,1.5-13.3,5.8-16.6,7.3l-3.9-8.8c3.3-1.5,13.3-5.8,16.6-7.3l-2.2-5.1-20.7,9.1-6-13.8,37.3-16.4,20.4,46.5-37.2,16.4h0ZM247.6,498.5l-3.2-14.3-8.1-35.9,17.7-.9,2.6,11.2,8.8-.4,1.4-11.4,17.7-.9-4.6,36.5-1.8,14.6-30.3,1.4h0ZM261.3,480c0,.3.3.5.6.5s.5-.2.5-.5l1.5-12.1-5.3.3,2.7,11.9ZM150.3,480.1l6.3-13.8,8.8-19.1,6.4-13.8,24.5,6.4-.7,15.3-.2,6c0,.3.2.6.5.7s.6,0,.7-.3l2.7-5.3,6.9-13.7,24.5,6.4-1.2,15.2-1.7,21-1.2,15.2-17.2-4.5,1.1-15.2,1.2-16.8c0-.3-.2-.6-.5-.7s-.6,0-.8.4l-7.1,15.3-6.4,13.8-17.2-4.5,1.1-15.2,1.2-16.8c0-.3-.2-.6-.5-.7s-.6,0-.8.4l-7.1,15.3-6.4,13.8-17.1-4.5h0ZM100.6,448.6l8-12.7,19.1,12.1,2.9-4.7c-3.1-1.9-12.3-7.8-15.4-9.7l5.1-8.2c3.1,1.9,12.3,7.8,15.4,9.7l3-4.7-19.1-12,8-12.7,34.5,21.7-27,42.9s-34.5-21.7-34.5-21.7ZM85.5,406.2c-6.5-9.1-18.2-19.2-8-28.9,8.4-7.9,17.9-4.2,24.4,2.8l22.4,23.8-10.9,10.3-17.7-18.9c-3.4-3.7-6.8.4-4.3,3.9,6.5,9.1,17.9,18.9,7.6,28.6-8.4,7.9-17.6,4.5-24.1-2.5l-22.7-24.1,10.9-10.3,18,19.2c3.4,3.7,6.8-.4,4.3-3.9h0ZM41.2,329.5c30.6-16,55.1,30.7,24.5,46.8s-55.1-30.7-24.5-46.8h0ZM49.9,346.2c-12.2,6.4-5.1,19.9,7.1,13.5,12.1-6.4,5-19.9-7.1-13.5Z"/>
    <path class="cls-1" d="M28.8,270.9l1.9,12.1,35.3-5.5,2.8,17.9-35.3,5.5,1.9,12.1-14.8,2.3-6.6-42,14.8-2.3h0ZM14.8,240.6c6.1.5,14.4,1.2,20.5,1.7.6-7.6.2-2,.8-9.6-6.1-.5-14.4-1.2-20.5-1.7l1.5-18.1,50.5,4.1-1.4,18c-6.1-.5-14.3-1.1-20.5-1.7-.6,7.6-.1,2-.8,9.6,6.1.5,14.3,1.1,20.5,1.7l-1.5,18.1-50.5-4.1,1.5-18ZM34,156.6l14.2,4.8-7.2,21.4,5.3,1.8c1.2-3.5,4.6-13.8,5.8-17.2l9.1,3.1c-1.2,3.5-4.6,13.8-5.8,17.2l5.3,1.8,7.2-21.5,14.2,4.8-13,38.6-48.1-16.2,13-38.5h0ZM80.9,85.6l12.8,7.3,32,18.1-11.3,13.7-10-5.6-5.6,6.8,7.5,8.7-11.3,13.7-23.9-28-9.6-11.2,19.4-23.4h0ZM85.3,108.2c-.2-.2-.6,0-.7.1s-.2.5,0,.7l7.9,9.3,3.4-4.1-10.6-6ZM160,26l6,14,8.2,19.4,6,14-21.3,13.8-10.9-10.8-4.3-4.2c-.2-.2-.6-.3-.8,0s-.4.5-.3.8l2.1,5.6,5.5,14.3-21.3,13.8-10.4-11.1-14.4-15.4-10.4-11.1,14.9-9.7,10.5,11.1,11.6,12.2c.2.2.6.3.8,0s.4-.5.3-.8l-6.5-15.5-5.9-14.1,14.9-9.7,10.5,11.1,11.6,12.2c.2.2.6.3.8,0s.4-.5.3-.8l-6.5-15.5-5.9-14.1,14.9-9.6h0ZM216.8,10.6l4,14.5-21.8,6,1.5,5.3c3.5-1,14.1-3.9,17.5-4.9l2.6,9.3c-3.5,1-14.1,3.9-17.5,4.9l1.5,5.4,21.8-6.1,4,14.5-39.2,10.8-13.6-48.9s39.3-10.9,39.3-10.9ZM258.3,28c11.2,1.3,26.5-.5,26.7,13.6.2,11.5-9,16-18.5,16.2l-32.7.5-.3-15,25.9-.4c5,0,4.3-5.3,0-5.8-11.2-1.3-26,.5-26.2-13.6-.2-11.5,8.5-16,18.1-16.2l33.1-.5.3,15-26.3.4c-5,0-4.3,5.3,0,5.8h0ZM344.8,46.9c-8.7,33.4-59.8,20.1-51.1-13.4,8.7-33.5,59.8-20.1,51.1,13.4h0ZM326.6,42.1c3.5-13.3-11.2-17.2-14.7-3.8-3.4,13.3,11.3,17.1,14.7,3.8Z"/>
    <path class="cls-1" d="M419.6,412.2l7.6-9.5-27.8-22.3,11.3-14.1,27.8,22.3,7.6-9.5,11.7,9.4-26.6,33.2-11.7-9.4h0ZM406.7,443c-3.7-4.8-8.8-11.4-12.6-16.3-6,4.7-1.6,1.2-7.6,5.9,3.7,4.8,8.8,11.4,12.6,16.3l-14.3,11.1-31-40.1,14.3-11.1c3.7,4.8,8.8,11.4,12.5,16.3,6-4.7,1.6-1.2,7.6-5.9-3.7-4.8-8.8-11.4-12.5-16.3l14.3-11.1,31,40.1-14.3,11.1ZM331.6,485.4l-6-13.8,20.7-9.1-2.2-5.1c-3.3,1.5-13.3,5.8-16.6,7.3l-3.9-8.8c3.3-1.5,13.3-5.8,16.6-7.3l-2.2-5.1-20.7,9.1-6-13.8,37.3-16.4,20.4,46.5-37.2,16.4h0ZM247.6,498.5l-3.2-14.3-8.1-35.9,17.7-.9,2.6,11.2,8.8-.4,1.4-11.4,17.7-.9-4.6,36.5-1.8,14.6-30.3,1.4h0ZM261.3,480c0,.3.3.5.6.5s.5-.2.5-.5l1.5-12.1-5.3.3,2.7,11.9ZM150.3,480.1l6.3-13.8,8.8-19.1,6.4-13.8,24.5,6.4-.7,15.3-.2,6c0,.3.2.6.5.7s.6,0,.7-.3l2.7-5.3,6.9-13.7,24.5,6.4-1.2,15.2-1.7,21-1.2,15.2-17.2-4.5,1.1-15.2,1.2-16.8c0-.3-.2-.6-.5-.7s-.6,0-.8.4l-7.1,15.3-6.4,13.8-17.2-4.5,1.1-15.2,1.2-16.8c0-.3-.2-.6-.5-.7s-.6,0-.8.4l-7.1,15.3-6.4,13.8-17.1-4.5h0ZM100.6,448.6l8-12.7,19.1,12.1,2.9-4.7c-3.1-1.9-12.3-7.8-15.4-9.7l5.1-8.2c3.1,1.9,12.3,7.8,15.4,9.7l3-4.7-19.1-12,8-12.7,34.5,21.7-27,42.9s-34.5-21.7-34.5-21.7ZM85.5,406.2c-6.5-9.1-18.2-19.2-8-28.9,8.4-7.9,17.9-4.2,24.4,2.8l22.4,23.8-10.9,10.3-17.7-18.9c-3.4-3.7-6.8.4-4.3,3.9,6.5,9.1,17.9,18.9,7.6,28.6-8.4,7.9-17.6,4.5-24.1-2.5l-22.7-24.1,10.9-10.3,18,19.2c3.4,3.7,6.8-.4,4.3-3.9h0ZM41.2,329.5c30.6-16,55.1,30.7,24.5,46.8s-55.1-30.7-24.5-46.8h0ZM49.9,346.2c-12.2,6.4-5.1,19.9,7.1,13.5,12.1-6.4,5-19.9-7.1-13.5Z"/>
    <path class="cls-1" d="M397.6,77.5l-9.9-7.1-20.9,28.9-14.7-10.6,20.9-28.9-9.9-7.1,8.8-12.1,34.5,24.9-8.8,12.1h0ZM429.1,88.9c-4.7,4-11,9.4-15.6,13.4,5,5.8,1.3,1.5,6.3,7.3,4.7-4,11-9.4,15.6-13.4l11.8,13.8-38.5,32.9-11.8-13.7c4.7-4,10.9-9.4,15.6-13.3-5-5.8-1.3-1.5-6.3-7.3-4.7,4-10.9,9.4-15.6,13.3l-11.8-13.8,38.5-32.9,11.8,13.7ZM475.1,161.8l-13.4,6.7-10.1-20.2-5,2.5c1.6,3.3,6.5,13,8.1,16.2l-8.6,4.3c-1.6-3.3-6.5-13-8.1-16.2l-5,2.5,10.2,20.2-13.4,6.7-18.2-36.4,45.4-22.7,18.2,36.4h0ZM492.4,245.1l-14.2,4-35.4,9.9-1.7-17.7,11.1-3.1-.8-8.7-11.4-.9-1.7-17.6,36.7,2.8,14.7,1.1,2.9,30.2h0ZM473.3,232.3c.3,0,.4-.3.4-.6s-.3-.5-.5-.5l-12.2-.9.5,5.3,11.7-3.3ZM478.9,343.1l-14.1-5.6-19.6-7.8-14.1-5.7,5.2-24.8h15.3c0,0,6-.1,6-.1.3,0,.6-.2.7-.5s0-.6-.4-.7l-5.5-2.4-14-6.2,5.2-24.8,15.2.5,21,.6,15.2.5-3.6,17.4-15.3-.4-16.8-.4c-.3,0-.6.2-.7.5s0,.6.4.8l15.6,6.3,14.1,5.7-3.6,17.4-15.3-.4-16.8-.4c-.3,0-.6.2-.7.5s0,.6.4.8l15.6,6.3,14.1,5.7-3.7,17.3h0Z"/>
  </g>
</svg>