<?xml version="1.0" encoding="UTF-8"?>
<svg xmlns="http://www.w3.org/2000/svg" version="1.1" xmlns:xlink="http://www.w3.org/1999/xlink" viewBox="0 0 500 500">
  <defs>
    <style>
      .cls-1 {
        stroke-width: 0px;
      }

      .cls-1, .cls-2 {
        fill: #000;
      }

      .cls-2 {
        font-family: SuperCreamy, 'Super Creamy';
        font-size: 72px;
      }

      .cls-3 {
        display: none;
      }
    </style>
    <path id="path" d="M438.1,243.3c0,102.5-83.1,185.6-185.6,185.6s-185.6-83.1-185.6-185.6S150.1,57.8,252.5,57.8s185.6,83.1,185.6,185.6Z"/>
  </defs>
  <g id="Layer_1" data-name="Layer 1">
    <text>
      <textPath startOffset="73.9%" xlink:href="#path"><tspan class="cls-2"><tspan x="0" y="0">¿VAMOS A CREAR ALGO JUNTOS?</tspan></tspan>
      </textPath></text>
    <text/>
  </g>
  <g id="Layer_2" data-name="Layer 2" class="cls-3">
    <path class="cls-1" d="M419.6,412.2l7.6-9.5-27.8-22.3,11.3-14.1,27.8,22.3,7.6-9.5,11.7,9.4-26.6,33.2-11.7-9.4h0ZM406.7,443c-3.7-4.8-8.8-11.4-12.6-16.3-6,4.7-1.6,1.2-7.6,5.9,3.7,4.8,8.8,11.4,12.6,16.3l-14.3,11.1-31-40.1,14.3-11.1c3.7,4.8,8.8,11.4,12.5,16.3,6-4.7,1.6-1.2,7.6-5.9-3.7-4.8-8.8-11.4-12.5-16.3l14.3-11.1,31,40.1-14.3,11.1ZM331.6,485.4l-6-13.8,20.7-9.1-2.2-5.1c-3.3,1.5-13.3,5.8-16.6,7.3l-3.9-8.8c3.3-1.5,13.3-5.8,16.6-7.3l-2.2-5.1-20.7,9.1-6-13.8,37.3-16.4,20.4,46.5-37.2,16.4h0ZM247.6,498.5l-3.2-14.3-8.1-35.9,17.7-.9,2.6,11.2,8.8-.4,1.4-11.4,17.7-.9-4.6,36.5-1.8,14.6-30.3,1.4h0ZM261.3,480c0,.3.3.5.6.5s.5-.2.5-.5l1.5-12.1-5.3.3,2.7,11.9ZM150.3,480.1l6.3-13.8,8.8-19.1,6.4-13.8,24.5,6.4-.7,15.3-.2,6c0,.3.2.6.5.7s.6,0,.7-.3l2.7-5.3,6.9-13.7,24.5,6.4-1.2,15.2-1.7,21-1.2,15.2-17.2-4.5,1.1-15.2,1.2-16.8c0-.3-.2-.6-.5-.7s-.6,0-.8.4l-7.1,15.3-6.4,13.8-17.2-4.5,1.1-15.2,1.2-16.8c0-.3-.2-.6-.5-.7s-.6,0-.8.4l-7.1,15.3-6.4,13.8-17.1-4.5h0ZM100.6,448.6l8-12.7,19.1,12.1,2.9-4.7c-3.1-1.9-12.3-7.8-15.4-9.7l5.1-8.2c3.1,1.9,12.3,7.8,15.4,9.7l3-4.7-19.1-12,8-12.7,34.5,21.7-27,42.9s-34.5-21.7-34.5-21.7ZM85.5,406.2c-6.5-9.1-18.2-19.2-8-28.9,8.4-7.9,17.9-4.2,24.4,2.8l22.4,23.8-10.9,10.3-17.7-18.9c-3.4-3.7-6.8.4-4.3,3.9,6.5,9.1,17.9,18.9,7.6,28.6-8.4,7.9-17.6,4.5-24.1-2.5l-22.7-24.1,10.9-10.3,18,19.2c3.4,3.7,6.8-.4,4.3-3.9h0ZM41.2,329.5c30.6-16,55.1,30.7,24.5,46.8s-55.1-30.7-24.5-46.8h0ZM49.9,346.2c-12.2,6.4-5.1,19.9,7.1,13.5,12.1-6.4,5-19.9-7.1-13.5Z"/>
    <path class="cls-1" d="M28.8,270.9l1.9,12.1,35.3-5.5,2.8,17.9-35.3,5.5,1.9,12.1-14.8,2.3-6.6-42,14.8-2.3h0ZM14.8,240.6c6.1.5,14.4,1.2,20.5,1.7.6-7.6.2-2,.8-9.6-6.1-.5-14.4-1.2-20.5-1.7l1.5-18.1,50.5,4.1-1.4,18c-6.1-.5-14.3-1.1-20.5-1.7-.6,7.6-.1,2-.8,9.6,6.1.5,14.3,1.1,20.5,1.7l-1.5,18.1-50.5-4.1,1.5-18ZM34,156.6l14.2,4.8-7.2,21.4,5.3,1.8c1.2-3.5,4.6-13.8,5.8-17.2l9.1,3.1c-1.2,3.5-4.6,13.8-5.8,17.2l5.3,1.8,7.2-21.5,14.2,4.8-13,38.6-48.1-16.2,13-38.5h0ZM80.9,85.6l12.8,7.3,32,18.1-11.3,13.7-10-5.6-5.6,6.8,7.5,8.7-11.3,13.7-23.9-28-9.6-11.2,19.4-23.4h0ZM85.3,108.2c-.2-.2-.6,0-.7.1s-.2.5,0,.7l7.9,9.3,3.4-4.1-10.6-6ZM160,26l6,14,8.2,19.4,6,14-21.3,13.8-10.9-10.8-4.3-4.2c-.2-.2-.6-.3-.8,0s-.4.5-.3.8l2.1,5.6,5.5,14.3-21.3,13.8-10.4-11.1-14.4-15.4-10.4-11.1,14.9-9.7,10.5,11.1,11.6,12.2c.2.2.6.3.8,0s.4-.5.3-.8l-6.5-15.5-5.9-14.1,14.9-9.7,10.5,11.1,11.6,12.2c.2.2.6.3.8,0s.4-.5.3-.8l-6.5-15.5-5.9-14.1,14.9-9.6h0ZM216.8,10.6l4,14.5-21.8,6,1.5,5.3c3.5-1,14.1-3.9,17.5-4.9l2.6,9.3c-3.5,1-14.1,3.9-17.5,4.9l1.5,5.4,21.8-6.1,4,14.5-39.2,10.8-13.6-48.9s39.3-10.9,39.3-10.9ZM258.3,28c11.2,1.3,26.5-.5,26.7,13.6.2,11.5-9,16-18.5,16.2l-32.7.5-.3-15,25.9-.4c5,0,4.3-5.3,0-5.8-11.2-1.3-26,.5-26.2-13.6-.2-11.5,8.5-16,18.1-16.2l33.1-.5.3,15-26.3.4c-5,0-4.3,5.3,0,5.8h0ZM344.8,46.9c-8.7,33.4-59.8,20.1-51.1-13.4,8.7-33.5,59.8-20.1,51.1,13.4h0ZM326.6,42.1c3.5-13.3-11.2-17.2-14.7-3.8-3.4,13.3,11.3,17.1,14.7,3.8Z"/>
    <path class="cls-1" d="M419.6,412.2l7.6-9.5-27.8-22.3,11.3-14.1,27.8,22.3,7.6-9.5,11.7,9.4-26.6,33.2-11.7-9.4h0ZM406.7,443c-3.7-4.8-8.8-11.4-12.6-16.3-6,4.7-1.6,1.2-7.6,5.9,3.7,4.8,8.8,11.4,12.6,16.3l-14.3,11.1-31-40.1,14.3-11.1c3.7,4.8,8.8,11.4,12.5,16.3,6-4.7,1.6-1.2,7.6-5.9-3.7-4.8-8.8-11.4-12.5-16.3l14.3-11.1,31,40.1-14.3,11.1ZM331.6,485.4l-6-13.8,20.7-9.1-2.2-5.1c-3.3,1.5-13.3,5.8-16.6,7.3l-3.9-8.8c3.3-1.5,13.3-5.8,16.6-7.3l-2.2-5.1-20.7,9.1-6-13.8,37.3-16.4,20.4,46.5-37.2,16.4h0ZM247.6,498.5l-3.2-14.3-8.1-35.9,17.7-.9,2.6,11.2,8.8-.4,1.4-11.4,17.7-.9-4.6,36.5-1.8,14.6-30.3,1.4h0ZM261.3,480c0,.3.3.5.6.5s.5-.2.5-.5l1.5-12.1-5.3.3,2.7,11.9ZM150.3,480.1l6.3-13.8,8.8-19.1,6.4-13.8,24.5,6.4-.7,15.3-.2,6c0,.3.2.6.5.7s.6,0,.7-.3l2.7-5.3,6.9-13.7,24.5,6.4-1.2,15.2-1.7,21-1.2,15.2-17.2-4.5,1.1-15.2,1.2-16.8c0-.3-.2-.6-.5-.7s-.6,0-.8.4l-7.1,15.3-6.4,13.8-17.2-4.5,1.1-15.2,1.2-16.8c0-.3-.2-.6-.5-.7s-.6,0-.8.4l-7.1,15.3-6.4,13.8-17.1-4.5h0ZM100.6,448.6l8-12.7,19.1,12.1,2.9-4.7c-3.1-1.9-12.3-7.8-15.4-9.7l5.1-8.2c3.1,1.9,12.3,7.8,15.4,9.7l3-4.7-19.1-12,8-12.7,34.5,21.7-27,42.9s-34.5-21.7-34.5-21.7ZM85.5,406.2c-6.5-9.1-18.2-19.2-8-28.9,8.4-7.9,17.9-4.2,24.4,2.8l22.4,23.8-10.9,10.3-17.7-18.9c-3.4-3.7-6.8.4-4.3,3.9,6.5,9.1,17.9,18.9,7.6,28.6-8.4,7.9-17.6,4.5-24.1-2.5l-22.7-24.1,10.9-10.3,18,19.2c3.4,3.7,6.8-.4,4.3-3.9h0ZM41.2,329.5c30.6-16,55.1,30.7,24.5,46.8s-55.1-30.7-24.5-46.8h0ZM49.9,346.2c-12.2,6.4-5.1,19.9,7.1,13.5,12.1-6.4,5-19.9-7.1-13.5Z"/>
    <path class="cls-1" d="M397.6,77.5l-9.9-7.1-20.9,28.9-14.7-10.6,20.9-28.9-9.9-7.1,8.8-12.1,34.5,24.9-8.8,12.1h0ZM429.1,88.9c-4.7,4-11,9.4-15.6,13.4,5,5.8,1.3,1.5,6.3,7.3,4.7-4,11-9.4,15.6-13.4l11.8,13.8-38.5,32.9-11.8-13.7c4.7-4,10.9-9.4,15.6-13.3-5-5.8-1.3-1.5-6.3-7.3-4.7,4-10.9,9.4-15.6,13.3l-11.8-13.8,38.5-32.9,11.8,13.7ZM475.1,161.8l-13.4,6.7-10.1-20.2-5,2.5c1.6,3.3,6.5,13,8.1,16.2l-8.6,4.3c-1.6-3.3-6.5-13-8.1-16.2l-5,2.5,10.2,20.2-13.4,6.7-18.2-36.4,45.4-22.7,18.2,36.4h0ZM492.4,245.1l-14.2,4-35.4,9.9-1.7-17.7,11.1-3.1-.8-8.7-11.4-.9-1.7-17.6,36.7,2.8,14.7,1.1,2.9,30.2h0ZM473.3,232.3c.3,0,.4-.3.4-.6s-.3-.5-.5-.5l-12.2-.9.5,5.3,11.7-3.3ZM478.9,343.1l-14.1-5.6-19.6-7.8-14.1-5.7,5.2-24.8h15.3c0,0,6-.1,6-.1.3,0,.6-.2.7-.5s0-.6-.4-.7l-5.5-2.4-14-6.2,5.2-24.8,15.2.5,21,.6,15.2.5-3.6,17.4-15.3-.4-16.8-.4c-.3,0-.6.2-.7.5s0,.6.4.8l15.6,6.3,14.1,5.7-3.6,17.4-15.3-.4-16.8-.4c-.3,0-.6.2-.7.5s0,.6.4.8l15.6,6.3,14.1,5.7-3.7,17.3h0Z"/>
  </g>
</svg>