<svg width="124" height="187" viewBox="0 0 124 187" fill="none" xmlns="http://www.w3.org/2000/svg">
<path d="M86.6277 2.69386C106.604 23.2363 148.968 61.699 97.1546 89.1332C83.2565 96.492 69.6782 101.996 57.0669 95.0326C46.8686 89.4012 58.8655 77.4667 70.1265 77.656C84.6282 77.8997 95.652 82.6041 105.379 92.6279C113.755 101.26 118.964 108.06 117.12 120.567C113.932 142.189 91.0794 154.735 66.6208 162.716C47.9512 168.809 35.6951 172.588 20.2 173.431C17.6847 173.568 1.84302 173.861 2.35325 174.058C11.3726 177.531 25.7763 180.436 35.7489 182.411C38.9064 183.09 41.1467 183.746 43.7237 184.269C45.6031 184.652 40.1927 183.377 38.9064 183.09C27.8726 180.634 14.7136 177.982 4.11209 174.705C-2.53168 172.651 11.0356 164.122 16.6435 161.291C25.6501 156.745 33.4672 152.799 39.3159 148.914" stroke="black" stroke-width="4" stroke-linecap="round"/>
</svg>
