<?xml version="1.0" encoding="UTF-8"?>
<svg id="Layer_1" data-name="Layer 1" xmlns="http://www.w3.org/2000/svg" version="1.1" viewBox="0 0 124 187">
  <defs>
    <style>
      .cls-1 {
        fill: none;
        stroke: #fff;
        stroke-linecap: round;
        stroke-width: 4px;
      }
    </style>
  </defs>
  <path class="cls-1" d="M86.6,2.7c20,20.5,62.3,59,10.5,86.4-13.9,7.4-27.5,12.9-40.1,5.9-10.2-5.6,1.8-17.6,13.1-17.4,14.5.2,25.5,4.9,35.3,15,8.4,8.6,13.6,15.4,11.7,27.9-3.2,21.6-26,34.2-50.5,42.1-18.7,6.1-30.9,9.9-46.4,10.7-2.5.1-18.4.4-17.8.6,9,3.5,23.4,6.4,33.4,8.4,3.2.7,5.4,1.3,8,1.9,1.9.4-3.5-.9-4.8-1.2-11-2.5-24.2-5.1-34.8-8.4-6.6-2.1,6.9-10.6,12.5-13.4,9-4.5,16.8-8.5,22.7-12.4"/>
</svg>