<?xml version="1.0" encoding="utf-8"?>
<!-- Generator: Adobe Illustrator 27.9.6, SVG Export Plug-In . SVG Version: 9.03 Build 54986)  -->
<svg version="1.1" id="Layer_1" xmlns="http://www.w3.org/2000/svg" xmlns:xlink="http://www.w3.org/1999/xlink" x="0px" y="0px"
	 viewBox="0 0 120.5 120.4" style="enable-background:new 0 0 120.5 120.4;" xml:space="preserve">
<style type="text/css">
	.st0{fill:#FFFFFF;}
</style>
<path class="st0" d="M43.9,71.4c0,5.5-3.3,9.2-8.8,10.5c-1.8,0.4-3.6,0.6-5.5,0.6H18.2c-0.6,0-1.1-0.4-1.1-0.9V61.5
	c-0.1-0.6,0.4-1.1,0.9-1.1h11.9c1.7,0,3.4,0.1,5,0.4C40.4,62.1,43.8,65.9,43.9,71.4"/>
<path class="st0" d="M18.3,58c-0.6,0-1.1-0.4-1.1-0.9V39c-0.1-0.6,0.4-1.1,0.9-1.1h10.2c1.6,0,3.1,0.1,4.6,0.4
	c5.1,1.1,8.3,4.6,8.4,9.7c0,5.1-3.1,8.4-8.2,9.7c-1.6,0.3-3.4,0.5-5,0.4H18.3"/>
<path class="st0" d="M101.7,81.8v-4c0-0.6-0.3-0.9-1-0.9s-1.4,0.5-1.4,0.9v4h-1.6v-8.9h1.6v3.2c0.5-0.4,1.1-0.6,1.8-0.6
	c1.4,0,2.1,0.6,2.1,1.9v4.4C103.3,81.8,101.7,81.8,101.7,81.8z"/>
<path class="st0" d="M73.1,48.4h1.6v8.9h-1.6C73.1,57.3,73.1,48.4,73.1,48.4z"/>
<path class="st0" d="M96,77.4c-0.4-0.4-0.9-0.6-1.4-0.6c-1,0-1.4,0.6-1.4,1.9c0,1.3,0.4,1.9,1.5,1.9c1.1,0,1.1-0.2,1.4-0.6l0.8,1.1
	c-0.6,0.6-1.5,0.9-2.4,0.8c-2.1,0-2.9-1.3-2.9-3.2c0-1.9,0.9-3.2,3-3.2c0.9,0,1.7,0.2,2.4,0.8C97,76.4,96,77.4,96,77.4z"/>
<path class="st0" d="M70.2,57c-0.6,1.6-1.1,2.6-2.7,2.6h-0.9v-1.3h0.7c0.6,0,0.9-0.2,1.2-1l-2.4-6.2h1.7l1.5,4.4l1.4-4.4h1.6
	C72.4,51.1,70.2,57,70.2,57z"/>
<path class="st0" d="M70.4,69.5v-4c0-0.6-0.3-0.9-1-0.9s-1.3,0.5-1.3,0.9v4h-1.6v-6.2h1.4L68,64c0.6-0.5,1.2-0.7,1.9-0.8
	c1.4,0,2.1,0.6,2.1,1.9v4.4H70.4L70.4,69.5L70.4,69.5z"/>
<path class="st0" d="M74.9,81.8v-4c0-0.6-0.3-0.9-1-0.9s-1.3,0.5-1.3,0.9v4h-1.6v-6.2h1.4l0.1,0.6c0.6-0.5,1.2-0.7,1.9-0.8
	c1.4,0,2.1,0.6,2.1,1.9v4.4L74.9,81.8C74.9,81.7,74.9,81.7,74.9,81.8L74.9,81.8z"/>
<path class="st0" d="M69.1,77.1c-0.9,0-1.2,0.6-1.2,1.4v3.3h-1.6v-4.9l-0.2-1.4h1.5l0.1,0.9c0.4-0.6,1-0.9,1.6-0.9h0.6v1.6H69.1z"/>
<path class="st0" d="M81.8,54.6h-4.1c0,0.7,0.4,1.4,1.2,1.4h0.4c0.6,0.1,1.3-0.3,1.6-0.9l1,0.9c-0.6,0.9-1.6,1.4-2.7,1.2
	c-2.1,0-3.1-1-3.1-3.2c0-2.2,0.9-3.1,3-3.2c2.2,0,2.9,1.3,2.9,2.8v0.3C81.9,54.2,81.9,54.5,81.8,54.6L81.8,54.6z M80.2,53.4
	c0-0.9-0.4-1.3-1.2-1.3s-1.3,0.5-1.3,1.4L80.2,53.4L80.2,53.4z"/>
<path class="st0" d="M79.2,66.9H75c0,0.7,0.4,1.4,1.2,1.4h0.4c0.6,0,1.3-0.3,1.6-0.9l1,0.9c-0.6,0.9-1.6,1.4-2.7,1.2
	c-2.1,0-3.1-1-3.1-3.2c0-2.2,0.9-3.1,3-3.2c2.2,0,2.9,1.3,2.9,2.8v0.4C79.2,66.4,79.2,66.7,79.2,66.9L79.2,66.9z M77.5,65.7
	c0-0.9-0.4-1.3-1.2-1.3S75,64.9,75,65.8L77.5,65.7L77.5,65.7z"/>
<path class="st0" d="M62.5,57.3c-1.9,0-3-0.9-3-3.2s1.1-3.2,3-3.2c1.9,0,3.1,0.9,3.1,3.2S64.5,57.3,62.5,57.3z M62.5,52.2
	c-1,0-1.4,0.6-1.4,2c0,1.4,0.4,2,1.4,2c1,0,1.4-0.6,1.4-2C63.8,52.8,63.5,52.2,62.5,52.2z"/>
<path class="st0" d="M89.9,81.9c-0.6,0-1.1-0.2-1.2-0.8c-0.6,0.6-1.3,0.9-2,0.8c-1.4,0-1.9-0.6-1.9-1.8c0-1.6,1.5-2,3.8-2.1v-0.2
	c0-0.7-0.4-1-1.1-1s-1.1,0.3-1.4,0.9l-1.1-0.7c0.6-0.9,1.6-1.5,2.7-1.4c1.7,0,2.6,0.6,2.6,2.2v2.5c0,0.4,0,0.5,0.4,0.5h0.3v1.1
	C90.5,81.8,90.2,81.8,89.9,81.9z M88.5,79c-1.3,0-2.1,0.2-2.1,1c0,0.8,0.2,0.7,0.8,0.7c0.6,0,1.2-0.4,1.4-1V79z"/>
<path class="st0" d="M80.7,81.9c-0.9,0-1.9-0.2-2.7-0.6v-8.4h1.6v3.2c0.5-0.4,1.1-0.6,1.9-0.6c1.5,0,2.4,0.9,2.4,3.1
	C83.9,80.8,82.5,81.9,80.7,81.9z M80.9,76.8c-0.6,0-1.1,0.3-1.3,0.9v2.8c0.4,0.2,0.7,0.3,1.1,0.3c1.2,0,1.4-0.9,1.4-2.1
	S81.8,76.8,80.9,76.8z"/>
<path class="st0" d="M54.5,57.3h-2.9v-8.6h2.9c2.6,0,4,1,4,4.2S57.3,57.3,54.5,57.3z M54.5,50h-1.2v5.8h1.2c1.5,0,2.1-0.9,2.1-3
	C56.6,50.8,56.1,50,54.5,50z"/>
<path class="st0" d="M64.6,69.6c-0.6,0-1.1-0.2-1.2-0.8c-0.5,0.5-1.2,0.9-2,0.8c-1.4,0-1.9-0.6-1.9-1.8c0-1.6,1.5-2,3.8-2.1v-0.2
	c0-0.7-0.4-1-1.1-1s-1.1,0.3-1.4,0.9l-1.1-0.7c0.6-0.9,1.6-1.5,2.7-1.4c1.7,0,2.6,0.6,2.6,2.2v2.5c0,0.4,0,0.5,0.4,0.5h0.3v1.1
	C65.1,69.5,64.8,69.5,64.6,69.6z M63.2,66.7c-1.3,0-2.1,0.2-2.1,1c0,0.8,0.2,0.7,0.8,0.7c0.6,0,1.2-0.4,1.4-1V66.7z"/>
<path class="st0" d="M54.5,69.5h-2.9v-8.6h2.9c2.6,0,4,1,4,4.2C58.5,68.3,57.3,69.5,54.5,69.5z M54.5,62.3h-1.2v5.8h1.2
	c1.5,0,2.1-0.9,2.1-3C56.6,63.1,56.1,62.3,54.5,62.3z"/>
<path class="st0" d="M64.9,79.1h-4.1c0,0.7,0.4,1.4,1.2,1.4h0.4c0.6,0,1.3-0.3,1.6-0.9l1,0.9c-0.6,0.9-1.6,1.4-2.7,1.2
	c-2.1,0-3.1-1-3.1-3.2s0.9-3.1,3-3.2c2.2,0,2.9,1.3,2.9,2.8v0.3C65,78.7,65,79,64.9,79.1z M63.3,77.9c0-0.9-0.4-1.3-1.2-1.3
	s-1.3,0.5-1.3,1.4L63.3,77.9L63.3,77.9z"/>
<path class="st0" d="M55,81.8h-3.4v-8.6h3.6c1.6,0,2.6,0.6,2.6,2.2c0,0.7-0.4,1.4-1,1.8c0.9,0.3,1.4,1.1,1.3,2
	C58.1,81,57,81.8,55,81.8z M54.8,74.5h-1.5v2.1h1.4c0.9,0,1.2-0.4,1.2-1.1C56,74.9,55.7,74.5,54.8,74.5z M54.8,77.9h-1.4v2.4h1.5
	c1.1,0,1.5-0.4,1.5-1.2S55.9,77.9,54.8,77.9z"/>
<path class="st0" d="M34.8,79.1v-1.2c0-0.2-0.1-0.3-0.3-0.3s-0.4,0.1-0.4,0.3v1.2h-0.5v-2.6h0.5v0.9c0.1-0.1,0.4-0.2,0.5-0.2
	c0.4,0,0.6,0.2,0.6,0.6v1.3C35.2,79.1,34.8,79.1,34.8,79.1z"/>
<path class="st0" d="M26.4,69.3h0.5v2.6h-0.5V69.3z"/>
<path class="st0" d="M33.2,77.9c-0.1-0.1-0.3-0.2-0.4-0.1c-0.3,0-0.4,0.2-0.4,0.6c0,0.4,0.1,0.6,0.4,0.6s0.3,0,0.4-0.1l0.2,0.4
	c-0.2,0.1-0.4,0.2-0.7,0.2c-0.6,0-0.9-0.4-0.9-0.9c-0.1-0.4,0.3-0.9,0.7-0.9h0.2c0.3,0,0.5,0,0.7,0.2C33.4,77.6,33.2,77.9,33.2,77.9
	z"/>
<path class="st0" d="M25.5,71.8c-0.1,0.5-0.4,0.8-0.8,0.8h-0.3v-0.4h0.2c0.1,0,0.2,0,0.4-0.3l-0.7-1.9h0.5l0.4,1.3l0.4-1.3h0.5
	C26.2,70.1,25.5,71.8,25.5,71.8z"/>
<path class="st0" d="M25.6,75.5v-1.1c0-0.2-0.1-0.3-0.3-0.3c-0.2,0-0.4,0.1-0.4,0.3v1.2h-0.5v-1.9h0.4v0.2c0.1-0.2,0.4-0.3,0.6-0.3
	c0.4,0,0.6,0.2,0.6,0.6v1.3C26.1,75.5,25.6,75.5,25.6,75.5z"/>
<path class="st0" d="M26.9,79.1V78c0-0.2-0.1-0.3-0.3-0.3c-0.2,0-0.4,0.1-0.4,0.3v1.2h-0.5v-1.9h0.4v0.2c0.2-0.1,0.4-0.2,0.6-0.2
	c0.4,0,0.6,0.2,0.6,0.6v1.3L26.9,79.1L26.9,79.1z"/>
<path class="st0" d="M25.2,77.8c-0.3,0-0.4,0.2-0.4,0.4v1h-0.4v-1.9c-0.1,0,0.4,0,0.4,0v0.3c0.1-0.1,0.4-0.3,0.6-0.3h0.1v0.4H25.2z"
	/>
<path class="st0" d="M28.9,71.1h-1.2c0,0.2,0.1,0.4,0.4,0.4h0.1c0.2,0,0.4,0,0.5-0.2l0.3,0.3c-0.2,0.3-0.5,0.4-0.8,0.4
	c-0.6,0-0.9-0.3-0.9-0.9c-0.1-0.4,0.2-0.9,0.7-0.9h0.2c0.4,0,0.8,0.2,0.9,0.6L28.9,71.1C28.9,71.1,28.9,71.1,28.9,71.1L28.9,71.1z
	 M28.4,70.8c0-0.3-0.1-0.4-0.4-0.4c-0.2,0-0.4,0.1-0.4,0.4L28.4,70.8L28.4,70.8z"/>
<path class="st0" d="M28.2,74.8h-1.2c0,0.2,0.1,0.4,0.4,0.4h0.1c0.2,0,0.4,0,0.5-0.2l0.3,0.3c-0.2,0.3-0.5,0.4-0.8,0.4
	c-0.6,0-0.9-0.4-0.9-1.1c-0.1-0.4,0.2-0.9,0.7-0.9h0.2c0.4,0,0.7,0.2,0.8,0.6C28.2,74.3,28.2,74.8,28.2,74.8z M27.7,74.4
	c0-0.3-0.1-0.4-0.4-0.4c-0.2,0-0.4,0.1-0.4,0.4L27.7,74.4L27.7,74.4z"/>
<path class="st0" d="M23.2,71.9c-0.6,0-0.9-0.3-0.9-0.9c0-0.6,0.4-0.9,0.9-0.9s0.9,0.3,0.9,0.9C24.2,71.6,23.8,71.9,23.2,71.9z
	 M23.2,70.4c-0.3,0-0.4,0.1-0.4,0.6c0,0.4,0.1,0.6,0.4,0.6s0.4-0.1,0.4-0.6C23.7,70.6,23.5,70.4,23.2,70.4z"/>
<path class="st0" d="M31.3,79.1c-0.1,0-0.3,0-0.4-0.2c-0.1,0.1-0.4,0.2-0.6,0.2c-0.4,0-0.6-0.2-0.6-0.5c0-0.5,0.4-0.6,1.1-0.6l0,0
	c0-0.3-0.1-0.4-0.4-0.4c-0.3,0-0.4,0-0.4,0.3l-0.4-0.2c0.1-0.3,0.5-0.4,0.8-0.4c0.5,0,0.8,0.2,0.8,0.6v0.7c0,0.1,0,0.1,0.1,0.1h0.1
	v0.3C31.5,79.1,31.4,79.2,31.3,79.1L31.3,79.1z M30.9,78.4c-0.4,0-0.6,0-0.6,0.3c0,0.3,0.1,0.2,0.2,0.2c0.2,0,0.4,0,0.4-0.3V78.4z"
	/>
<path class="st0" d="M28.7,79.2c-0.3,0-0.6,0-0.8-0.2v-2.4h0.5v0.9c0.1-0.1,0.4-0.2,0.6-0.2c0.4,0,0.7,0.3,0.7,0.9
	C29.5,79,29.2,79.2,28.7,79.2z M28.7,77.7c-0.1,0-0.3,0-0.4,0.2v0.8c0.1,0,0.2,0,0.4,0c0.4,0,0.4-0.2,0.4-0.6
	C29,77.7,28.9,77.6,28.7,77.7L28.7,77.7z"/>
<path class="st0" d="M20.9,71.9H20v-2.6h0.9c0.8,0,1.2,0.3,1.2,1.2C22.1,71.5,21.6,71.9,20.9,71.9z M20.9,69.8h-0.4v1.7h0.4
	c0.4,0,0.6-0.3,0.6-0.9S21.3,69.8,20.9,69.8z"/>
<path class="st0" d="M23.8,75.6c-0.1,0-0.3,0-0.4-0.2c-0.1,0.1-0.4,0.2-0.6,0.2c-0.4,0-0.6-0.2-0.6-0.5c0-0.5,0.4-0.6,1.1-0.6l0,0
	c0-0.3-0.1-0.4-0.4-0.4c-0.1,0-0.4,0-0.4,0.2l-0.4-0.2c0.1-0.3,0.5-0.4,0.8-0.4c0.5,0,0.8,0.2,0.8,0.6V75c0,0.1,0,0.1,0.1,0.1h0.1
	v0.3C24,75.6,23.9,75.6,23.8,75.6z M23.4,74.7c-0.4,0-0.6,0-0.6,0.3c0,0.3,0,0.2,0.2,0.2c0.2,0,0.4,0,0.4-0.3V74.7z"/>
<path class="st0" d="M20.9,75.5H20V73h0.9c0.8,0,1.2,0.3,1.2,1.2C22.1,75.1,21.6,75.5,20.9,75.5z M20.9,73.4h-0.4v1.7h0.4
	c0.4,0,0.6-0.3,0.6-0.9C21.5,73.7,21.3,73.4,20.9,73.4z"/>
<path class="st0" d="M23.9,78.4h-1.2c0,0.2,0.1,0.4,0.4,0.4h0.1c0.2,0,0.4,0,0.5-0.2l0.3,0.3c-0.2,0.3-0.5,0.4-0.8,0.4
	c-0.6,0-0.9-0.3-0.9-0.9c0-0.4,0.2-0.9,0.7-0.9h0.2c0.4,0,0.8,0.2,0.9,0.6L23.9,78.4C23.9,78.3,23.9,78.3,23.9,78.4L23.9,78.4z
	 M23.4,78c0-0.3-0.1-0.4-0.4-0.4c-0.2,0-0.4,0.1-0.4,0.4L23.4,78L23.4,78z"/>
<path class="st0" d="M21,79.1h-1v-2.6h1.1c0.5,0,0.8,0.2,0.8,0.6c0,0.4,0,0.4-0.3,0.5c0.3,0,0.4,0.4,0.4,0.6
	C21.9,78.9,21.6,79.1,21,79.1z M20.9,77h-0.4v0.6h0.4c0.3,0,0.4-0.1,0.4-0.4C21.3,77.1,21.3,77,20.9,77z M20.9,78h-0.4v0.7h0.4
	c0.4,0,0.4-0.1,0.4-0.4S21.4,78,20.9,78z"/>
</svg>
