<?xml version="1.0" encoding="UTF-8"?>
<svg id="Layer_1" data-name="Layer 1" xmlns="http://www.w3.org/2000/svg" version="1.1" viewBox="0 0 120.5 62.5">
  <defs>
    <style>
      .cls-1 {
        fill: #000;
        stroke-width: 0px;
      }
    </style>
  </defs>
  <path class="cls-1" d="M37.4,47c0,7.7-4.6,12.9-12.3,14.7-2.5.6-5,.8-7.7.8H1.4c-.8,0-1.5-.6-1.5-1.3v-28.2c-.1-.8.6-1.5,1.3-1.5h16.7c2.4,0,4.8.1,7,.6,7.7,1.8,12.5,7.1,12.6,14.9"/>
  <path class="cls-1" d="M1.5,28.2c-.8,0-1.5-.6-1.5-1.3V1.5C-.2.7.5,0,1.2,0h14.3c2.2,0,4.3.1,6.4.6,7.1,1.5,11.6,6.4,11.8,13.6,0,7.1-4.3,11.8-11.5,13.6-2.2.4-4.8.7-7,.6H1.5"/>
  <path class="cls-1" d="M118.4,61.5v-5.6c0-.8-.4-1.3-1.4-1.3s-2,.7-2,1.3v5.6h-2.2v-12.5h2.2v4.5c.7-.6,1.5-.8,2.5-.8,2,0,2.9.8,2.9,2.7v6.2c.1,0-2.1,0-2.1,0Z"/>
  <path class="cls-1" d="M78.3,14.7h2.2v12.5h-2.2v-12.5Z"/>
  <path class="cls-1" d="M110.4,55.4c-.6-.6-1.3-.8-2-.8-1.4,0-2,.8-2,2.7s.6,2.7,2.1,2.7,1.5-.3,2-.8l1.1,1.5c-.8.8-2.1,1.3-3.4,1.1-2.9,0-4.1-1.8-4.1-4.5s1.3-4.5,4.2-4.5,2.4.3,3.4,1.1c0,.1-1.4,1.5-1.4,1.5Z"/>
  <path class="cls-1" d="M74.2,26.8c-.8,2.2-1.5,3.6-3.8,3.6h-1.3v-1.8h1c.8,0,1.3-.3,1.7-1.4l-3.4-8.7h2.4l2.1,6.2,2-6.2h2.2c.1,0-2.9,8.3-2.9,8.3Z"/>
  <path class="cls-1" d="M74.5,44.3v-5.6c0-.8-.4-1.3-1.4-1.3s-1.8.7-1.8,1.3v5.6h-2.2v-8.7h2v1c1-.7,1.8-1,2.8-1.1,2,0,2.9.8,2.9,2.7v6.2h-2.2Z"/>
  <path class="cls-1" d="M80.8,61.5v-5.6c0-.8-.4-1.3-1.4-1.3s-1.8.7-1.8,1.3v5.6h-2.2v-8.7h2v.8c1-.7,1.8-1,2.8-1.1,2,0,2.9.8,2.9,2.7v6.2h-2.2s0,0,0,.1h0Z"/>
  <path class="cls-1" d="M72.7,54.9c-1.3,0-1.7.8-1.7,2v4.6h-2.2v-6.9l-.3-2h2.1v1.3c.7-.8,1.5-1.3,2.4-1.3h.8v2.2h-1.1Z"/>
  <path class="cls-1" d="M90.5,23.4h-5.7c0,1,.6,2,1.7,2h.6c.8.1,1.8-.4,2.2-1.3l1.4,1.3c-.8,1.3-2.2,2-3.8,1.7-2.9,0-4.3-1.4-4.3-4.5s1.3-4.3,4.2-4.5c3.1,0,4.1,1.8,4.1,3.9v.4c-.1.4-.1.8-.3,1h0ZM88.3,21.7c0-1.3-.6-1.8-1.7-1.8s-1.8.7-1.8,2h3.5Z"/>
  <path class="cls-1" d="M86.9,40.6h-5.9c0,1,.6,2,1.7,2h.6c.8,0,1.8-.4,2.2-1.3l1.4,1.3c-.8,1.3-2.2,2-3.8,1.7-2.9,0-4.3-1.4-4.3-4.5s1.3-4.3,4.2-4.5c3.1,0,4.1,1.8,4.1,3.9v.6c-.1.1-.1.6-.1.8h0ZM84.5,39c0-1.3-.6-1.8-1.7-1.8s-1.8.7-1.8,2h3.5Z"/>
  <path class="cls-1" d="M63.4,27.2c-2.7,0-4.2-1.3-4.2-4.5s1.5-4.5,4.2-4.5,4.3,1.3,4.3,4.5-1.5,4.5-4.3,4.5ZM63.4,20c-1.4,0-2,.8-2,2.8s.6,2.8,2,2.8,2-.8,2-2.8c-.1-2-.6-2.8-2-2.8Z"/>
  <path class="cls-1" d="M101.9,61.7c-.8,0-1.5-.3-1.7-1.1-.8.8-1.8,1.3-2.8,1.1-2,0-2.7-.8-2.7-2.5s2.1-2.8,5.3-2.9v-.3c0-1-.6-1.4-1.5-1.4s-1.5.4-2,1.3l-1.5-1c.8-1.3,2.2-2.1,3.8-2,2.4,0,3.6.8,3.6,3.1v3.5c0,.6,0,.7.6.7h.4v1.5c-.7-.1-1.1-.1-1.5,0ZM99.9,57.6c-1.8,0-2.9.3-2.9,1.4s.3,1,1.1,1,1.7-.6,2-1.4v-1h-.1Z"/>
  <path class="cls-1" d="M89,61.7c-1.3,0-2.7-.3-3.8-.8v-11.8h2.2v4.5c.7-.6,1.5-.8,2.7-.8,2.1,0,3.4,1.3,3.4,4.3s-2,4.6-4.5,4.6ZM89.2,54.5c-.8,0-1.5.4-1.8,1.3v3.9c.6.3,1,.4,1.5.4,1.7,0,2-1.3,2-2.9s-.4-2.7-1.7-2.7Z"/>
  <path class="cls-1" d="M52.2,27.2h-4.1v-12.1h4.1c3.6,0,5.6,1.4,5.6,5.9s-1.7,6.2-5.6,6.2ZM52.2,17h-1.7v8.1h1.7c2.1,0,2.9-1.3,2.9-4.2s-.7-3.9-2.9-3.9Z"/>
  <path class="cls-1" d="M66.4,44.4c-.8,0-1.5-.3-1.7-1.1-.7.7-1.7,1.3-2.8,1.1-2,0-2.7-.8-2.7-2.5s2.1-2.8,5.3-2.9v-.3c0-1-.6-1.4-1.5-1.4s-1.5.4-2,1.3l-1.5-1c.8-1.3,2.2-2.1,3.8-2,2.4,0,3.6.8,3.6,3.1v3.5c0,.6,0,.7.6.7h.4v1.5c-.8-.1-1.3-.1-1.5,0ZM64.4,40.4c-1.8,0-2.9.3-2.9,1.4s.3,1,1.1,1,1.7-.6,2-1.4v-1h-.1Z"/>
  <path class="cls-1" d="M52.2,44.3h-4.1v-12.1h4.1c3.6,0,5.6,1.4,5.6,5.9s-1.7,6.2-5.6,6.2ZM52.2,34.2h-1.7v8.1h1.7c2.1,0,2.9-1.3,2.9-4.2s-.7-3.9-2.9-3.9Z"/>
  <path class="cls-1" d="M66.8,57.7h-5.7c0,1,.6,2,1.7,2h.6c.8,0,1.8-.4,2.2-1.3l1.4,1.3c-.8,1.3-2.2,2-3.8,1.7-2.9,0-4.3-1.4-4.3-4.5s1.3-4.3,4.2-4.5c3.1,0,4.1,1.8,4.1,3.9v.4c-.1.4-.1.8-.3,1ZM64.6,56.1c0-1.3-.6-1.8-1.7-1.8s-1.8.7-1.8,2h3.5Z"/>
  <path class="cls-1" d="M52.9,61.5h-4.8v-12.1h5c2.2,0,3.6.8,3.6,3.1s-.6,2-1.4,2.5c1.3.4,2,1.5,1.8,2.8,0,2.5-1.5,3.6-4.3,3.6ZM52.7,51.3h-2.1v2.9h2c1.3,0,1.7-.6,1.7-1.5.1-.8-.3-1.4-1.5-1.4ZM52.7,56.1h-2v3.4h2.1c1.5,0,2.1-.6,2.1-1.7s-.7-1.7-2.2-1.7Z"/>
  <path class="cls-1" d="M24.6,57.7v-1.7c0-.3-.1-.4-.4-.4s-.6.1-.6.4v1.7h-.7v-3.6h.7v1.3c.1-.1.6-.3.7-.3.6,0,.8.3.8.8v1.8s-.6,0-.6,0Z"/>
  <path class="cls-1" d="M12.8,44h.7v3.6h-.7v-3.6Z"/>
  <path class="cls-1" d="M22.4,56.1c-.1-.1-.4-.3-.6-.1-.4,0-.6.3-.6.8s.1.8.6.8.4,0,.6-.1l.3.6c-.3.1-.6.3-1,.3-.8,0-1.3-.6-1.3-1.3-.1-.6.4-1.3,1-1.3h.3c.4,0,.7,0,1,.3,0-.4-.3,0-.3,0Z"/>
  <path class="cls-1" d="M11.6,47.5c-.1.7-.6,1.1-1.1,1.1h-.4v-.6h.3c.1,0,.3,0,.6-.4l-1-2.7h.7l.6,1.8.6-1.8h.7c.1.1-.8,2.5-.8,2.5Z"/>
  <path class="cls-1" d="M11.7,52.7v-1.5c0-.3-.1-.4-.4-.4s-.6.1-.6.4v1.7h-.7v-2.7h.6v.3c.1-.3.6-.4.8-.4.6,0,.8.3.8.8v1.8c.1,0-.6,0-.6,0Z"/>
  <path class="cls-1" d="M13.5,57.7v-1.5c0-.3-.1-.4-.4-.4s-.6.1-.6.4v1.7h-.7v-2.7h.6v.3c.3-.1.6-.3.8-.3.6,0,.8.3.8.8v1.8h-.6Z"/>
  <path class="cls-1" d="M11.2,55.9c-.4,0-.6.3-.6.6v1.4h-.6v-2.7c-.1,0,.6,0,.6,0v.4c.1-.1.6-.4.8-.4h.1v.6h-.4Z"/>
  <path class="cls-1" d="M16.3,46.5h-1.7c0,.3.1.6.6.6h.1c.3,0,.6,0,.7-.3l.4.4c-.3.4-.7.6-1.1.6-.8,0-1.3-.4-1.3-1.3-.1-.6.3-1.3,1-1.3h.3c.6,0,1.1.3,1.3.8l-.3.4h0ZM15.6,46.1c0-.4-.1-.6-.6-.6s-.6.1-.6.6h1.1Z"/>
  <path class="cls-1" d="M15.4,51.7h-1.7c0,.3.1.6.6.6h.1c.3,0,.6,0,.7-.3l.4.4c-.3.4-.7.6-1.1.6-.8,0-1.3-.6-1.3-1.5-.1-.6.3-1.3,1-1.3h.3c.6,0,1,.3,1.1.8-.1,0-.1.7-.1.7ZM14.7,51.2c0-.4-.1-.6-.6-.6s-.6.1-.6.6h1.1Z"/>
  <path class="cls-1" d="M8.4,47.7c-.8,0-1.3-.4-1.3-1.3s.6-1.3,1.3-1.3,1.3.4,1.3,1.3c.1.8-.4,1.3-1.3,1.3ZM8.4,45.6c-.4,0-.6.1-.6.8s.1.8.6.8.6-.1.6-.8c.1-.6-.1-.8-.6-.8Z"/>
  <path class="cls-1" d="M19.7,57.7c-.1,0-.4,0-.6-.3-.1.1-.6.3-.8.3-.6,0-.8-.3-.8-.7,0-.7.6-.8,1.5-.8h0c0-.4-.1-.6-.6-.6s-.6,0-.6.4l-.6-.3c.1-.4.7-.6,1.1-.6.7,0,1.1.3,1.1.8v1q0,.1.1.1h.1v.4c.1.1,0,.3-.1.1h0ZM19.2,56.8c-.6,0-.8,0-.8.4s.1.3.3.3c.3,0,.6,0,.6-.4v-.3Z"/>
  <path class="cls-1" d="M16.1,57.9c-.4,0-.8,0-1.1-.3v-3.4h.7v1.3c.1-.1.6-.3.8-.3.6,0,1,.4,1,1.3-.3,1.1-.7,1.4-1.4,1.4ZM16.1,55.8c-.1,0-.4,0-.6.3v1.1h.6c.6,0,.6-.3.6-.8-.1-.6-.3-.7-.6-.6h0Z"/>
  <path class="cls-1" d="M5.1,47.7h-1.3v-3.6h1.3c1.1,0,1.7.4,1.7,1.7s-.7,2-1.7,2ZM5.1,44.7h-.6v2.4h.6c.6,0,.8-.4.8-1.3s-.3-1.1-.8-1.1Z"/>
  <path class="cls-1" d="M9.2,52.8c-.1,0-.4,0-.6-.3-.1.1-.6.3-.8.3-.6,0-.8-.3-.8-.7,0-.7.6-.8,1.5-.8h0c0-.4-.1-.6-.6-.6s-.6,0-.6.3l-.6-.3c.1-.4.7-.6,1.1-.6.7,0,1.1.3,1.1.8v1q0,.1.1.1h.1v.4c.1.3,0,.3-.1.3ZM8.6,51.6c-.6,0-.8,0-.8.4s0,.3.3.3.6,0,.6-.4v-.3Z"/>
  <path class="cls-1" d="M5.1,52.7h-1.3v-3.5h1.3c1.1,0,1.7.4,1.7,1.7s-.7,1.8-1.7,1.8ZM5.1,49.8h-.6v2.4h.6c.6,0,.8-.4.8-1.3s-.3-1.1-.8-1.1Z"/>
  <path class="cls-1" d="M9.3,56.8h-1.7c0,.3.1.6.6.6h.1c.3,0,.6,0,.7-.3l.4.4c-.3.4-.7.6-1.1.6-.8,0-1.3-.4-1.3-1.3s.3-1.3,1-1.3h.3c.6,0,1.1.3,1.3.8l-.3.4q0-.1,0,0h0ZM8.6,56.2c0-.4-.1-.6-.6-.6s-.6.1-.6.6h1.1Z"/>
  <path class="cls-1" d="M5.3,57.7h-1.4v-3.6h1.5c.7,0,1.1.3,1.1.8s0,.6-.4.7c.4,0,.6.6.6.8-.1,1-.6,1.3-1.4,1.3ZM5.1,54.8h-.6v.8h.6c.4,0,.6-.1.6-.6s0-.3-.6-.3ZM5.1,56.2h-.6v1h.6c.6,0,.6-.1.6-.6s.1-.4-.6-.4Z"/>
</svg>