<?xml version="1.0" encoding="UTF-8"?>
<svg id="Layer_1" data-name="Layer 1" xmlns="http://www.w3.org/2000/svg" version="1.1" viewBox="0 0 120.5 62.6">
  <defs>
    <style>
      .cls-1 {
        fill: #fff;
        stroke-width: 0px;
      }
    </style>
  </defs>
  <path class="cls-1" d="M37.4,47c0,7.7-4.6,12.9-12.3,14.7-2.5.6-5.1.8-7.7.8H1.5c-.8,0-1.5-.5-1.5-1.2v-28.2c-.1-.8.5-1.5,1.2-1.5h16.6c2.4,0,4.7.2,7,.6,7.7,1.8,12.5,7.1,12.6,14.8"/>
  <path class="cls-1" d="M1.6,28.2c-.8,0-1.5-.5-1.6-1.2V1.6C-.1.8.5.1,1.3,0h14.2c2.2,0,4.4.2,6.5.6,7.2,1.6,11.6,6.4,11.7,13.5,0,7.1-4.4,11.8-11.5,13.5-2.3.4-4.7.7-7,.6H1.6"/>
  <path class="cls-1" d="M118.2,61.5v-5.6c0-.9-.4-1.3-1.4-1.3s-1.9.7-1.9,1.3v5.6h-2.3v-12.4h2.3v4.5c.7-.6,1.6-.9,2.5-.9,1.9,0,3,.9,3,2.6v6.2h-2.2Z"/>
  <path class="cls-1" d="M78.2,14.8h2.3v12.4h-2.3v-12.4Z"/>
  <path class="cls-1" d="M110.3,55.3c-.5-.6-1.2-.9-2-.8-1.4,0-2,.9-2,2.7s.6,2.7,2.1,2.7,1.5-.3,2-.8l1.1,1.6c-.9.8-2.1,1.2-3.3,1.1-3,0-4.1-1.8-4.1-4.5s1.3-4.5,4.2-4.5c1.2,0,2.4.3,3.3,1.1,0,0-1.3,1.4-1.3,1.4Z"/>
  <path class="cls-1" d="M74.2,26.8c-.8,2.3-1.5,3.7-3.8,3.7h-1.3v-1.8h1c.9,0,1.2-.3,1.7-1.4l-3.3-8.7h2.4l2.1,6.2,1.9-6.2h2.3s-3,8.2-3,8.2Z"/>
  <path class="cls-1" d="M74.5,44.3v-5.6c0-.9-.4-1.3-1.4-1.3s-1.8.7-1.8,1.3v5.6h-2.3v-8.6h1.9l.2.9c.8-.7,1.7-1,2.7-1.1,1.9,0,3,.9,3,2.6v6.2h-2.3,0Z"/>
  <path class="cls-1" d="M80.7,61.5v-5.6c0-.9-.4-1.3-1.4-1.3s-1.8.7-1.8,1.3v5.6h-2.3v-8.7h1.9l.2.9c.8-.7,1.7-1,2.7-1.1,1.9,0,3,.9,3,2.6v6.2h-2.3q0,0,0,0Z"/>
  <path class="cls-1" d="M72.7,55c-1.2,0-1.7.9-1.7,1.9v4.6h-2.3v-6.8l-.3-1.9h2.1l.2,1.2c.5-.8,1.4-1.3,2.3-1.2h.8v2.2h-1.1Z"/>
  <path class="cls-1" d="M90.4,23.5h-5.8c0,1,.6,1.9,1.7,2h.5c.9.1,1.8-.4,2.3-1.2l1.4,1.2c-.9,1.2-2.3,1.9-3.8,1.7-2.9,0-4.4-1.4-4.4-4.5s1.3-4.4,4.2-4.5c3.1,0,4,1.8,4,3.9v.4c0,.4,0,.8,0,1ZM88.2,21.8c0-1.2-.6-1.8-1.7-1.8s-1.8.7-1.8,1.9h3.5Z"/>
  <path class="cls-1" d="M86.7,40.7h-5.8c0,1,.6,1.9,1.7,2h.5c.9,0,1.8-.4,2.3-1.2l1.4,1.2c-.9,1.2-2.3,1.9-3.8,1.7-2.9,0-4.4-1.4-4.4-4.5s1.3-4.4,4.2-4.5c3.1,0,4,1.8,4,3.9v.5c0,.2,0,.6,0,.9ZM84.4,39c0-1.2-.6-1.8-1.7-1.8s-1.8.7-1.8,1.9h3.5Z"/>
  <path class="cls-1" d="M63.4,27.3c-2.7,0-4.2-1.2-4.2-4.5s1.6-4.5,4.2-4.5,4.3,1.2,4.3,4.5-1.5,4.5-4.3,4.5ZM63.4,20.1c-1.4,0-1.9.8-1.9,2.8s.5,2.8,1.9,2.8,1.9-.8,1.9-2.8-.5-2.8-1.9-2.8Z"/>
  <path class="cls-1" d="M101.7,61.6c-.8,0-1.5-.3-1.7-1.1-.8.8-1.8,1.2-2.8,1.1-2,0-2.7-.9-2.7-2.5,0-2.3,2.1-2.8,5.3-3v-.3c0-1-.5-1.4-1.6-1.4s-1.6.4-2,1.2l-1.6-1c.8-1.3,2.2-2.1,3.8-1.9,2.4,0,3.7.9,3.7,3.1v3.5c0,.5,0,.7.5.7h.4v1.5c-.5,0-.9,0-1.3.1ZM99.8,57.6c-1.8,0-3,.3-3,1.4s.3,1,1.1,1c.9,0,1.7-.5,1.9-1.4v-1Z"/>
  <path class="cls-1" d="M88.9,61.7c-1.3,0-2.6-.3-3.8-.9v-11.7h2.3v4.5c.7-.6,1.6-.9,2.6-.9,2.1,0,3.3,1.2,3.3,4.3s-1.9,4.7-4.4,4.7ZM89.2,54.5c-.8,0-1.5.4-1.8,1.2v3.9c.5.3,1,.4,1.6.4,1.7,0,1.9-1.2,1.9-2.9s-.5-2.6-1.7-2.6Z"/>
  <path class="cls-1" d="M52.2,27.2h-4v-12h4c3.6,0,5.6,1.4,5.6,5.9s-1.7,6.1-5.6,6.1ZM52.3,17.1h-1.7v8.1h1.7c2.1,0,2.9-1.2,2.9-4.2,0-2.8-.8-3.9-2.9-3.9Z"/>
  <path class="cls-1" d="M66.3,44.4c-.8,0-1.5-.3-1.7-1.1-.7.7-1.7,1.2-2.8,1.1-2,0-2.7-.9-2.7-2.5,0-2.3,2.1-2.8,5.3-3v-.3c0-1-.5-1.4-1.6-1.4s-1.6.4-2,1.2l-1.6-1c.8-1.3,2.2-2.1,3.8-1.9,2.4,0,3.7.9,3.7,3.1v3.5c0,.5,0,.7.5.7h.4v1.5c-.5,0-.9,0-1.3.1ZM64.4,40.4c-1.8,0-3,.3-3,1.4s.3,1,1.1,1c.9,0,1.7-.5,1.9-1.4v-1Z"/>
  <path class="cls-1" d="M52.2,44.3h-4v-12h4c3.6,0,5.6,1.4,5.6,5.9s-1.7,6.1-5.6,6.1ZM52.3,34.2h-1.7v8.1h1.7c2.1,0,2.9-1.2,2.9-4.2,0-2.8-.8-3.9-2.9-3.9Z"/>
  <path class="cls-1" d="M66.8,57.8h-5.8c0,1,.6,1.9,1.7,2h.5c.9,0,1.8-.4,2.3-1.2l1.4,1.2c-.9,1.2-2.3,1.9-3.8,1.7-2.9,0-4.4-1.4-4.4-4.5s1.3-4.4,4.2-4.5c3.1,0,4,1.8,4,3.9v.4c0,.4,0,.8-.1,1ZM64.5,56.1c0-1.2-.6-1.8-1.7-1.8s-1.8.7-1.8,1.9h3.5Z"/>
  <path class="cls-1" d="M53,61.5h-4.8v-12h5c2.2,0,3.6.9,3.6,3.1,0,1-.5,2-1.4,2.5,1.2.4,2,1.6,1.8,2.8,0,2.5-1.5,3.6-4.2,3.6ZM52.7,51.3h-2.1v3h2c1.3,0,1.7-.6,1.7-1.6,0-.9-.4-1.4-1.6-1.4ZM52.6,56.1h-2v3.4h2.1c1.5,0,2.1-.6,2.1-1.7s-.6-1.7-2.2-1.7Z"/>
  <path class="cls-1" d="M24.7,57.8v-1.7c0-.3-.1-.4-.4-.4s-.6.2-.6.4v1.7h-.7v-3.7h.7v1.3c.2-.2.5-.3.7-.3.6,0,.9.3.9.8v1.8s-.6,0-.6.1Z"/>
  <path class="cls-1" d="M12.9,44h.7v3.7h-.7v-3.7Z"/>
  <path class="cls-1" d="M22.4,56c-.1-.2-.4-.3-.6-.2-.4,0-.6.3-.6.8s.2.8.6.8.4,0,.6-.2l.3.5c-.3.2-.6.3-1,.3-.9,0-1.2-.5-1.2-1.3-.1-.6.4-1.2,1-1.3h.3c.4,0,.7,0,1,.3,0,0-.4.3-.4.3Z"/>
  <path class="cls-1" d="M11.7,47.5c-.2.7-.5,1.1-1.1,1.1h-.4v-.5h.3c.2,0,.3,0,.5-.4l-1-2.6h.7l.6,1.8.6-1.8h.7s-.9,2.4-.9,2.4Z"/>
  <path class="cls-1" d="M11.8,52.7v-1.6c0-.3-.1-.4-.4-.4s-.5.2-.5.4v1.7h-.7v-2.6h.6v.3c.2-.3.5-.4.8-.4.6,0,.9.3.9.8v1.8h-.7Z"/>
  <path class="cls-1" d="M13.6,57.8v-1.6c0-.3-.1-.4-.4-.4s-.5.2-.5.4v1.7h-.7v-2.6h.6v.3c.3-.2.6-.3.9-.3.6,0,.9.3.9.8v1.8h-.8Z"/>
  <path class="cls-1" d="M11.2,55.9c-.4,0-.5.3-.5.6v1.4h-.6v-2.6c-.1,0,.5,0,.5,0v.4c.2-.2.5-.4.8-.4h.2v.6h-.4Z"/>
  <path class="cls-1" d="M16.5,46.6h-1.7c0,.3.2.6.5.6h.1c.3,0,.5,0,.7-.3l.4.4c-.3.4-.7.6-1.1.5-.9,0-1.3-.4-1.3-1.3-.1-.6.3-1.2,1-1.3h.3c.6,0,1.1.3,1.2.9v.4c-.1,0-.1,0-.1,0ZM15.8,46.1c0-.4-.2-.5-.5-.5s-.5.2-.5.6h1Z"/>
  <path class="cls-1" d="M15.4,51.7h-1.7c0,.3.2.6.5.6h.1c.3,0,.5,0,.7-.3l.4.4c-.3.4-.7.6-1.1.5-.9,0-1.3-.5-1.3-1.5-.1-.6.3-1.2,1-1.3h.3c.5,0,1,.3,1.1.9,0,0,0,.7,0,.7ZM14.7,51.1c0-.4-.2-.5-.5-.5s-.5.2-.5.6h1Z"/>
  <path class="cls-1" d="M8.5,47.7c-.8,0-1.3-.4-1.3-1.3s.5-1.3,1.3-1.3,1.3.4,1.3,1.3-.5,1.3-1.3,1.3ZM8.5,45.6c-.4,0-.5.2-.5.8s.2.8.6.8.5-.2.5-.8-.2-.8-.6-.8Z"/>
  <path class="cls-1" d="M19.8,57.8c-.2,0-.4,0-.5-.3-.2.2-.5.3-.8.3-.6,0-.8-.3-.8-.7,0-.7.6-.8,1.6-.9h0c0-.4-.1-.5-.5-.5s-.5,0-.6.4l-.5-.3c.2-.4.7-.6,1.1-.6.7,0,1.1.3,1.1.9v1q0,.2.2.2h.1v.4c-.1,0-.2.2-.4,0ZM19.3,56.7c-.5,0-.9,0-.9.4s.1.3.3.3c.3,0,.5,0,.6-.4v-.3Z"/>
  <path class="cls-1" d="M16.1,57.9c-.4,0-.8,0-1.1-.3v-3.4h.7v1.3c.2-.2.5-.3.8-.3.6,0,1,.4,1,1.3-.2,1.1-.7,1.4-1.4,1.4ZM16.1,55.8c-.2,0-.4,0-.5.3v1.1c.1,0,.3,0,.5,0,.5,0,.6-.3.6-.9-.1-.5-.2-.6-.6-.6Z"/>
  <path class="cls-1" d="M5.2,47.7h-1.2v-3.6h1.2c1.1,0,1.7.4,1.7,1.7,0,1.3-.6,1.9-1.7,1.9ZM5.2,44.7h-.5v2.4h.5c.6,0,.9-.4.9-1.2s-.3-1.2-.9-1.2Z"/>
  <path class="cls-1" d="M9.3,52.8c-.2,0-.4,0-.5-.3-.2.2-.5.3-.8.3-.6,0-.8-.3-.8-.7,0-.7.6-.8,1.6-.9h0c0-.4-.1-.5-.5-.5-.2,0-.5,0-.6.3l-.5-.3c.2-.4.7-.6,1.1-.6.7,0,1.1.3,1.1.9v1q0,.2.2.2h.1v.4c-.1.2-.2.2-.4.2ZM8.8,51.6c-.5,0-.9,0-.9.4s0,.3.3.3c.3,0,.5,0,.6-.4v-.3Z"/>
  <path class="cls-1" d="M5.2,52.7h-1.2v-3.5h1.2c1.1,0,1.7.4,1.7,1.7,0,1.3-.6,1.8-1.7,1.8ZM5.2,49.8h-.5v2.4h.5c.6,0,.9-.4.9-1.2s-.3-1.2-.9-1.2Z"/>
  <path class="cls-1" d="M9.5,56.7h-1.7c0,.3.2.6.5.6h.1c.3,0,.5,0,.7-.3l.4.4c-.3.4-.7.6-1.1.5-.9,0-1.3-.4-1.3-1.3,0-.6.3-1.2,1-1.3h.3c.6,0,1.1.3,1.2.9v.4c-.1,0-.1,0,0,0ZM8.8,56.2c0-.4-.2-.5-.5-.5s-.5.2-.5.6h1Z"/>
  <path class="cls-1" d="M5.4,57.8h-1.4v-3.6h1.5c.7,0,1.1.3,1.1.9s0,.6-.4.7c.4,0,.6.5.5.8,0,.9-.5,1.2-1.3,1.2ZM5.3,54.8h-.6v.9h.6c.4,0,.5-.2.5-.5s0-.4-.5-.4ZM5.3,56.2h-.6v1h.6c.5,0,.6-.2.6-.5s0-.5-.6-.5Z"/>
</svg>