<?xml version="1.0" encoding="utf-8"?>
<!-- Generator: Adobe Illustrator 27.9.6, SVG Export Plug-In . SVG Version: 9.03 Build 54986)  -->
<svg version="1.1" id="Layer_1" xmlns="http://www.w3.org/2000/svg" xmlns:xlink="http://www.w3.org/1999/xlink" x="0px" y="0px"
	 viewBox="0 0 120.5 62.3" style="enable-background:new 0 0 120.5 62.3;" xml:space="preserve">
<style type="text/css">
	.st0{fill:#FFFFFF;}
</style>
<path class="st0" d="M37.5,46.8c0,7.7-4.6,12.9-12.3,14.7c-2.5,0.6-5,0.8-7.7,0.8H1.6C0.7,62.3,0,61.7,0,61V33
	c-0.1-0.8,0.6-1.5,1.3-1.5h16.6c2.4,0,4.7,0.1,7,0.6C32.6,33.8,37.3,39.1,37.5,46.8"/>
<path class="st0" d="M1.7,28.1c-0.8,0-1.5-0.6-1.5-1.3V1.5C0,0.7,0.7,0,1.4,0h14.2c2.2,0,4.3,0.1,6.4,0.6C29.2,2.1,33.7,7,33.8,14.1
	c0,7.1-4.3,11.7-11.5,13.5c-2.2,0.4-4.7,0.7-7,0.6H1.7"/>
<path class="st0" d="M118.2,61.3v-5.6c0-0.8-0.4-1.3-1.4-1.3c-1,0-2,0.7-2,1.3v5.6h-2.2V48.9h2.2v4.5c0.7-0.6,1.5-0.8,2.5-0.8
	c2,0,2.9,0.8,2.9,2.7v6.1C120.4,61.3,118.2,61.3,118.2,61.3z"/>
<path class="st0" d="M78.2,14.7h2.2v12.4h-2.2C78.2,27.1,78.2,14.7,78.2,14.7z"/>
<path class="st0" d="M110.2,55.2c-0.6-0.6-1.3-0.8-2-0.8c-1.4,0-2,0.8-2,2.7c0,1.8,0.6,2.7,2.1,2.7s1.5-0.3,2-0.8l1.1,1.5
	c-0.8,0.8-2.1,1.3-3.4,1.1c-2.9,0-4.1-1.8-4.1-4.5c0-2.7,1.3-4.5,4.2-4.5c1.3,0,2.4,0.3,3.4,1.1C111.6,53.8,110.2,55.2,110.2,55.2z"
	/>
<path class="st0" d="M74.2,26.7c-0.8,2.2-1.5,3.6-3.8,3.6h-1.3v-1.8h1c0.8,0,1.3-0.3,1.7-1.4l-3.4-8.7h2.4l2.1,6.1l2-6.1h2.2
	C77.3,18.4,74.2,26.7,74.2,26.7z"/>
<path class="st0" d="M74.5,44.1v-5.6c0-0.8-0.4-1.3-1.4-1.3c-1,0-1.8,0.7-1.8,1.3v5.6H69v-8.7h2l0.1,1c0.8-0.7,1.7-1,2.7-1.1
	c2,0,2.9,0.8,2.9,2.7v6.1H74.5L74.5,44.1L74.5,44.1z"/>
<path class="st0" d="M80.8,61.3v-5.6c0-0.8-0.4-1.3-1.4-1.3c-1,0-1.8,0.7-1.8,1.3v5.6h-2.2v-8.7h2l0.1,0.8c0.8-0.7,1.7-1,2.7-1.1
	c2,0,2.9,0.8,2.9,2.7v6.1L80.8,61.3C80.8,61.2,80.8,61.2,80.8,61.3L80.8,61.3z"/>
<path class="st0" d="M72.7,54.8c-1.3,0-1.7,0.8-1.7,2v4.6h-2.2v-6.8l-0.3-2h2.1l0.1,1.3c0.6-0.8,1.4-1.3,2.2-1.3h0.8v2.2H72.7z"/>
<path class="st0" d="M90.4,23.3h-5.7c0,1,0.6,2,1.7,2h0.6c0.8,0.1,1.8-0.4,2.2-1.3l1.4,1.3c-0.8,1.3-2.2,2-3.8,1.7
	c-2.9,0-4.3-1.4-4.3-4.5s1.3-4.3,4.2-4.5c3.1,0,4.1,1.8,4.1,3.9v0.4C90.5,22.8,90.5,23.2,90.4,23.3L90.4,23.3z M88.2,21.7
	c0-1.3-0.6-1.8-1.7-1.8s-1.8,0.7-1.8,2L88.2,21.7L88.2,21.7z"/>
<path class="st0" d="M86.8,40.5h-5.9c0,1,0.6,2,1.7,2h0.6c0.8,0,1.8-0.4,2.2-1.3l1.4,1.3c-0.8,1.3-2.2,2-3.8,1.7
	c-2.9,0-4.3-1.4-4.3-4.5s1.3-4.3,4.2-4.5c3.1,0,4.1,1.8,4.1,3.9v0.6C86.8,39.8,86.8,40.2,86.8,40.5L86.8,40.5z M84.4,38.8
	c0-1.3-0.6-1.8-1.7-1.8s-1.8,0.7-1.8,2L84.4,38.8L84.4,38.8z"/>
<path class="st0" d="M63.4,27.1c-2.7,0-4.2-1.3-4.2-4.5s1.5-4.5,4.2-4.5s4.3,1.3,4.3,4.5S66.2,27.1,63.4,27.1z M63.4,20
	c-1.4,0-2,0.8-2,2.8s0.6,2.8,2,2.8c1.4,0,2-0.8,2-2.8C65.3,20.8,64.8,20,63.4,20z"/>
<path class="st0" d="M101.7,61.5c-0.8,0-1.5-0.3-1.7-1.1c-0.8,0.8-1.8,1.3-2.8,1.1c-2,0-2.7-0.8-2.7-2.5c0-2.2,2.1-2.8,5.3-2.9v-0.3
	c0-1-0.6-1.4-1.5-1.4c-1,0-1.5,0.4-2,1.3l-1.5-1c0.8-1.3,2.2-2.1,3.8-2c2.4,0,3.6,0.8,3.6,3.1v3.5c0,0.6,0,0.7,0.6,0.7h0.4v1.5
	C102.5,61.3,102.1,61.3,101.7,61.5z M99.8,57.4c-1.8,0-2.9,0.3-2.9,1.4c0,1.1,0.3,1,1.1,1s1.7-0.6,2-1.4v-1H99.8z"/>
<path class="st0" d="M88.9,61.5c-1.3,0-2.7-0.3-3.8-0.8V48.9h2.2v4.5c0.7-0.6,1.5-0.8,2.7-0.8c2.1,0,3.4,1.3,3.4,4.3
	C93.3,59.9,91.4,61.5,88.9,61.5z M89.1,54.3c-0.8,0-1.5,0.4-1.8,1.3v3.9c0.6,0.3,1,0.4,1.5,0.4c1.7,0,2-1.3,2-2.9
	C90.8,55.3,90.4,54.3,89.1,54.3z"/>
<path class="st0" d="M52.3,27.1h-4.1v-12h4.1c3.6,0,5.6,1.4,5.6,5.9S56.2,27.1,52.3,27.1z M52.3,16.9h-1.7V25h1.7
	c2.1,0,2.9-1.3,2.9-4.2C55.2,18,54.5,16.9,52.3,16.9z"/>
<path class="st0" d="M66.4,44.3c-0.8,0-1.5-0.3-1.7-1.1c-0.7,0.7-1.7,1.3-2.8,1.1c-2,0-2.7-0.8-2.7-2.5c0-2.2,2.1-2.8,5.3-2.9v-0.3
	c0-1-0.6-1.4-1.5-1.4s-1.5,0.4-2,1.3l-1.5-1c0.8-1.3,2.2-2.1,3.8-2c2.4,0,3.6,0.8,3.6,3.1V42c0,0.6,0,0.7,0.6,0.7h0.4v1.5
	C67.1,44.1,66.6,44.1,66.4,44.3z M64.4,40.2c-1.8,0-2.9,0.3-2.9,1.4s0.3,1,1.1,1s1.7-0.6,2-1.4v-1H64.4z"/>
<path class="st0" d="M52.3,44.1h-4.1v-12h4.1c3.6,0,5.6,1.4,5.6,5.9C57.8,42.5,56.2,44.1,52.3,44.1z M52.3,34.1h-1.7v8.1h1.7
	c2.1,0,2.9-1.3,2.9-4.2C55.2,35.2,54.5,34.1,52.3,34.1z"/>
<path class="st0" d="M66.8,57.5h-5.7c0,1,0.6,2,1.7,2h0.6c0.8,0,1.8-0.4,2.2-1.3l1.4,1.3c-0.8,1.3-2.2,2-3.8,1.7
	c-2.9,0-4.3-1.4-4.3-4.5c0-3.1,1.3-4.3,4.2-4.5c3.1,0,4.1,1.8,4.1,3.9v0.4C66.9,57,66.9,57.4,66.8,57.5z M64.6,55.9
	c0-1.3-0.6-1.8-1.7-1.8s-1.8,0.7-1.8,2L64.6,55.9L64.6,55.9z"/>
<path class="st0" d="M53,61.3h-4.7v-12h5c2.2,0,3.6,0.8,3.6,3.1c0,1-0.6,2-1.4,2.5c1.3,0.4,2,1.5,1.8,2.8
	C57.3,60.2,55.8,61.3,53,61.3z M52.7,51.1h-2.1v2.9h2c1.3,0,1.7-0.6,1.7-1.5C54.4,51.7,53.9,51.1,52.7,51.1z M52.7,55.9h-2v3.4h2.1
	c1.5,0,2.1-0.6,2.1-1.7C54.9,56.4,54.2,55.9,52.7,55.9z"/>
<path class="st0" d="M24.7,57.5v-1.7c0-0.3-0.1-0.4-0.4-0.4s-0.6,0.1-0.6,0.4v1.7h-0.7v-3.6h0.7v1.3c0.1-0.1,0.6-0.3,0.7-0.3
	c0.6,0,0.8,0.3,0.8,0.8v1.8C25.3,57.5,24.7,57.5,24.7,57.5z"/>
<path class="st0" d="M13,43.9h0.7v3.6H13V43.9z"/>
<path class="st0" d="M22.5,55.9c-0.1-0.1-0.4-0.3-0.6-0.1c-0.4,0-0.6,0.3-0.6,0.8s0.1,0.8,0.6,0.8s0.4,0,0.6-0.1l0.3,0.6
	c-0.3,0.1-0.6,0.3-1,0.3c-0.8,0-1.3-0.6-1.3-1.3c-0.1-0.6,0.4-1.3,1-1.3h0.3c0.4,0,0.7,0,1,0.3C22.8,55.5,22.5,55.9,22.5,55.9z"/>
<path class="st0" d="M11.8,47.4c-0.1,0.7-0.6,1.1-1.1,1.1h-0.4v-0.6h0.3c0.1,0,0.3,0,0.6-0.4l-1-2.7h0.7l0.6,1.8l0.6-1.8h0.7
	C12.7,45,11.8,47.4,11.8,47.4z"/>
<path class="st0" d="M11.9,52.5V51c0-0.3-0.1-0.4-0.4-0.4c-0.3,0-0.6,0.1-0.6,0.4v1.7h-0.7V50h0.6v0.3c0.1-0.3,0.6-0.4,0.8-0.4
	c0.6,0,0.8,0.3,0.8,0.8v1.8C12.6,52.5,11.9,52.5,11.9,52.5z"/>
<path class="st0" d="M13.7,57.5V56c0-0.3-0.1-0.4-0.4-0.4c-0.3,0-0.6,0.1-0.6,0.4v1.7H12V55h0.6v0.3c0.3-0.1,0.6-0.3,0.8-0.3
	c0.6,0,0.8,0.3,0.8,0.8v1.8L13.7,57.5L13.7,57.5z"/>
<path class="st0" d="M11.3,55.7c-0.4,0-0.6,0.3-0.6,0.6v1.4h-0.6V55c-0.1,0,0.6,0,0.6,0v0.4c0.1-0.1,0.6-0.4,0.8-0.4h0.1v0.6h-0.4
	V55.7z"/>
<path class="st0" d="M16.5,46.4h-1.7c0,0.3,0.1,0.6,0.6,0.6h0.1c0.3,0,0.6,0,0.7-0.3l0.4,0.4c-0.3,0.4-0.7,0.6-1.1,0.6
	c-0.8,0-1.3-0.4-1.3-1.3c-0.1-0.6,0.3-1.3,1-1.3h0.3c0.6,0,1.1,0.3,1.3,0.8L16.5,46.4L16.5,46.4L16.5,46.4z M15.8,46
	c0-0.4-0.1-0.6-0.6-0.6c-0.3,0-0.6,0.1-0.6,0.6H15.8L15.8,46z"/>
<path class="st0" d="M15.5,51.5h-1.7c0,0.3,0.1,0.6,0.6,0.6h0.1c0.3,0,0.6,0,0.7-0.3l0.4,0.4c-0.3,0.4-0.7,0.6-1.1,0.6
	c-0.8,0-1.3-0.6-1.3-1.5c-0.1-0.6,0.3-1.3,1-1.3h0.3c0.6,0,1,0.3,1.1,0.8C15.5,50.8,15.5,51.5,15.5,51.5z M14.8,51
	c0-0.4-0.1-0.6-0.6-0.6c-0.3,0-0.6,0.1-0.6,0.6H14.8L14.8,51z"/>
<path class="st0" d="M8.5,47.5c-0.8,0-1.3-0.4-1.3-1.3S7.8,45,8.5,45s1.3,0.4,1.3,1.3C9.9,47.1,9.4,47.5,8.5,47.5z M8.5,45.4
	c-0.4,0-0.6,0.1-0.6,0.8c0,0.6,0.1,0.8,0.6,0.8s0.6-0.1,0.6-0.8C9.2,45.7,9,45.4,8.5,45.4z"/>
<path class="st0" d="M19.9,57.5c-0.1,0-0.4,0-0.6-0.3c-0.1,0.1-0.6,0.3-0.8,0.3c-0.6,0-0.8-0.3-0.8-0.7c0-0.7,0.6-0.8,1.5-0.8l0,0
	c0-0.4-0.1-0.6-0.6-0.6s-0.6,0-0.6,0.4l-0.6-0.3c0.1-0.4,0.7-0.6,1.1-0.6c0.7,0,1.1,0.3,1.1,0.8v1c0,0.1,0,0.1,0.1,0.1H20v0.4
	C20.1,57.5,20,57.7,19.9,57.5L19.9,57.5z M19.3,56.6c-0.6,0-0.8,0-0.8,0.4c0,0.4,0.1,0.3,0.3,0.3c0.3,0,0.6,0,0.6-0.4V56.6z"/>
<path class="st0" d="M16.2,57.7c-0.4,0-0.8,0-1.1-0.3v-3.4h0.7v1.3c0.1-0.1,0.6-0.3,0.8-0.3c0.6,0,1,0.4,1,1.3
	C17.3,57.4,16.9,57.7,16.2,57.7z M16.2,55.6c-0.1,0-0.4,0-0.6,0.3V57c0.1,0,0.3,0,0.6,0c0.6,0,0.6-0.3,0.6-0.8
	C16.6,55.6,16.5,55.5,16.2,55.6L16.2,55.6z"/>
<path class="st0" d="M5.3,47.5H4.1v-3.6h1.3c1.1,0,1.7,0.4,1.7,1.7C7,46.9,6.3,47.5,5.3,47.5z M5.3,44.6H4.8v2.4h0.6
	c0.6,0,0.8-0.4,0.8-1.3C6.2,44.8,5.9,44.6,5.3,44.6z"/>
<path class="st0" d="M9.4,52.7c-0.1,0-0.4,0-0.6-0.3c-0.1,0.1-0.6,0.3-0.8,0.3c-0.6,0-0.8-0.3-0.8-0.7c0-0.7,0.6-0.8,1.5-0.8l0,0
	c0-0.4-0.1-0.6-0.6-0.6c-0.1,0-0.6,0-0.6,0.3L7,50.6C7.1,50.1,7.7,50,8.1,50c0.7,0,1.1,0.3,1.1,0.8v1c0,0.1,0,0.1,0.1,0.1h0.1v0.4
	C9.7,52.7,9.5,52.7,9.4,52.7z M8.8,51.4c-0.6,0-0.8,0-0.8,0.4c0,0.4,0,0.3,0.3,0.3c0.3,0,0.6,0,0.6-0.4V51.4z"/>
<path class="st0" d="M5.3,52.5H4.1V49h1.3C6.4,49,7,49.4,7,50.7C7,52,6.3,52.5,5.3,52.5z M5.3,49.6H4.8V52h0.6
	c0.6,0,0.8-0.4,0.8-1.3C6.2,50,5.9,49.6,5.3,49.6z"/>
<path class="st0" d="M9.5,56.6H7.8c0,0.3,0.1,0.6,0.6,0.6h0.1c0.3,0,0.6,0,0.7-0.3l0.4,0.4c-0.3,0.4-0.7,0.6-1.1,0.6
	c-0.8,0-1.3-0.4-1.3-1.3c0-0.6,0.3-1.3,1-1.3h0.3c0.6,0,1.1,0.3,1.3,0.8L9.5,56.6C9.5,56.4,9.5,56.4,9.5,56.6L9.5,56.6z M8.8,56
	c0-0.4-0.1-0.6-0.6-0.6c-0.3,0-0.6,0.1-0.6,0.6H8.8L8.8,56z"/>
<path class="st0" d="M5.5,57.5H4.1v-3.6h1.5c0.7,0,1.1,0.3,1.1,0.8s0,0.6-0.4,0.7c0.4,0,0.6,0.6,0.6,0.8C6.7,57.3,6.3,57.5,5.5,57.5
	z M5.3,54.6H4.8v0.8h0.6c0.4,0,0.6-0.1,0.6-0.6C5.9,54.8,5.9,54.6,5.3,54.6z M5.3,56H4.8v1h0.6c0.6,0,0.6-0.1,0.6-0.6
	C5.9,56,6,56,5.3,56z"/>
</svg>
