<svg width="108" height="108" viewBox="0 0 108 108" fill="none" xmlns="http://www.w3.org/2000/svg">
<g clip-path="url(#clip0_1916_39)">
<mask id="mask0_1916_39" style="mask-type:luminance" maskUnits="userSpaceOnUse" x="0" y="0" width="108" height="108">
<path d="M108 0H0V108H108V0Z" fill="white"/>
</mask>
<g mask="url(#mask0_1916_39)">
<path d="M58.9372 46.4371L56.9733 51.0265L61.5627 49.0627C66.1924 47.0817 73.1344 45.7727 81 45.7727C88.2775 45.7727 94.7765 46.8935 99.3834 48.6386C101.694 49.5138 103.425 50.5073 104.544 51.509C105.664 52.5116 106 53.3573 106 54C106 54.6427 105.664 55.4884 104.544 56.491C103.425 57.4926 101.694 58.4862 99.3834 59.3614C94.7765 61.1063 88.2775 62.2271 81 62.2271C73.1344 62.2271 66.1923 60.9182 61.5627 58.9372L56.9734 56.9734L58.9372 61.5627C60.9182 66.1923 62.2271 73.1344 62.2271 81C62.2271 88.2775 61.1063 94.7765 59.3614 99.3834C58.4862 101.694 57.4926 103.425 56.491 104.544C55.4884 105.664 54.6427 106 54 106C53.3573 106 52.5116 105.664 51.509 104.544C50.5073 103.425 49.5138 101.694 48.6386 99.3834C46.8935 94.7765 45.7727 88.2775 45.7727 81C45.7727 73.1344 47.0817 66.1924 49.0627 61.5627L51.0265 56.9733L46.4371 58.9372C41.8078 60.9182 34.8659 62.2271 27 62.2271C19.7224 62.2271 13.2234 61.1063 8.61656 59.3614C6.30603 58.4862 4.5745 57.4926 3.45605 56.491C2.33649 55.4884 2 54.6427 2 54C2 53.3573 2.33649 52.5116 3.45606 51.509C4.57451 50.5073 6.30605 49.5138 8.61658 48.6386C13.2234 46.8935 19.7225 45.7727 27 45.7727C34.8659 45.7727 41.8077 47.0817 46.4371 49.0627L51.0266 51.0266L49.0627 46.4371C47.0817 41.8077 45.7727 34.8659 45.7727 27C45.7727 19.7225 46.8935 13.2234 48.6386 8.61658C49.5138 6.30605 50.5073 4.57451 51.509 3.45606C52.5116 2.33649 53.3573 2 54 2C54.6427 2 55.4884 2.33649 56.491 3.45605C57.4926 4.5745 58.4862 6.30603 59.3614 8.61656C61.1063 13.2234 62.2271 19.7224 62.2271 27C62.2271 34.8659 60.9182 41.8078 58.9372 46.4371Z" fill="#75F7AD" stroke="#0A0118" stroke-width="4"/>
</g>
</g>
<defs>
<clipPath id="clip0_1916_39">
<rect width="108" height="108" fill="white"/>
</clipPath>
</defs>
</svg>
