<?xml version="1.0" encoding="UTF-8"?>
<svg id="Layer_1" data-name="Layer 1" xmlns="http://www.w3.org/2000/svg" version="1.1" viewBox="0 0 1240 1240">
  <defs>
    <style>
      .cls-1 {
        fill: #e2d921;
      }

      .cls-1, .cls-2, .cls-3, .cls-4, .cls-5, .cls-6, .cls-7, .cls-8, .cls-9, .cls-10, .cls-11, .cls-12, .cls-13, .cls-14, .cls-15, .cls-16 {
        stroke-width: 0px;
      }

      .cls-2 {
        fill: #e0b9a9;
      }

      .cls-3 {
        fill: #47606f;
      }

      .cls-4 {
        fill: #48b987;
      }

      .cls-5 {
        fill: #e4e4e3;
      }

      .cls-6 {
        fill: #2092c9;
      }

      .cls-7 {
        fill: #151616;
      }

      .cls-8 {
        fill: #b9dfe1;
      }

      .cls-9 {
        fill: #99a8d3;
      }

      .cls-10 {
        fill: #2a2b2b;
      }

      .cls-11 {
        fill: #fdfefe;
      }

      .cls-17 {
        display: none;
      }

      .cls-12 {
        fill: #e1dad5;
      }

      .cls-13 {
        fill: #da492b;
      }

      .cls-14 {
        fill: #cbdfc8;
      }

      .cls-15 {
        fill: #696938;
      }

      .cls-16 {
        fill: #d9a637;
      }
    </style>
  </defs>
  <g id="Layer_1-2" data-name="Layer 1-2" class="cls-17">
    <path class="cls-7" d="M77.5,739.3c0-19.9,0-39.8,0-59.7-.1-10.1-.2-20.1-.3-30.2.2-95.1.3-190.1.5-285.2,1-1.2,1.2-2.5.3-3.9,2.8-17.9,9.1-34.1,23.1-46.4,3.3,1.6,2.8,4.7,2.7,7.5-2.5,5.6-4.9,11.1-7.4,16.7-4.6,4-5.6,9.1-4.5,14.8l-.4,1.2c-.9,4.8-2.7,9.5-2.7,14.3,0,191.4.1,382.7,0,574.1,0,22.5,7.2,41.6,24.4,56.5,0,2.4-.2,4.8-.3,7.2-7.8,4.5-3.3,7.4,1.4,10.2,42.1,24.3,83.8,49.4,126.6,72.5,10,5.4,12.3,10.6,13.1,20.7,1.2,15.7-5.5,32.3,4.5,47.1-.5,2.5-1,5-1.4,7.6-9,4.3-15.3-6.7-24-4.3-8.2-9.7-19.8-14-30.5-19.8-29.8-17.7-59.4-35.8-89.7-52.9-10.6-6-15.6-12.8-14.6-25.2,1.3-17.6,0-35.5,2.2-53,.9-7.3-2.4-10.4-5.8-14.5-9.3-11.3-14.8-24.1-16.8-38.4-.2-72.3-.4-144.5-.6-216.8h0Z"/>
    <path class="cls-3" d="M257.2,1164.2c.5-2.5,1-5,1.4-7.6,7.2,0,14.4-.2,21.5-.2,11.3.5,22.6,1.6,33.9,1.3,196.8-5.6,393.6-11.3,590.4-17.3,88.5-2.7,177-3.7,265.3-9.8,20.4.4,30-8.9,25.4-29.6-3.1-14.1,8.4-31-8.4-42.3-39.2-28.9-81.7-52.8-125.3-73.6-20.2-9.6-46.3-11.8-70.1-3.2-16.6-3.6-33.5-2.6-50.3-3.3-46.5-2-92.3,8.6-138.7,8h-80.9c9.1-3.8,18.4-2.5,27.1-4.2,10.8-2.1,10.8-6.5,0-9.8-3.1-8.7-16.5-18.8,3.2-24.5,10.1,1,18.8-2,26.1-9-.7,19.4,4.7,31.2,28,31.4,20.3.2,40.6,1.9,61,1.4,45.3,3.3,90.6,0,135.9,0,24.7,0,37.3-9.9,42.4-34.2,1.6-7.5,1.9-15.5,1.9-23.2,0-187.7,0-375.3.1-563,0-14.2-1.2-28.2-6.1-41.7,1.2-1.1,2.3-2.2,3.5-3.3,6.4,10.1,10.1,20.9,9.6,33-4.5,5.6-2.6,12.3-2.6,18.5-.1,183.1-.1,366.3,0,549.4,0,6.2-1.8,12.8,2.7,18.5,0,16.7-7.6,30.8-16.1,44.8,51.8,12.8,91,47.9,136.9,70,22.9,11.1,31.5,25.3,29.7,50.9-3,42.5,8.7,40.8-43.3,48.7-98.9,2.9-197.9,5-296.8,9.3-18.9.8-37.8,2.2-56.7,2.6-74.1,1.8-148.2,4.2-222.4,6.4-15.4.4-30.8.9-46.2,1.3-46.1,1-92.2,1.9-138.4,2.9-47.9.4-95.8.9-143.7,1.3h0Z"/>
    <path class="cls-3" d="M722.2,208c17.6,11.2,20.1,31.6,28.3,48.3,6.3,13,12.9,18.8,28.4,18.1,53.8-2.3,107.6-2.8,161.5-4,5.7-.1,11.4.4,16-3.8,4.4.2,8.8.3,13.2.5,20.7,1.4,41.2,3.2,57.4,18.5-1.1,1.1-2.1,2.2-3.2,3.3-12.5-6.8-25.1-13.6-39.9-13.2-68.8,1.8-137.6,3.8-206.4,5.5-15,.4-12.9,6.6-6,15.2,1.7,3.9,3.8,7.7,5,11.7,5.7,20.2,17.2,28.7,39.7,26.1,54.1-6.2,108.6-7.4,163-8.4,23.6-.5,30,5.9,30,27.9,0,173,0,346,.2,518.9,0,8.6-.6,16.8-5.2,24.3-7.5,11.6-19.2,12.2-31.4,12.6-57,1.7-114,3.7-171,5.8-8.2.3-17.1-1.6-23.9,5.3-11.7-6.4-15.6-15.9-11.3-28.6,7,11.9,17.5,13.7,30.6,13.2,58.9-2.2,117.8-4,176.7-4.7,19.3-.2,26.2-7.2,25.9-26.5-.9-57.5-.3-115-.3-172.5,0-113.6-.2-227.2.2-340.7,0-15.7-2-26-21.6-25.2-56.7,2.4-113.5,3.6-170.3,5.4-6.9.2-15.3-.6-12.9,10.9-7.5-.8-10.3-6.6-13-12.5-19.9-43.6-39.7-87.2-59.6-130.8l-.2-.6h0Z"/>
    <path class="cls-11" d="M496.6,281.6c-16.9-1.1-23.6-8.9-21.8-26.8,2-20.2,1-40.8.3-61.2-.5-13.1,4.7-18.2,17.3-16.7,19.9,2.3,40.5-5,59.8,4.6-6.8,7.6-1.3,17.2-4.1,25.5-3.9,1.7-7.6,3.6-8.4,8.4-3.9,6.5-7.9,13-11.7,19.6-9.2,16-12.5,35.3-26.9,48.5-1.5-.6-3-1.1-4.5-1.7h0Z"/>
    <path class="cls-3" d="M716.8,183.4c.6,3.6,1.2,7.3,1.8,10.9-12.9,5.7-26.2,6-39.8,3.6,13.7-2.9,18-9.2,12.2-23.6-14.1-35.2-26.9-70.8-39.4-106.6-5.1-14.6-12.7-19.3-26.7-11.8-4.7,7.5-9.3,15.1-13.9,22.6-2.6.2-5.3.4-7.9.5,2.8-7.2,5.9-14.2,8.3-21.5,4.3-12.7,15.1-10.2,24.7-11.1,10.4-1,17,2.8,21.6,12.6,15.3,32.4,31.3,64.4,47,96.6,4,9.2,8.1,18.4,12.1,27.7h0Z"/>
    <path class="cls-10" d="M678.8,197.9c13.6,2.4,27,2.1,39.8-3.6,0,4.1-.2,8.2-.3,12.2h0c-50-.3-99.9-2.3-149.9.8-6.9-.2-13.9-.5-20.8-.7l.5.3c2.7-8.3-2.7-17.8,4.1-25.5,4.2-8.6,8.3-17.3,12.5-26,12.8-25.5,25.5-50.9,38.3-76.4,2.6-.2,5.3-.4,7.9-.5-10.8,27-22.2,53.8-32.4,81-14.2,37.8-12.2,39.9,30.1,37.7l70.1.8h0Z"/>
    <path class="cls-10" d="M1054.2,925.8c-4.4-5.7-2.7-12.3-2.7-18.5,0-183.1,0-366.3,0-549.4,0-6.2-1.9-12.8,2.6-18.5.4,103.3.8,206.5,1.2,309.8,0,7.4,0,14.7,0,22.1-.4,84.8-.8,169.7-1.1,254.5h0Z"/>
    <path class="cls-3" d="M496.6,281.6c1.5.6,3,1.1,4.5,1.7-.2,3-.4,6-.5,9-7-.4-14-1.3-21-1.1-71.3,1.4-142.6,2.9-214,4.3-15-5.5-30.9.2-46-3.5,73.7-6.6,147.8-4.7,221.7-8.7,7-.4,14-.7,21.1-1,11.5-.2,22.9-.4,34.4-.6h0Z"/>
    <path class="cls-3" d="M1035.6,294.1c3,4.1,6,8.3,9,12.5-1.2,1.1-2.3,2.2-3.5,3.3-1.2-.4-2.4-.8-3.5-1.3-1.2-1.5-2.4-2.9-3.6-4.4h.4c-.7-2.4-1.4-4.6-2-6.9,1.1-1.1,2.2-2.1,3.2-3.2h0Z"/>
    <path class="cls-3" d="M1031.4,289.4c1.4,1.6,2.8,3.1,4.2,4.7-1.1,1.1-2.2,2.1-3.2,3.2-1.4-1.4-2.8-2.8-4.2-4.3,1.1-1.2,2.1-2.4,3.2-3.6h0Z"/>
    <path class="cls-3" d="M1027.1,285.6c1.5,1.2,2.9,2.5,4.4,3.8-1.1,1.2-2.1,2.4-3.2,3.6-1.4-1.4-2.9-2.7-4.3-4.1,1.1-1.1,2.1-2.2,3.2-3.3h0Z"/>
    <path class="cls-3" d="M103.8,321.4c.1-2.9.7-5.9-2.6-7.5,20.1-21.2,45.9-23.3,72.8-21.2,9.4,5.6,20.1.5,29.8,3.9-8.4,1-16.8,2.9-25.2,2.8-27.3-.3-53.6,2.1-74.7,22.1h0Z"/>
    <path class="cls-10" d="M203.7,296.6c-9.7-3.4-20.4,1.6-29.8-3.9,15.2-.2,30.4-.5,45.6-.7,15.1,3.8,31-1.9,46,3.5-20.6.4-41.2.8-61.8,1.1h0Z"/>
    <path class="cls-10" d="M722.2,208l.2.6c-2.5,1.5-3.7.6-4.1-2.1h0c1.5-.2,2.8.2,3.8,1.4h0Z"/>
    <path class="cls-9" d="M113.3,999c-17.2-14.9-24.4-34-24.4-56.5,0-191.4-.1-382.7,0-574.1,0-4.8,1.8-9.5,2.7-14.3,2.7,3.5-1.1,10.5,6.8,11.7,6.5-28.7,22.3-49.1,52.9-52.5,16.7-1.9,33.8-3.6,50.5-3.7,98.2-.5,196.2-3.8,294.2-9.2-5.8,12.4-11.5,24.8-17.2,37.2-7.7,1.2-15.3,3.2-23,3.5-95,3.2-190.1,6.3-285.1,9-36.9,1-43.7,7.1-43.7,43.5,0,167.5,0,334.9-.1,502.4,0,10,.4,19.8,4.6,29.1-2.5,15.2,21.3,18.2,16.2,34.6,2.1.4,4.1,1.2,6.2,1.2,31.9-.8,63.9,1.9,95.6-2.5,7.7-1,15.2-4.2,22.2,1.9-17,4.5-32.1,10.8-30.7,32.7-42.5,2.8-85.2.2-127.6,6h0s0,0,0,0Z"/>
    <path class="cls-6" d="M280.2,1156.4c-7.2,0-14.4.2-21.5.2-9.9-14.8-3.2-31.4-4.5-47.1-.8-10.1-3.2-15.3-13.1-20.7-42.8-23.1-84.5-48.2-126.6-72.5-4.7-2.7-9.2-5.6-1.4-10.2,6.2-.5,12.5-1.5,18.7-1.5,26.8,0,54-8,80.4,3-3.1,6-8.7,12.2,1.2,17.4,22.1,11.7,41.8,28,66.1,35.8-2.4,11.3-15.6,11.8-20.5,21.4,22.1-16.7,46.8-21.3,73.8-20.9,29,.4,58-2.1,86.9-3.2,26-.2,52-.3,78-.8,21.7-.4,44.3-6.4,63,10.6,7.2,7.9,16.9,11.6,26.4,15.6-94.4,3-188.8,6.7-283.3,8.4-19.1.4-28.3,2.9-24.8,24.3,2.1,13.1.9,26.7,1.2,40.1h0Z"/>
    <path class="cls-8" d="M495.9,300.4c-98,5.4-196,8.7-294.2,9.2-16.7,0-33.8,1.8-50.5,3.7-30.6,3.4-46.4,23.8-52.9,52.5-7.9-1.2-4.1-8.2-6.8-11.7,0,0,.4-1.2.4-1.2,4.6-4,5.2-9.2,4.5-14.8,2.5-5.6,4.9-11.1,7.4-16.7,21.2-20,47.4-22.5,74.7-22.1,8.4.1,16.8-1.8,25.2-2.8,20.6-.4,41.2-.8,61.8-1.1,71.3-1.5,142.6-3,214-4.3,7-.1,14,.7,21,1.1-1.6,2.7-3.1,5.4-4.7,8.1h0Z"/>
    <path class="cls-3" d="M212.1,1007.7c-26.4-11-53.6-3.1-80.4-3-6.2,0-12.5,1-18.7,1.5,0-2.4.2-4.8.3-7.2,42.3-5.8,85.1-3.2,127.6-6,1.4.8,2.9,1.6,4.3,2.3-8.1,11.9-23.3,4.8-33.1,12.2h0Z"/>
    <path class="cls-9" d="M280.2,1156.4c-.3-13.4,1-27-1.2-40.1-3.5-21.4,5.6-24,24.8-24.3,94.4-1.8,188.9-5.4,283.3-8.4,89-2.7,177.9-5.4,266.9-8.1,106.2-3.2,212.3-6.3,318.5-9.4h.5c-1,21.5-2,43.1-3.1,64.6-88.3,6.2-176.9,7.2-265.3,9.8-196.8,6-393.6,11.7-590.4,17.3-11.3.3-22.6-.8-33.9-1.3h0Z"/>
    <path class="cls-7" d="M495.9,300.4c1.6-2.7,3.1-5.4,4.7-8.1.2-3,.4-6,.5-9,14.4-13.1,17.7-32.5,26.9-48.5,3.8-6.6,7.8-13,11.7-19.6,3.1-.1,6.2-.3,9.4-.4,4,7.4-.7,13.6-3.2,20-14.1,35.3-28.3,70.6-42.5,105.8-9.3,23.1-9.2,23.5,16.1,26.4,2.6.7,5.3,1.4,7.9,2-.5,2.3-.9,4.7-1.3,7-5.5,0-10.9,0-16.4,0-4.3-3.8-8.6-4.2-12.8.3-1.6.3-3.2.5-4.8.8-4.9-1-9.8-1.6-15.6,3.2,22.7,5.4,19.3,23.1,19.2,38.9-.6,102.1-1.6,204.1-2,306.2-.1,36.8.9,73.7,1.4,110.5.3,20.3,9.1,30.5,30.5,26.2,1.9,0,3.8,0,5.7,0,66.9,7.7,134,4.1,201,4,16.8,0,33.9,2.2,50.3-3.8l1.5.2s1.4-.7,1.4-.7h4.9c5.7.3,11.5.6,17.2.9,6.8,5.3,14.9,3.7,22.5,3.7,28.3.2,56.6.2,84.8.2-5.8,9.8-15.6,7.4-24.3,7.5-35.2.3-70.5,1-105.7-.2-14.2-.5-20.2,3.2-18.5,17.4-2.1,0-4.2,0-6.2,0-5-2.5-9.8-6-16-4.6-64.1-20-128-10-191.9,1.4-1.8.3-3.2,2.5-4.9,3.9-22.4-3.9-23.5,13.9-25.4,27.4-2.4,16.9,12.5,12.5,22,14,70.7,8,141.5,8.7,212.3,1,8.8,3.2,14.4-5.2,22.1-5.9.3,3.3.6,6.7.9,10.1l-1.6.3c-7.3,7-16,9.9-26.1,9h-43.9c5.4,26.5,21.8,27.8,40.7,24.5,10.8,3.3,10.8,7.7,0,9.8-8.7,1.7-18,.3-27.1,4.2h80.9c-1.2,1.4-2.4,2.8-3.6,4.2-3.8,0-7.6.2-11.4.2-22.3-1.9-43.9,8.8-68.1-1,3.3,9.5,14,4.8,12,13.8-1.1.2-2.3.4-3.4.5-4.2-.3-10.5-2.4-12.3-.5-15.5,16.9-33,6.3-49.9,4.7-7.7-.7-16.8-2.4-23.2.6-31,14.9-65.3-8.7-95.7,8.9-20.1-13-42.7-4.5-64.1-7.2-2.1-.3-2.8-.2-1.7-2.2,4.6-2.9,11,1.5,15.3-4-10.1-7.7-21.9-4.5-32.9-5.4-17.4-1.5-6.7,7.7-5.1,13.5-2.7-.4-5.4-.8-8-1.1-2.4-3.4-3.9-7.8-9-8.3-1.1-.4-2.2-.8-3.4-1-3.9-3-11-5.3-2.2-10.8.9-11.1-.3-13-13.7-13.5-18.9-.6-37.8-.2-56.7-.2,24.5-1.6,29.6-19.3,33.5-38.2,2.3-4.8,13.4-11.5-2.4-12.4-8.1-.5-16.5-2.2-24.5,1.5-6.7-.2-13.4-.3-20-.5.2-12,9.7-5.6,13.9-5.7,39.7-1.5,79.4-1.9,119.1-2.7,13.6-12,14.9-28.5,16.2-44.9-10-8.6-24.3,1.7-34.2-7.7,3.2-3,6.4-6.1,9.5-9.2,5.6-6.8,3.2-14.9,3.2-22.4.2-60.7-.2-121.4.3-182.1.1-16.5,1.2-31.7-22.1-30,1.2-57.9,3.3-115.8,1.1-173.8,2.3-32.9.1-66.4,11.9-98.2,2.6-4.6,5.2-9.2,7.8-13.8,5.8-12.4,11.5-24.8,17.2-37.2h0Z"/>
    <path class="cls-9" d="M1037.7,308.5c1.2.5,2.3.9,3.5,1.3,4.8,13.5,6.1,27.5,6.1,41.7,0,187.7,0,375.4-.1,563,0,7.8-.3,15.7-1.9,23.2-5.1,24.3-17.7,34.3-42.4,34.2-45.3-.2-90.6,3.2-135.8,0-24.6-5.7-37.2-12.3-56.8-30.2-1-.9-1.8-2.2-2.7-3.2,4.7-4.3,10.6-3.6,16.1-3.3,50.2,2,100.2-4.8,150.4-4.4,24.3.2,32.1-15.3,38.3-34,.3-.6.6-1.2.9-1.8-.3.6-.7,1.1-1,1.7-2.6,0-5.2.1-7.8.2,4.5-7.5,5.2-15.7,5.2-24.3-.2-173-.1-346-.2-518.9,0-22-6.5-28.3-30-27.9-54.4,1-108.9,2.2-163,8.4-22.4,2.5-33.9-5.9-39.7-26.1-1.1-4-3.3-7.8-5-11.7,51.4-6,103.3-2,154.7-5.6,37.5-2.6,74-7.4,108.1,13.3,0,0-.4,0-.4.1.2,1.9.3,3.7.5,5.6,1.1-.4,2.1-.8,3.1-1.2h0Z"/>
    <path class="cls-15" d="M798.8,990.7c1.2-1.4,2.3-2.8,3.6-4.2,46.4.6,92.2-10,138.7-8,16.8.7,33.7-.3,50.3,3.3,7.1,5.5,17.6,6.9,20.7,17.2-4.6.3-9.2.7-13.7,1-70.6-3.7-141-.6-211.4,5.7,2.5,2.9,5.2,4.8,7.7,4.5,38.2-4.7,76.5-2.3,114.7-3.3,13.9-.3,28-6.3,41.9.6,16.9,14.8,36.5,3.7,54.8,5.7,17,1.9,12.1-5.9,6.2-14.1,13.3,3.8,23.2,13,33.5,21.4h-66.6c6.2,7.7,6.9,14.3,16.6,14.7,21.6.7,51.9-3.2,56.4-8.9.2-.3-.4-1.3-.6-2,6.7-2,8.8,3.2,11.6,7.3-3.1,2.9-6.3,5.8-9.4,8.8-39,.4-77.9.9-116.9,1.4-23.3-.5-46.7-.9-70-1.4,10.6-1.5,21.2-3,36.8-5.3-27.7-16.2-52.4-10.5-76.8-7.7-.8,0-1.3,3.8-1.9,5.8-19.3-8.8-39.5-5.6-59.7-5-99.5,2.9-198.9,5.5-298.4,8.2-2.6-7.5,8.7-5.2,8.3-12.6h-55.4c11-3.8,22-4,33-3.7,5.9.2,7.4-2.2,5.6-7.4-1.6-5.7-12.3-14.9,5.1-13.5,11,.9,22.8-2.3,32.9,5.4-4.3,5.5-10.7,1-15.3,4-1.1,2-.4,1.9,1.7,2.2,21.3,2.8,43.9-5.7,64.1,7.2,30.4-17.6,64.7,6,95.7-8.9,6.4-3.1,15.4-1.3,23.2-.6,16.9,1.5,34.3,12.2,49.9-4.7,1.8-2,8.1.2,12.3.5,13.7,13.8,28.3,4.6,42.5,5.7,0-2.1.1-4.2.2-6.2h-39.2c2.1-9.1-8.7-4.3-12-13.8,24.2,9.8,45.8-.9,68.1,1,13.1,7.7,26.9,1.9,40.4,1.3-9.7-.5-19.3-1-29-1.6h0s0,0,0,0ZM981.2,988.4c-43.8-2.5-87-.5-130.1,5.1,43.5-.3,87.2,4.1,130.1-5.1ZM976.1,1036.7c-17.8-20.4-39.5-11.2-59.4-12.8-3.6-.3-9.5-1.4-9.3,5,.2,4.5,3.3,7.8,8.4,7.8,20.1,0,40.2,0,60.3,0h0ZM808.2,1018.5h59c-19.9-9.8-39.4-4.4-59,0ZM885.2,1012.6c-.3.9-.6,1.7-.8,2.6h59.3c0-.9,0-1.7,0-2.6h-58.4,0ZM787.3,1019.7c0-.7,0-1.3,0-2h-51.9c0,.7,0,1.3,0,2h51.9Z"/>
    <path class="cls-6" d="M1012.1,999c-3.1-10.3-13.6-11.7-20.7-17.2,23.8-8.6,49.9-6.4,70.1,3.2,43.6,20.8,86.1,44.7,125.3,73.6h.1c-41.6-7.7-83.5-13.7-123.8-27-2.8-4.2-4.8-9.4-11.5-7.3-1.9-1.3-3.9-2.5-5.8-3.8-10.4-8.4-20.2-17.7-33.5-21.4h-.1c0,0,0,0,0,0h0Z"/>
    <path class="cls-6" d="M1169.8,1130.6c1-21.6,2-43.1,3.1-64.6,5.2-1.6,11-1.8,14.1-7.3h-.1c16.8,11.4,5.3,28.3,8.4,42.4,4.5,20.8-5,30-25.4,29.6h0Z"/>
    <path class="cls-6" d="M807.4,938.5c.9,1.1,1.6,2.3,2.7,3.2,19.6,17.8,32.2,24.5,56.8,30.2-20.4.5-40.7-1.1-61-1.4-23.4-.3-28.7-12-28-31.4,0,0,1.6-.3,1.6-.3,9.3,0,18.7-.2,28-.3h0Z"/>
    <path class="cls-10" d="M748.5,972.6c-18.9,3.3-35.3,2.1-40.7-24.5h43.9c-19.7,5.7-6.4,15.7-3.2,24.5Z"/>
    <path class="cls-5" d="M766.5,891.6c-1.7-14.2,4.2-17.9,18.5-17.4,35.2,1.2,70.4.4,105.7.2,8.7,0,18.5,2.2,24.3-7.5l-.5.3c10.6-.8,11.3-9.4,11.8-16.7,2.2-28.8-1.9-56.4-18.5-81-15.8-23.4-30.8-47.5-47.7-70.1-11.2-15-17.3-34-34.3-44.5-2.6-7.2-4.9-14.7-12.9-18.2-5.1-25.9-4.6-52.2-4.6-78.4,0-52.5,0-105-.3-157.6,0-8.7,3.2-19.1-8.2-24.2-.3-4.5-.6-9-.9-13.5-.5-4,0-8.3-3.8-11.1-2.4-11.5,6-10.7,12.9-10.9,56.8-1.8,113.5-3.1,170.3-5.4,19.6-.8,21.6,9.5,21.6,25.2-.4,113.6-.2,227.2-.2,340.7s-.6,115,.3,172.5c.3,19.4-6.5,26.3-25.9,26.5-58.9.7-117.8,2.4-176.7,4.7-13.2.5-23.6-1.3-30.6-13.2h-1.1c0,0,.9-.4.9-.4h0Z"/>
    <path class="cls-4" d="M795,351.9c3.8,2.9,3.2,7.2,3.8,11.1-32,10.8-64.8,7.5-97.6,5.7-.9-40.6-14.7-78.9-21.2-118.5-5.9-36.1-7.3-36.6-43.3-34.6-12.9.7-19.3,5.7-20.3,18.9-2.8,38-6.1,76-9.4,113.9-.7,8.2-.3,15.6,7.6,20.4-29.1,3.9-58.2-1.6-87.2.1-2.6-.7-5.3-1.4-7.9-2,10.4-55.1,35-105.8,49-159.8,50-3,99.9-1.1,149.9-.8.3,2.7,1.6,3.5,4.1,2.1,19.9,43.6,39.7,87.2,59.6,130.8,2.7,5.9,5.5,11.6,13,12.5h0Z"/>
    <path class="cls-12" d="M807.4,938.5c-9.3,0-18.7.2-28,.3-.3-3.4-.6-6.7-.9-10-.2-2.7-.3-5.4-.5-8.1,6.8-7,15.7-5,23.9-5.3,57-2.1,114-4.1,171-5.8,12.2-.4,23.9-1,31.4-12.6,2.6,0,5.2-.1,7.8-.2l.2.2c-6.2,18.7-14.1,34.1-38.3,34-50.2-.4-100.1,6.3-150.4,4.4-5.6-.2-11.4-.9-16.1,3.3h0Z"/>
    <path class="cls-8" d="M1034.4,304c-34.1-20.7-70.6-16-108.1-13.3-51.4,3.6-103.2-.4-154.7,5.6-6.9-8.6-9-14.8,6-15.2,68.8-1.7,137.6-3.7,206.4-5.5,14.8-.4,27.4,6.4,39.9,13.2,1.4,1.4,2.9,2.7,4.3,4.1,1.4,1.4,2.8,2.8,4.2,4.3.7,2.3,1.4,4.5,2,6.8h0Z"/>
    <path class="cls-6" d="M778,920.6c.2,2.7.3,5.4.5,8.1-7.7.8-13.4,9.1-22.1,5.9,11.8-19.9-4.2-32.8-12.1-47.8,6.2-1.4,10.9,2.1,16,4.6,1.6,2.2,3.3,3,5.4.5h1.1c-4.3,12.6-.4,22.1,11.3,28.5h0Z"/>
    <path class="cls-10" d="M549.1,214.9c-3.1.1-6.2.3-9.4.4.8-4.8,4.5-6.7,8.4-8.4l-.5-.3c3.2,2.3,2.2,5.3,1.4,8.3Z"/>
    <path class="cls-5" d="M678.8,197.9c-23.4-.2-46.8-.5-70.2-.8-12.6-4.5-13.3-12.4-9.8-24.6,10.9-38.3,22.3-76.7,26-116.6,14-7.6,21.6-2.8,26.7,11.8,12.5,35.8,25.4,71.4,39.4,106.6,5.8,14.4,1.5,20.7-12.2,23.6h0Z"/>
    <path class="cls-6" d="M624.9,56c-3.7,40-15.2,78.3-26,116.6-3.5,12.2-2.8,20.1,9.8,24.6-42.3,2.3-44.3.1-30.1-37.7,10.2-27.2,21.5-54,32.4-81,4.7-7.5,9.3-15.1,13.9-22.6h0Z"/>
    <path class="cls-6" d="M549.1,214.9c.8-3,1.8-6-1.4-8.3,6.9.2,13.9.5,20.8.7-14.1,54-38.7,104.7-49,159.8-25.3-2.9-25.5-3.3-16.1-26.4,14.2-35.2,28.4-70.5,42.5-105.8,2.5-6.4,7.2-12.5,3.2-20h0Z"/>
    <path class="cls-8" d="M1037.7,308.5c-1.1.4-2.1.8-3.1,1.2-.2-1.9-.3-3.7-.5-5.6,1.2,1.5,2.4,2.9,3.6,4.4Z"/>
    <path class="cls-3" d="M478.6,337.7c-2.6,4.6-5.2,9.2-7.8,13.8-7,.3-14,.6-21,1-85.8,2.4-171.7,4.8-257.5,7.3-64.2,1.8-55.8-6.3-55.9,58.1,0,158.3,0,316.5,0,474.8,0,13.2-2.3,27.6,15,33.1,21.4-1.3,42.7-2.6,64.1-3.8,9.9-.2,19.8-.5,29.7-.7,26.5,1.4,53,.2,79.4-3,18.3,0,36.6,0,54.9.2,35.1,4.9,70.3-.4,105.4,1.5-39.7.8-79.4,1.2-119,2.7-4.2.2-13.7-6.3-13.9,5.7-9.2,6.2-19.7-.3-29.2,3.2-51.7.6-103.4,1.2-155,1.9-12.9.2-25.5.4-36.3-8.1-4.2-9.3-4.6-19.1-4.6-29.1,0-167.5,0-334.9.1-502.4,0-36.5,6.8-42.5,43.7-43.5,95-2.7,190.1-5.8,285.1-9,7.7-.3,15.3-2.3,23-3.5h0Z"/>
    <path class="cls-12" d="M131.4,925.2c10.8,8.5,23.5,8.3,36.4,8.1,51.7-.8,103.4-1.3,155-1.9-10.9,4.9-20.7,10.6-17.7,25.2-10.8,4.4-22.3,3-33.5,3.8-6.9-6.1-14.5-3-22.2-1.9-31.8,4.3-63.8,1.7-95.6,2.5-2.1,0-4.1-.8-6.2-1.2,5.1-16.4-18.7-19.3-16.2-34.6h0Z"/>
    <path class="cls-6" d="M271.6,960.4c11.2-.8,22.7.6,33.5-3.8,16.5.7,32.9,1.3,48.9-4.2,1.1,1.6,2.2,3.2,3.3,4.8-12.6,7.6-25.1,15.2-40.7,15.3-13,0-27.8-2.5-30.8,17.3-.9,5.5-8.2,4.1-13,4.4-9.2.5-18.4.9-27.6,1.3-1.4-.8-2.9-1.6-4.3-2.3-1.4-21.9,13.8-28.1,30.7-32.7h0ZM259.4,988.2c-1.2-.7-2.2-1.8-3.3-1.9-1.1,0-2.2,1-3.4,1.5,1,.7,2.1,1.8,3.1,1.8,1.1,0,2.3-.9,3.6-1.5h0Z"/>
    <path class="cls-10" d="M245.2,995.4c9.2-.4,18.4-.8,27.6-1.3,4.8-.3,12.1,1.2,13-4.4,3-19.7,17.7-17.2,30.8-17.3,15.6,0,28.1-7.7,40.7-15.3,18.6,5.5,27.7-11.7,41.5-17.6-3.9,18.9-9,36.7-33.5,38.2,18.9,0,37.8-.5,56.7.2,13.4.4,14.6,2.3,13.7,13.4-3.8,0-7.6.2-11.4.2-20.8-3-43,3.8-62.3-4.7-14.7-6.5-28.9-9.8-44.4-9.7-19.5.2-21,3-12.3,22.2,0,1.6.1,3.2.2,4.7-14,2-2.9,8.3-2.2,12.8-3.6-.2-7.3-.4-10.9-.6-1.1-4.6-3-8.4-8.4-9-17.3,0-34.6,0-51.8.3-3.6,0-10.1-2-10.1,3.4,0,7.1,7.1,4.1,11.3,5,1.6,2.5,3.1,5.1,4.7,7.6,9,3.7,18,7.5,24.1,15.6,2.7,8.5,12.4,8.9,17.3,14.9l.4.2c0,2.1-.2,4.3-.3,6.4-24.3-7.8-44-24-66.1-35.8-9.9-5.2-4.3-11.4-1.2-17.4,9.8-7.4,24.9-.4,33.1-12.3h0s0,0,0,0Z"/>
    <path class="cls-10" d="M866.8,1040.4c23.3.5,46.7.9,70,1.4-34.3,4.6-68.9,3.2-103.4,4.4-6.5-2.1-12-.1-16.8,4.4-78.6-2.2-157,3.9-235.5,4.5-5.3,0-12-.6-12.6,7.8-2.6,1.7-5.2,3.4-7.9,5-18.8-17-41.3-11-63-10.6-26,.4-52,.5-78,.8,0-1.4,0-2.8,0-4.3,11.3-2,2.6-5.5.6-8.4,0-2.5-.1-5.1-.2-7.6,1.4-.2,2.8-.4,4.2-.6,1.3,4.3,5.2,3.8,8.4,4.7,3.3,5.1,7.8,8.6,13.6,10.6,19.6,3.7,39.2,5.5,58.5-1.4,72.7-2.2,145.4-3.4,217.9-6.9,34.1-1.6,68.6,2.1,102.2-6.6,1.4,0,2.7,0,4.1,0,12.1,7.3,25.2,1.3,37.7,3.1h0Z"/>
    <path class="cls-3" d="M816.5,1050.6c4.8-4.5,10.3-6.5,16.9-4.4-1.3,8.3,5.7,9.9,10.4,13.7,5,4,13.6,6,10.1,15.6-89,2.7-177.9,5.4-266.9,8.1-9.5-4.1-19.2-7.7-26.4-15.6,2.6-1.7,5.2-3.4,7.9-5,17.5,13.1,37.7,13.2,58.3,12.4,45.9-1.8,91.8-2.8,137.6-4.6,23-.9,45.9-2.7,69.5-4.1-3.5-9.5-13.4-9.4-17.5-16h0Z"/>
    <path class="cls-15" d="M420,1037.7c0,2.5.1,5.1.2,7.6h-62.5c20.2,12.4,41.5,4.3,61.9,8.4,0,1.4,0,2.8,0,4.3-29,1.2-58,3.7-86.9,3.2-27-.4-51.7,4.3-73.8,20.9,4.9-9.6,18.1-10.1,20.5-21.4,0-2.1.2-4.3.3-6.4h63.4l-.3-6.3c-21.3-1.6-42.7-3.6-63.5,6.1-4.8-6-14.6-6.4-17.3-14.9.8-.5,1.6-.8,2.5-.9,6.5,6.6,14.7,3.6,22.1,3.4,44.5-1.1,88.9-2.7,133.4-4.1h0Z"/>
    <path class="cls-6" d="M853.9,1075.4c3.5-9.6-5.1-11.6-10.1-15.6-4.7-3.7-11.8-5.4-10.4-13.7,34.5-1.1,69,.2,103.4-4.4,39-.4,77.9-.9,116.9-1.4,39.6,8.5,79.1,17,118.7,25.5-106.2,3.2-212.3,6.3-318.5,9.4h0Z"/>
    <path class="cls-3" d="M1172.4,1066c-39.6-8.5-79.1-17-118.7-25.5,3.1-2.9,6.3-5.8,9.4-8.8,40.3,13.3,82.3,19.3,123.8,26.9-3.1,5.5-8.9,5.8-14.1,7.3,0,0-.5,0-.5,0h0Z"/>
    <path class="cls-1" d="M785.5,862.1l-1.4.7s-1.5-.2-1.6-.2c-83.8,0-167.5-.2-251.2-.2-1.9,0-3.8,0-5.7,0,.2-1,.2-1.9-.1-2.9.5-2.4,0-3.9-3-3.5-4.4-4.6-3.7-10.5-3.7-16,.2-50.6.5-101.3.8-151.9,4.9-7.9,9.9-10,18.6-3.7,11.9,8.5,25,15.3,40.4,15.3,1.5,0,2.7.5,3.5,1.8.2,5.8,1.7,9.2,7.8,4.2,15.9,5.7,31.9,11.3,47.8,17-7,38-3.5,76,.1,114,1,10.1,7.9,16.5,18.7,16.8,12.3.4,19.2-8.2,20.1-18.2,3.2-36.5,6.5-73.1-.7-109.6,51.9-9,91.8-34.6,114.9-83.3.3,59.9.7,119.8.8,179.7,0,11.9,1.5,24-3.6,35.4-.9,1.5-1.8,3.1-2.7,4.6h0Z"/>
    <path class="cls-12" d="M449.8,352.5c7-.3,14-.6,21-1-11.7,31.8-9.5,65.3-11.9,98.2-7-.5-10.8,2-14.4,9-7.2,13.9-10.3,28.3-13.4,43.5-11,53.4-28.1,105.9-23.7,161.5.9,11.6-8.2,23.3.8,34.6-13.4,21.7-26.8,43.5-43.1,63.2-1.1-18.2-5.9-37.1-2.6-54.5,9.6-49.5,11.8-99.2,10.5-149.3-.3-11,2.1-20.7,8.7-29.8,9.6-13.5,13.6-29.4,16.6-45.3,1.4-7.7,5.3-14.1,7.5-20.7,7.8-23.2,26.3-41.4,30.5-65.5,2.6-15.4,7.3-29.8,13.5-43.9h0Z"/>
    <path class="cls-1" d="M492.1,377.3c1.6-.3,3.2-.5,4.8-.8,4.3,1.7,8.5,1.5,12.8-.3,5.5,0,10.9,0,16.4,0,9.1.5,18.2,1.3,27.2,1.4,44.3.5,88.6-2,132.8,1.3-17.3,5.3-35,.8-52.4,2.5-5.7.6-15.1-.6-10,9.7,9.5,19.1,6.9,39.8,9.5,59.7-30,10.5-58.2,23.5-75.8,51.9-9.7,8.6-15.6,19.4-18,32.1-3.2,10-6.4,20-9.6,30-2,3.7-4,7.5-5.9,10.9-4.9-26.6,2.8-53.3-5.2-79.3-.2-24.1-1.6-48.3-.2-72.3,1.4-22.3-.8-40.7-26.5-47h0Z"/>
    <path class="cls-13" d="M492.1,377.3c25.6,6.2,27.8,24.6,26.4,47-1.5,24,0,48.2.2,72.3.3,63.9.7,127.8,1,191.6-.3,50.6-.7,101.3-.8,151.9,0,5.5-.7,11.4,3.7,16,1,1.2,2,2.3,3,3.5.3.9.3,1.9.1,2.9-21.4,4.3-30.2-5.9-30.5-26.2-.5-36.8-1.5-73.7-1.4-110.5.4-102.1,1.4-204.1,2-306.2,0-15.8,3.5-33.5-19.2-38.9,5.8-4.9,10.7-4.2,15.6-3.2h0Z"/>
    <path class="cls-4" d="M744.3,887c7.9,15,23.9,27.8,12.1,47.8-70.8,7.7-141.6,7-212.3-1-2.3-14.1-2.7-28.1,3.5-41.5,1.6-1.3,3.1-3.6,4.9-3.9,63.9-11.4,127.8-21.4,191.9-1.4h0ZM648,934.2c12.7-1,24-1.8,35.2-2.7,5.9-.5,10.6-2.3,12.6-9.1,5.5-19.3-6.6-37.6-26.9-37.9-13.3-.2-26.6,3.8-39.8,3.7-16.1-.2-20.7,7.5-21.4,21.9-.8,15.5,5.4,22.2,20.8,21.9,7-.1,14,1.5,19.6,2.2h0Z"/>
    <path class="cls-2" d="M408.2,698.4c-9.1-11.3.1-23.1-.8-34.7-4.4-55.7,12.6-108.1,23.7-161.5,3.1-15.2,6.2-29.6,13.4-43.5,3.6-7,7.4-9.5,14.4-9,2.2,57.9,0,115.8-1.1,173.8-16.5,25-33,49.9-49.6,74.9h0Z"/>
    <path class="cls-1" d="M476.4,858c-3.2,3-6.4,6.1-9.5,9.2-29-.2-58-.6-87-.7-11.8,0-22.2-3.3-23.3-16.3-2.1-24.8-3.2-50.4,10.8-72.2,29.1-45.2,59.7-89.4,89.9-133.8,3.4-5,7.4-12.3,14.6-9.4,6.2,2.5,3.1,10.1,3.1,15.4.6,69.3.9,138.6,1.3,208h0ZM464.1,757.8h-.6c0-25.5.1-51.1-.1-76.6,0-5.2,2.2-12.6-5.4-14.2-5.9-1.2-7.7,5-10.5,9-20.2,29-40.2,58.1-60.5,87.1-14.6,20.8-24,43-21.8,69.1,1.2,14.3,7.1,22.4,22.6,21.6,19.8-1,39.6-1.8,59.5-2.2,13-.3,17-7.5,16.9-19.3-.2-24.8,0-49.6,0-74.5h0Z"/>
    <path class="cls-10" d="M476.4,858c-.4-69.3-.7-138.6-1.4-208,0-5.2,3.1-12.9-3.1-15.4-7.2-2.9-11.3,4.4-14.6,9.4-30.2,44.5-60.8,88.7-89.9,133.8-14.1,21.8-13,47.5-10.8,72.2,1.1,13,11.5,16.3,23.3,16.3,29,0,58,.4,87,.7,9.9,9.3,24.2-1,34.2,7.7-23.5.2-47.1.5-70.6.7-13.8.2-27.6.4-41.5.5-.7-.6-1.3-.6-2,0-3.5,0-6.9-.2-10.4-.2-29-3.4-31.5-6.3-34.4-38.8,0-27.5,7.6-52.6,22.8-75.5,16.3-19.7,29.7-41.5,43.1-63.2,16.5-25,33-49.9,49.6-74.9,23.4-1.7,22.3,13.5,22.1,30-.5,60.7-.1,121.4-.3,182.1,0,7.5,2.4,15.6-3.2,22.4h0s0,0,0,0Z"/>
    <path class="cls-1" d="M812.9,636.7c8,3.5,10.2,11,12.9,18.2,1.3,5.1,2.6,10.2,4,15.4-9.9-6.2-12.8-.5-12.7,8.2.4,50.7,1.3,101.4,1.2,152.2,0,14.7,7.9,20.9,20.3,21.8,18.2,1.4,36.6,1,54.9,1.9,12.9.6,17.6-5.2,17.3-17.7-.4-14.8.3-29.6.5-44.4,11.4,24.6,9.2,49.7,3.1,75l.5-.3c-28.3,0-56.6,0-84.8-.2-7.7,0-15.7,1.6-22.5-3.7.2-59.7.4-119.4.5-179.1,3.8-15.5-3.6-32.1,4.8-47.1h0Z"/>
    <path class="cls-16" d="M264.5,1038.4c-.9.1-1.7.4-2.5.9-6.2-8.1-15.1-11.9-24.1-15.6,1.8.2,3.7.4,5.5.6,18.2-.1,36.3,0,54.4-.4,3.8,0,12.5,2.3,5.4-6.9-.7-4.5-11.8-10.8,2.2-12.8,19.4,3.1,39.6-4,61.1,4.2-15.7,7.7-32.3-3.8-44.2,9,19.5,4.9,39,3.9,58.6.6,12.1,14.8,15.8,4.9,19-6.1-6.5-4.1-16.9,3.7-23.5-9.6h61.5c1.1.2,2.3.6,3.4,1-.8,5.4-9.8,1.7-9.4,9.8,6.2-.5,12.3-1,18.4-1.5,2.7.4,5.4.8,8,1.1,1.8,5.2.4,7.5-5.6,7.4-11-.3-22,0-33,3.7h55.4c.5,7.4-10.9,5.2-8.2,12.6-11.1,3.6-23.7-2.7-34.1,5.3-3.1-.9-7.1-.3-8.4-4.7-1.1-8.9-7.7-8.6-14.2-8.5-27.4.3-55.2-2.2-82.1,1.8-21.1,3.2-43.6-3.9-63.5,8h0s0,0,0,0Z"/>
    <path class="cls-13" d="M430.5,875.5c23.5-.2,47.1-.5,70.6-.7-1.3,16.4-2.6,32.9-16.2,44.9-35.2-1.9-70.4,3.4-105.4-1.5,12.7-1.4,22.8-7.6,28.5-18.6,5.4-10.4,14-17.1,22.5-24.2h0Z"/>
    <path class="cls-13" d="M808.2,683.8c-.2,59.7-.4,119.4-.5,179.1-5.7-.3-11.5-.6-17.2-.9-.8-1.5-1.5-3.1-2.3-4.6,5.1-11.4,3.6-23.6,3.6-35.4,0-59.9-.5-119.8-.8-179.7,1.1-3,2.2-6.1,3.2-9.1,10.6,3.5,8.4,12.7,9.7,20.8,1.5,9.9-4.2,20.9,4.3,29.8h0Z"/>
    <path class="cls-15" d="M686.2,378.8c-44.3-3.3-88.6-.8-132.9-1.3-9.1-.1-18.2-.9-27.2-1.4.4-2.3.9-4.7,1.3-7,29.1-1.7,58.2,3.7,87.2-.1,1.1,0,2.3,0,3.4-.2,27.8,7.7,55.6,7.2,83.3,0h0c32.8,1.9,65.6,5.1,97.6-5.6.3,4.5.6,9,.9,13.5-1,1.1-2,2.1-2.9,3.2-33.8-2.7-67.7-5.2-101.4.7-3.1-.5-6.1-1.1-9.2-1.6h0Z"/>
    <path class="cls-9" d="M354,952.3c-15.9,5.5-32.4,4.9-48.9,4.2-3-14.6,6.8-20.3,17.7-25.2,9.5-3.5,20,3,29.2-3.2,6.7.2,13.3.3,20,.5-4.5,9-16.8,12.2-18,23.7h0Z"/>
    <path class="cls-15" d="M437.8,1002.2h-61.5c6.6,13.3,17,5.5,23.5,9.6-3.2,11-7,20.9-19,6.1-19.5-3.1-39-1.3-58.6-.6,11.9-12.7,28.5-1.2,44.2-9-21.5-8.2-41.8-1.1-61.1-4.2,0-1.6-.1-3.2-.2-4.7,39.8-.7,79.5-3.2,119-7.8,3.8,0,7.6-.2,11.4-.2-8.8,5.6-1.7,7.9,2.2,10.8h0Z"/>
    <path class="cls-16" d="M531.3,862.4c83.8,0,167.5.2,251.2.2-16.4,6-33.5,3.8-50.3,3.8-67,0-134.1,3.6-201-4h0Z"/>
    <path class="cls-6" d="M547.6,892.2c-6.2,13.4-5.8,27.3-3.5,41.5-9.5-1.5-24.3,2.8-22-14,1.9-13.5,3-31.3,25.4-27.4h0Z"/>
    <path class="cls-3" d="M354,952.3c1.2-11.5,13.5-14.7,18-23.7,8-3.7,16.3-2,24.5-1.5,15.8,1,4.7,7.7,2.4,12.4-13.8,5.9-22.9,23-41.5,17.6-1.1-1.6-2.2-3.2-3.3-4.8h0Z"/>
    <path class="cls-16" d="M731.3,1003.7h39.2c0,2.1-.1,4.2-.2,6.2-14.2-1.1-28.8,8.1-42.5-5.7,1.2,0,2.3-.3,3.5-.5Z"/>
    <path class="cls-16" d="M798.8,990.7c9.7.5,19.3,1,29,1.6-13.5.6-27.3,6.4-40.4-1.3,3.8,0,7.6-.2,11.4-.2Z"/>
    <path class="cls-15" d="M450.2,1011.5c-6.1.5-12.2,1-18.4,1.5-.5-8.1,8.6-4.4,9.4-9.8,5.1.5,6.6,4.9,9,8.3h0Z"/>
    <path class="cls-15" d="M509.6,376.2c-4.2,1.8-8.5,2-12.8.3,4.2-4.5,8.4-4.1,12.8-.3Z"/>
    <path class="cls-16" d="M788.1,857.5c.8,1.5,1.5,3.1,2.3,4.6h-4.9c.9-1.5,1.8-3.1,2.6-4.6h0Z"/>
    <path class="cls-3" d="M765.7,892.1c-2.1,2.4-3.8,1.7-5.4-.5,2.1,0,4.2,0,6.2,0,0,0-.8.5-.8.5h0Z"/>
    <path class="cls-12" d="M1012.1,896.7c.3-.6.7-1.1,1-1.7-.3.6-.6,1.2-.9,1.8l-.2-.2h0Z"/>
    <path class="cls-1" d="M432.7,1041.8c10.4-8.1,23-1.7,34.1-5.3,99.4-2.7,198.9-5.3,298.4-8.2,20.2-.6,40.4-3.8,59.7,5l-.2-.3c0,1.5.2,3,.3,4.5-33.6,8.6-68.2,4.9-102.2,6.6-72.6,3.5-145.3,4.7-217.9,6.9-19.5-1.7-39.1-1.8-58.5,1.4-5.7-2-10.2-5.5-13.6-10.6h0,0Z"/>
    <path class="cls-16" d="M951.3,1007.5c-13.8-6.9-28-.9-41.9-.6-38.2,1-76.6-1.4-114.7,3.3-2.4.3-5.2-1.6-7.7-4.5,70.4-6.3,140.8-9.4,211.4-5.7-13.8,14-31.6,3.3-47.1,7.5h0Z"/>
    <path class="cls-1" d="M866.8,1040.4c-12.5-1.8-25.7,4.2-37.7-3.1,0-2.9-1.1-4.8-4.4-4.4l.2.3c.6-2,1-5.7,1.9-5.8,24.4-2.8,49.2-8.5,76.8,7.7-15.5,2.2-26.2,3.7-36.8,5.3h0Z"/>
    <path class="cls-1" d="M1045.8,1020.5c1.9,1.3,3.9,2.5,5.8,3.8.2.7.8,1.7.6,2-4.5,5.7-34.8,9.6-56.4,8.9-9.7-.3-10.4-7-16.6-14.7h66.6Z"/>
    <path class="cls-16" d="M981.2,988.4c-42.9,9.2-86.6,4.8-130.1,5.1,43.1-5.6,86.4-7.5,130.1-5.1Z"/>
    <path class="cls-1" d="M976.1,1036.7c-20.1,0-40.2,0-60.3,0-5,0-8.2-3.3-8.4-7.8-.2-6.5,5.7-5.3,9.3-5,20,1.7,41.6-7.6,59.4,12.8h0Z"/>
    <path class="cls-1" d="M951.3,1007.5c15.4-4.2,33.2,6.5,47.1-7.5,4.6-.3,9.2-.7,13.7-1h.1c5.9,8.3,10.9,16.1-6.2,14.2-18.2-2-37.9,9.1-54.8-5.7Z"/>
    <path class="cls-16" d="M808.2,1018.5c19.6-4.4,39.1-9.8,59,0h-59Z"/>
    <path class="cls-1" d="M885.2,1012.6h58.4c0,.9,0,1.7,0,2.6h-59.3c.3-.9.6-1.7.8-2.6h0Z"/>
    <path class="cls-1" d="M787.3,1019.7h-51.9c0-.7,0-1.3,0-2h51.9c0,.7,0,1.3,0,2h0Z"/>
    <path class="cls-15" d="M808.2,683.8c-8.5-8.9-2.8-19.9-4.3-29.8-1.2-8,1-17.2-9.7-20.7.2-5.9.4-11.9.7-17.9v.3c14.2-25.1,10.3-49.2-4.6-72.5-14-24.9-25.9-51.6-53.3-65.6-3.7-4-8-7-13.5-7.8-26.7-15-54.5-19.8-85-12.8-31.7,7.3-55.7,25.5-77.2,48.3-1.3-.9-2.5-1.8-3.8-2.6,17.7-28.4,45.9-41.5,75.8-51.9,16.1-.9,32.2-1.7,48.2-2.6,50.6,8.3,86.5,36.5,110.1,81.4,2,2.7,3.9,7.6,6.1,7.8,5.9.4,5.5-5.1,5.5-9.2.1-19.8.7-39.7,0-59.5-1.1-27.4,4.2-55.2-4.1-82.2-.7-2.3-1.5-4.5-2.2-6.8,1-1.1,2-2.1,2.9-3.2,11.4,5.1,8.2,15.5,8.2,24.2.3,52.5.2,105,.3,157.6,0,26.2-.5,52.5,4.6,78.4-8.4,15-1,31.6-4.8,47.1h0Z"/>
    <path class="cls-15" d="M829.8,670.2c-1.3-5.1-2.6-10.2-4-15.4,17,10.5,23.1,29.6,34.3,44.5,16.9,22.6,31.8,46.7,47.7,70.1,16.6,24.6,20.8,52.2,18.5,81-.6,7.3-1.2,15.9-11.8,16.7,6.1-25.3,8.2-50.4-3.1-75-23.4-43.2-52.2-82.9-81.6-122h0Z"/>
    <path class="cls-14" d="M618,368.8c-1.2.2-2.3.3-3.4.2-7.8-4.8-8.2-12.2-7.5-20.4,3.3-38,6.6-75.9,9.4-113.9,1-13.2,7.4-18.2,20.3-18.9,36-2,37.4-1.6,43.3,34.6,6.5,39.6,20.3,77.9,21.2,118.5h0c-27.8,0-55.5,0-83.3,0h0Z"/>
    <path class="cls-5" d="M365.1,761.5c-15.2,22.9-22.8,48.1-22.8,75.5-7.9.9-12.3,6.3-15.8,12.5-7.9,14-16.2,27.9-23.1,42.3-5.2,10.8-11.6,16.2-24.2,19.5-11.2,2.9-26.2-4.7-34,9.7-9.9.2-19.8.5-29.7.7-21.7-4.2-43.5-10.6-64.1,3.8-17.3-5.4-15-19.9-15-33.1,0-158.3,0-316.5,0-474.8,0-64.4-8.3-56.3,55.9-58.1,85.8-2.4,171.7-4.8,257.5-7.3-6.1,14.1-10.8,28.5-13.5,43.9-4.1,24.2-22.7,42.3-30.5,65.5-2.2,6.7-6.1,13.1-7.5,20.7-2.9,15.9-6.9,31.9-16.6,45.3-6.5,9.1-9,18.8-8.7,29.8,1.3,50.1-.9,99.8-10.5,149.3-3.4,17.3,1.5,36.2,2.6,54.5h0Z"/>
    <path class="cls-12" d="M245.2,921.2c7.8-14.5,22.8-6.8,34-9.7,12.6-3.3,19-8.7,24.2-19.5,6.9-14.5,15.3-28.3,23.1-42.3,3.5-6.3,7.9-11.7,15.8-12.5,2.8,32.5,5.4,35.4,34.4,38.8-4.4,26-12.3,34.3-36.6,37.4-5.6.7-11.2.5-15.5,4.9-26.4,3.2-52.8,4.5-79.4,3h0Z"/>
    <path class="cls-2" d="M324.5,918.1c4.3-4.3,9.9-4.2,15.5-4.9,24.3-3.1,32.3-11.4,36.6-37.4,3.5,0,6.9.2,10.4.2,0,0,1,1.5,1,1.5l1-1.4c13.8-.2,27.7-.4,41.5-.5-8.6,7.1-17.1,13.7-22.5,24.2-5.7,11-15.8,17.2-28.5,18.6-18.4,0-36.7,0-55-.2h0Z"/>
    <path class="cls-12" d="M151.4,925.7c20.6-14.4,42.4-8,64.1-3.8-21.4,1.3-42.7,2.6-64.1,3.8Z"/>
    <path class="cls-9" d="M259.4,988.2c-1.3.6-2.4,1.6-3.6,1.5-1.1,0-2.1-1.2-3.1-1.8,1.1-.6,2.3-1.6,3.4-1.5,1.1,0,2.1,1.2,3.3,1.9h0Z"/>
    <path class="cls-3" d="M424.2,991.7c-39.5,4.6-79.2,7.1-119,7.8-8.7-19.2-7.1-22,12.3-22.2,15.5-.1,29.7,3.1,44.4,9.7,19.3,8.6,41.5,1.8,62.3,4.7h0Z"/>
    <path class="cls-15" d="M237.9,1023.7c-1.6-2.5-3.1-5.1-4.7-7.6,15.8-9.2,35.4,3.7,50.6-8.7,5.4.5,7.3,4.4,8.4,9-15.2,9.6-33.9-2.7-48.9,7.9-1.8-.2-3.7-.4-5.5-.6h0Z"/>
    <path class="cls-1" d="M243.4,1024.3c15-10.6,33.7,1.7,48.9-7.9,3.6.2,7.3.4,10.9.6,7.1,9.2-1.6,6.8-5.4,6.9-18.1.3-36.3.3-54.4.4h0Z"/>
    <path class="cls-1" d="M283.9,1007.4c-15.3,12.3-34.9-.5-50.6,8.7-4.2-.9-11.4,2.1-11.3-5,0-5.5,6.5-3.3,10.1-3.4,17.3-.4,34.6-.3,51.8-.3Z"/>
    <path class="cls-6" d="M816.5,1050.6c4,6.6,14,6.5,17.5,16-23.6,1.4-46.5,3.2-69.5,4.1-45.9,1.8-91.8,2.8-137.7,4.6-20.6.8-40.8.8-58.3-12.4.6-8.4,7.2-7.7,12.6-7.8,78.5-.6,156.9-6.7,235.5-4.5h0Z"/>
    <path class="cls-1" d="M264.5,1038.4c19.9-11.9,42.4-4.9,63.5-8,26.8-4,54.7-1.5,82.1-1.8,6.5,0,13.1-.4,14.2,8.5-1.4.2-2.8.4-4.2.6-44.5,1.4-88.9,3-133.4,4.1-7.4.2-15.6,3.2-22.1-3.4h0Z"/>
    <path class="cls-1" d="M419.7,1053.8c-20.4-4.2-41.7,3.9-61.9-8.4h62.5c2,3,10.7,6.4-.6,8.4Z"/>
    <path class="cls-15" d="M446.2,1052.3c19.4-3.3,39-3.2,58.5-1.4-19.4,7-38.9,5.2-58.5,1.4Z"/>
    <path class="cls-15" d="M824.6,1032.9c3.3-.4,4.4,1.5,4.4,4.4-1.4,0-2.7.1-4.1,0,0-1.5-.2-3-.3-4.5Z"/>
    <path class="cls-1" d="M279.3,1054.2c20.8-9.7,42.2-7.7,63.5-6.1l.3,6.3h-63.4l-.4-.2h0Z"/>
    <path class="cls-10" d="M794.8,615.4c-.2,6-.5,11.9-.7,17.9-1.1,3-2.2,6-3.2,9.1-23.1,48.7-63,74.3-114.9,83.3-12.7-1.7-25.8,1.6-38.2-3-15.9-5.7-31.9-11.3-47.8-17-1.3-3.7-4-4.9-7.8-4.2-.8-1.3-2-1.9-3.5-1.8-35.1-25.4-52.3-59.6-50.2-103.2.5-10.6.9-21.1,1.3-31.7,3.2-10,6.4-20,9.6-30,1.8,1.2,3.6,2.3,5.4,3.5-.9,4.8-2,9.7-2.8,14.6-9,50.9,5.7,94.1,45,127.2,39,32.9,83.7,38.5,131.2,20.5,40.1-15.2,60.8-48.1,76.6-85.3h0Z"/>
    <path class="cls-12" d="M637.8,722.7c12.5,4.5,25.6,1.3,38.2,3,7.1,36.5,3.9,73.1.7,109.6-.9,10-7.7,18.5-20.1,18.2-10.8-.3-17.7-6.7-18.7-16.8-3.6-37.9-7.1-76-.1-114h0Z"/>
    <path class="cls-16" d="M529.8,564.9c-.4,10.6-.7,21.1-1.3,31.7-2.2,43.6,15,77.7,50.2,103.2-15.4,0-28.5-6.8-40.4-15.3-8.7-6.2-13.7-4.2-18.6,3.7-.3-63.9-.7-127.8-1-191.6,8.1,26,.3,52.7,5.2,79.3,1.9-3.5,3.9-7.2,5.9-10.9Z"/>
    <path class="cls-16" d="M582.2,701.5c3.8-.7,6.5.5,7.8,4.2-6.1,5-7.5,1.5-7.8-4.2Z"/>
    <path class="cls-16" d="M525.5,859.5c-1-1.2-2-2.3-3-3.5,2.9-.5,3.5,1,3,3.5Z"/>
    <path class="cls-12" d="M681.5,448.3c-16.1.9-32.2,1.7-48.2,2.6-2.5-20,0-40.6-9.5-59.7-5.1-10.3,4.3-9.2,10-9.7,17.4-1.8,35.1,2.8,52.4-2.5,3.1.5,6.2,1.1,9.2,1.6-11.9,21.1-14.4,44.2-13.9,67.8h0Z"/>
    <path class="cls-15" d="M544.8,538.4c-1.8-1.2-3.6-2.3-5.4-3.5,2.4-12.7,8.3-23.5,18-32.1,1.2.9,2.5,1.8,3.8,2.6-5.5,11-10.9,22-16.4,33h0Z"/>
    <path class="cls-14" d="M648,934.2c-5.6-.7-12.6-2.3-19.6-2.2-15.4.3-21.6-6.5-20.8-21.9.7-14.4,5.4-22.1,21.4-21.9,13.3.2,26.6-3.8,39.8-3.7,20.3.2,32.5,18.6,26.9,37.9-2,6.8-6.7,8.6-12.6,9.1-11.2,1-22.5,1.8-35.2,2.7h0Z"/>
    <path class="cls-5" d="M464.1,757.8c0,24.8-.1,49.6,0,74.5.1,11.8-3.9,19-16.9,19.3-19.8.5-39.7,1.2-59.5,2.2-15.5.8-21.4-7.3-22.6-21.6-2.2-26.1,7.2-48.3,21.8-69.1,20.3-28.9,40.4-58,60.5-87.1,2.8-4,4.6-10.2,10.5-9,7.6,1.6,5.4,9,5.4,14.2.2,25.5.1,51.1.1,76.6h.6Z"/>
    <path class="cls-12" d="M389.1,876.1l-1,1.4s-1-1.5-1-1.5c.7-.6,1.4-.6,2,0h0Z"/>
    <path class="cls-12" d="M829.8,670.2c29.5,39.2,58.2,78.8,81.6,122-.2,14.8-.9,29.6-.5,44.4.3,12.5-4.3,18.3-17.3,17.7-18.3-.9-36.7-.4-54.9-1.9-12.4-1-20.3-7.1-20.3-21.8,0-50.7-.9-101.4-1.2-152.2,0-8.7,2.7-14.3,12.7-8.2h0Z"/>
    <path class="cls-1" d="M322.3,1017.3c19.5-.7,39.1-2.5,58.6.6-19.6,3.3-39.1,4.3-58.6-.6Z"/>
    <path class="cls-1" d="M681.5,448.3c-.5-23.7,2-46.7,13.9-67.8,33.8-5.9,67.6-3.4,101.4-.7.7,2.3,1.5,4.5,2.2,6.8-8.5,6.8-6.5,16.5-6.6,25.4-.4,39.2-.6,78.5-.9,117.8-23.5-44.9-59.4-73.1-110.1-81.4h0Z"/>
    <path class="cls-4" d="M618,368.8c27.8,0,55.5,0,83.3,0-27.8,7.3-55.5,7.8-83.3,0Z"/>
    <path class="cls-4" d="M544.8,538.4c5.5-11,10.9-22,16.4-33,21.5-22.8,45.5-41,77.2-48.3,30.5-7,58.3-2.2,85,12.8-1.2,1.3-2.3,2.5-3.5,3.8-6.7-2.1-13.4-4.5-20.2-6.4-42.5-12-80.4-3.4-110.8,28.9-31.1,33.1-39.9,71.9-23.9,115.4l-.3-.4c12.8,53.4,61.8,89.8,114.2,84.7,54.8-5.4,95.8-51.8,98.9-106.7,2.5-44.1-13-78.6-44.7-107.5l3.7-4.1c27.5,14,39.3,40.7,53.3,65.6,7.8,23.8,5.9,48.1,4.5,72.5,0,0,.1-.3.1-.3-15.8,37.2-36.5,70.1-76.6,85.3-47.5,18-92.2,12.3-131.2-20.5-39.3-33.2-53.9-76.4-45-127.2.9-4.9,1.9-9.7,2.8-14.6h0Z"/>
    <path class="cls-13" d="M791.5,529.7c.3-39.2.4-78.5.9-117.8,0-8.9-1.9-18.6,6.6-25.4,8.3,27,3,54.8,4.1,82.2.8,19.8.2,39.6,0,59.5,0,4,.4,9.6-5.5,9.2-2.2-.2-4.1-5-6.1-7.8Z"/>
    <path class="cls-10" d="M794.7,615.7c1.4-24.3,3.4-48.7-4.5-72.5,14.9,23.3,18.9,47.3,4.5,72.5h0Z"/>
    <path class="cls-4" d="M723.4,469.8c5.5.8,9.8,3.7,13.5,7.8-1.2,1.4-2.5,2.7-3.7,4-4.4-2.7-8.8-5.3-13.2-8,1.2-1.3,2.3-2.5,3.5-3.8Z"/>
    <path class="cls-14" d="M719.9,473.6c4.4,2.7,8.8,5.3,13.2,8,31.6,28.9,47.2,63.4,44.7,107.5-3.1,54.9-44.1,101.3-98.9,106.7-52.3,5.2-101.4-31.3-114.2-84.7,6.7,3.8,8.6,11,12,17.1,26.9,48.4,90.9,66.7,140.2,39.8,51.2-27.8,71.4-85.5,46.8-133.3-26-50.6-89.8-72.3-140.2-46.3-50.3,25.9-65,69.7-58.6,123.1-16.1-43.4-7.2-82.3,23.9-115.4,30.4-32.3,68.3-40.8,110.8-28.9,6.8,1.9,13.5,4.2,20.2,6.4h0Z"/>
    <path class="cls-4" d="M565,611.5c-6.5-53.4,8.3-97.2,58.6-123.1,50.5-26,114.2-4.3,140.2,46.3,24.6,47.9,4.3,105.5-46.8,133.4-49.4,26.8-113.4,8.6-140.2-39.8-3.4-6.1-5.3-13.3-12-17.1l.3.4h0ZM599.2,534.9c-6.8-1.2-5.9,1.8-3.2,5.8-8.8,15-9.7,31.7-10.4,48.5-8.2,48.6,56.3,97.7,104.5,79.6,30.1-11.4,47.2-31.3,57.8-59.5,2.3-4.4,5.4-8.5,6.7-13.2,9.5-34.3-12.5-78.8-47-95.9-34.1-16.8-81.2-7.8-103.2,19.7-3.5,4.4-7.9,8.5-5.3,15h0c0,0,0,0,0,0h0Z"/>
    <path class="cls-5" d="M585.6,589.2c.7-16.8,1.6-33.5,10.4-48.5,1-1.9,2.1-3.9,3.2-5.8h0c10.2-6.2,16.4-17,27.5-22.5,28.8-14.4,57.4-14.8,84.5,2.6,30.4,19.5,41,48.8,35.8,84.2-1.7,3.1-3.6,6-5,9.2-25.1,56.3-110.6,60.1-142.8,9.3-5.6-8.8-9-18.9-13.4-28.4h0Z"/>
    <path class="cls-16" d="M585.6,589.2c4.4,9.5,7.9,19.6,13.4,28.4,32.2,50.8,117.7,47,142.8-9.3,1.4-3.2,3.3-6.1,5-9.2.3,3.4.7,6.7,1,10.1-10.6,28.2-27.7,48.2-57.8,59.5-48.1,18.2-112.7-31-104.5-79.6h0Z"/>
    <path class="cls-3" d="M747.9,609.2c-.3-3.4-.7-6.8-1-10.1,5.2-35.3-5.3-64.6-35.8-84.1-27.1-17.4-55.7-17-84.5-2.6-11.1,5.5-17.3,16.3-27.5,22.6-2.6-6.5,1.8-10.7,5.3-15,22-27.5,69.1-36.5,103.2-19.7,34.5,17,56.5,61.5,47,95.9-1.3,4.7-4.4,8.8-6.7,13.2h0s0,0,0,0Z"/>
    <path class="cls-3" d="M599.2,534.9c-1,1.9-2.1,3.9-3.2,5.8-2.8-4-3.6-7,3.2-5.8Z"/>
  </g>
  <g id="Layer_2" data-name="Layer 2" class="cls-17">
    <path class="cls-7" d="M428.1,1023.7c3.7-6.4,11.7-13.5-3.5-16-8-1.3-13.4-7.2-13.5-15.1-.4-26.1-.1-52.3.4-78.4,0-4.4,3.4-7.8,8.2-8.8,10-5.8,16.9,8.8,26.8,4.2,14.2,5,21.9,14,22.7,30.1.6,12,5.5,23.8,7.7,35.8,2,10.6,7.3,16.3,18.3,17.7,25.8,3.3,51.5,6.2,77.5,4,56.7,2.8,113.3,2.9,170,0,19.7,1.7,39.1,0,58.6-3.6,11.3-2.1,15.5-7.3,16.5-18.7,1.7-20.3,5.4-40.3,8.2-60.5,1,1.1,2.3,1.5,3.7,1.2.4,22.1.7,44.3,1.2,66.4.3,14.3-1.7,26.3-20.5,24.6-6.3-.5-6.5,3.8-5.7,8.5-9.2-1.3-18.3-3.5-27.5-3.7-85.7-1.8-171.5-2.2-257.2,0-15.6.4-31,2.5-49.2,8,6.5,3.9,9.3,6.3,12.5,7.4,6.2,2.1,12.5,3.8,18.9,5.1,60.4,11.5,121.5,9.9,182.5,9.5,34.9-.2,69.7-1,104-8.7,10.9-2.4,17.2-6.1,15.7-18,3,2.9,5.9,5.9,8.9,8.8.6,7.9-.8,15.4-4.9,22.2-1.2.7-2.4,1.9-3.7,2.1-29.7,4.4-27.7,25.5-27.2,47.8.8,34.3-34.3,80.3-67.9,89.1-11,2.9-17.8,5.5-19.9,17.9-2.2,12.9-11.3,19.4-25,19.3-29.7-.2-59.4-.2-89.1-.1-8.7,0-18.4-2.8-19.4-10.8-3.3-24.2-21.9-26.7-39.6-31.3-4.6-4-9.2-8-13.8-12-30.7-25.7-44.5-58.1-38.9-98.2,1.4-9.8-.4-16.3-13.3-15.8-5.6.2-11.5-5.2-17.2-8.1-3.2-7-5.4-14.2-5.1-22h0s0,0,0,0ZM664.2,1058.5c-15.9,0-31.8,0-47.7,0-25.7-8.1-51.3-2.3-76.8.6-12.8,1.4-26.9,2.1-27.7,21-.8,16.9,0,30.2,19.8,38,54.7,21.7,111.1,19.3,167.9,15.6,21.5-1.4,41.5-7.5,59.1-20.2,16.5-12,14-47.2-5-52.4-29.2-8-59.4-10-89.5-2.6h0ZM631.2,1186.9h0c-11.6,0-23.2-.3-34.7.2-5.2.2-13-2-13.9,6.3-.9,7.3,3.9,12.7,10.8,14.3,25,5.8,50.2,5.4,75.2.3,7.4-1.5,10.6-8.5,9.8-15.1-.8-6-7.6-5.8-12.5-5.9-11.6-.3-23.1,0-34.7,0h0Z"/>
    <path class="cls-3" d="M230.6,516.8c-16.9-74.3-14.2-147.8,9.1-220.5,10-31.2,24.2-60.2,41.5-87.9.8.9,1.7,1.8,2.7,2.5-2.2,4.5-4.3,9.1-6.6,13.6-63.9,118.5-69.2,239.2-15.4,362.9,12.9,29.5,32.8,54.6,48.4,82.3-.7.6-1.4,1.1-2.1,1.7-29-33.2-48.3-72-64.4-112.5-2.9-7.3-6.2-14.6-9.2-21.8-1.3-6.8-2.6-13.5-4-20.3h0Z"/>
    <path class="cls-3" d="M741.9,37.3c33,16.1,69.7,25.1,98.1,50.1l-.8,1.1c-5.6.6-9.5-3.2-13.8-5.7-107.8-63.1-220.7-74.2-339-33.8-19.7,6.8-37.1,19.5-58.4,22l-.2-.2c22.2-15.7,48.9-21.8,72.9-33.7,77.7-22.6,155.6-23.3,233.7-1.7,2.8.5,5.6-1.2,13.2.4l-5.8,1.5h0Z"/>
    <path class="cls-3" d="M979.4,245.6c14.3,18.3,17.6,41.2,26.2,61.9,3.5,13.2,6.9,26.4,10.3,39.5,1,4.1,2,8.3,3,12.4-.7,5.4-1,10.8,2.4,15.5,1.9,31.9,2,63.9-.5,95.8-2.7,3.5-2.5,7.4-1.8,11.4-.7,4.1-1.4,8.2-2.2,12.4-4.2,16-8.4,32-12.7,48-2.8,7.3-5.3,14.7-8.6,21.8-9.8,21.6-16,45.2-34.2,62.2,2.6-5.9,4.8-12,7.8-17.7,51-96.5,57.9-197.4,30.8-301.8-5.4-20.9-17.7-39.4-21-61.1l.3-.3h0Z"/>
    <path class="cls-11" d="M742.8,37.1c-2.8-.5-5.5-1.1-8.3-1.7,3.6-3.8,6.3-2.9,8.3,1.7Z"/>
    <path class="cls-3" d="M417.2,895.1c-13.5-9.4-19.2-23-20.1-38.8-.9-14.4-2.5-28.9-1.8-43.3,1.6-31.3-9.6-57.8-28.6-81.7l.2-.2c10.4-.7,12.2,8.7,16.5,14.6,19,26.2,19.1,56.6,17.8,87-.9,22.3,2,43.1,18.3,59.9-.9.7-1.7,1.5-2.4,2.4h0Z"/>
    <path class="cls-3" d="M446.4,909.6c-9.9,4.7-16.7-9.9-26.8-4.2,3.2-4.4,0-7.3-2.5-10.3.7-.9,1.5-1.7,2.4-2.4,18,9.1,36.9,7.8,56,5,4.1.5,8.2.9,12.3,1.4-2.2,2-4.5,4-6.7,6-11.3,3.8-23.8-2.2-34.7,4.4h0Z"/>
    <path class="cls-3" d="M366.7,731.4c-19.1-12.9-35-29.1-48.1-48.1l.2-.2c8.6-1.5,9.7,8.1,15.7,10.6,1.4,1.4,2.7,2.9,4.1,4.3,1.3,1.5,2.6,3,3.9,4.5,1.4,1.5,2.9,3,4.3,4.5,1.5,1.4,3.1,2.9,4.6,4.3,3.4,8,16.2,8.7,15.5,19.9l-.2.2h0Z"/>
    <path class="cls-3" d="M318.6,683.3c-5.1-2.5-8-6.9-10.4-11.8.7-.6,1.4-1.1,2.1-1.7,5.1,3,9.8,6.3,8.5,13.3l-.2.2h0Z"/>
    <path class="cls-3" d="M393.3,93.1c10.3-9.3,21.6-17.1,34.6-22.2l.2.2c-8.3,12.6-20.3,19.3-35,21.8,0,0,.1.2.1.2Z"/>
    <path class="cls-3" d="M313.3,165.9c7.2-11.5,16.1-21.6,27.5-29.2h0c-4,14.2-15.4,22.2-26.2,30.6l-1.2-1.4h0Z"/>
    <path class="cls-3" d="M349.5,128c7.1-9.3,15.8-16.5,26.1-22h0c-5.2,11.6-13.4,19.5-26.2,21.9h0c0,0,0,0,0,0Z"/>
    <path class="cls-3" d="M281.2,208.5c5.2-9.1,10.5-18,18.8-24.7l1.3.9c-3.4,10.4-10.5,18.2-17.4,26.3-1-.8-1.9-1.6-2.7-2.5h0Z"/>
    <path class="cls-3" d="M300.1,183.8c1.9-7.8,7-13.2,13.2-17.9l1.2,1.4c-2.6,7.2-6.1,13.6-13.1,17.5l-1.3-.9h0Z"/>
    <path class="cls-3" d="M380.2,101.8c3-4.9,7.5-7.7,13.1-8.8v-.2c-1.1,8.1-6.2,9.9-13.3,8.7l.2.2h0Z"/>
    <path class="cls-3" d="M340.8,136.7c1.3-4.5,4.4-7.3,8.8-8.7h0c.8,6.5-3,8.6-8.7,8.7h0q0,0,0,0Z"/>
    <path class="cls-3" d="M375.6,105.9c1.5-1.4,3.1-2.7,4.6-4.1l-.2-.2c1,3.9-1.1,4.8-4.4,4.4h0Z"/>
    <path class="cls-9" d="M742.6,997.2c-56.7,3-113.3,2.8-170,0-8.4-6.3-18.3-4.2-27.4-3.7-20.9,1.3-31.8-7.4-37-27.9-5.1-20.4-5.8-42.9-22.4-59.2,87.9-.5,175.8-1.1,263.7-1.2,22.5,0,45-2.9,67.4,1.4-16.4,6.6-25.8,16.2-27,36.4-2.5,39.8-6.3,42.2-45.7,52.8-.6.2-1.2.8-1.7,1.3h0ZM579.9,911.6c9.7,10.2,13.9,21.3,20.1,30.9,26.7,41,69,40.9,96.3.2,6.8-10.2,11.8-21.6,25.8-31.1h-142.3Z"/>
    <path class="cls-9" d="M804.3,1014.6c1.5,11.9-4.8,15.6-15.7,18-34.4,7.7-69.2,8.4-104,8.7-61,.4-122.1,2-182.5-9.5-6.4-1.2-12.7-3-18.9-5.1-3.2-1.1-6-3.5-12.5-7.4,18.3-5.5,33.6-7.6,49.2-8,85.7-2.3,171.5-1.8,257.2,0,9.2.2,18.3,2.4,27.5,3.7l-.3-.3h0s0,0,0,0ZM583.4,1021.4c42.1,12.7,84,14.3,125.8,1.2-41.9-10.4-84-6.8-125.8-1.2h0Z"/>
    <path class="cls-6" d="M664.2,1058.5c30.1-7.4,60.3-5.5,89.5,2.6,19.1,5.2,21.6,40.4,5,52.4-17.6,12.8-37.6,18.8-59.1,20.2-56.8,3.7-113.2,6.1-167.9-15.6-19.8-7.9-20.6-21.1-19.8-38,.9-18.9,14.9-19.5,27.7-21,25.5-2.9,51.2-8.7,76.8-.6-1,.7-2.2,1.1-3.4,1.4-20.5-2.8-40.4.2-60.1,6.1-10.6,3.2-15.9,8.6-15.6,20.1.2,11.2-.7,22.1,12.9,26.8,58,20.3,116.2,22.8,174.9,2.8,15.2-5.2,18.8-15.3,18.4-30.2-.4-15.4-10-19.3-21.9-22.4-17.8-4.7-35.8-5-54-3.4-1.2-.1-2.3-.5-3.4-1.2h0Z"/>
    <path class="cls-6" d="M485.9,906.5c16.5,16.2,17.2,38.8,22.4,59.2,5.2,20.5,16.1,29.2,37,27.9,9-.5,19-2.6,27.4,3.7-26,2.2-51.7-.7-77.5-4-11.1-1.4-16.4-7.1-18.3-17.7-2.2-12-7.1-23.8-7.7-35.8-.8-16.1-8.5-25.1-22.7-30.1,10.9-6.5,23.5-.6,34.7-4.4,1.6.4,3.2.9,4.8,1.3h0Z"/>
    <path class="cls-6" d="M742.6,997.2c.6-.4,1.1-1.1,1.7-1.3,39.4-10.6,43.2-13,45.7-52.8,1.2-20.2,10.6-29.8,27-36.4,1.2-1.1,2.4-2.2,3.6-3.3,1.8,3.6,3.5,7.3,5.2,10.9-2.8,20.2-6.5,40.3-8.2,60.5-1,11.4-5.1,16.6-16.5,18.7-19.5,3.6-38.9,5.3-58.6,3.6h0Z"/>
    <path class="cls-5" d="M664.2,1058.5c1,.6,2.2,1,3.4,1.2.4,5,.9,10.1,1.1,15.1.6,16.1-.2,30.8-22,32.1-24.8,1.4-30.4-2.5-33.7-27.5-.8-6.3,0-12.9.1-19.4,1.2-.2,2.3-.7,3.4-1.4,15.9,0,31.8,0,47.7,0h0Z"/>
    <path class="cls-6" d="M631.2,1186.9c11.6,0,23.2-.2,34.7,0,4.9.1,11.7,0,12.5,5.9.9,6.6-2.4,13.5-9.8,15.1-25,5.2-50.2,5.5-75.2-.3-6.9-1.6-11.7-7-10.8-14.3,1-8.3,8.7-6,13.9-6.3,11.5-.5,23.1-.2,34.7-.2h0c0,0,0,0,0,0Z"/>
    <path class="cls-3" d="M825.9,914.3c-1.8-3.6-3.5-7.3-5.2-10.9l.3-.8c3.5,3.9,10.2,5.6,8.7,12.8-1.5.3-2.7,0-3.7-1.2Z"/>
    <path class="cls-3" d="M928.1,166.1c17.1,18.7,33.4,38,42.2,62.3h0c-17.5-18.4-29.7-40.5-43.8-61.2l1.5-1.1h0Z"/>
    <path class="cls-3" d="M875.6,113.5c10,5.8,18.7,13.1,25.1,22.9l-.2.2c-11.9-3.4-19-12.7-26.7-21.3.6-.6,1.2-1.2,1.8-1.8h0Z"/>
    <path class="cls-3" d="M848,92.9c9.3,3.1,16.8,8.8,22.8,16.5l-1.4,1.5c-8.7-4.2-17.7-7.9-21.3-18h0s0,0,0,0Z"/>
    <path class="cls-3" d="M970.3,228.5c5,4.7,8.3,10.2,9.2,17.1l-.3.3c-8.1-3.2-9.3-9.9-8.8-17.5h0q0,0,0,0Z"/>
    <path class="cls-3" d="M900.7,136.4c4.4,1.4,7.3,4.3,8.8,8.7l-.2.2c-6.8,1.1-8.6-3-8.8-8.7l.2-.2h0Z"/>
    <path class="cls-3" d="M909.5,145.1c2.8,3,5.7,5.9,8.6,8.9h0c-6.8,1.1-9.6-2-8.7-8.7l.2-.2Z"/>
    <path class="cls-3" d="M918,154c2,2.2,4.1,4.5,6.1,6.7-.7.7-1.3,1.4-1.9,2.2-3.4-2-6.3-4.2-4.2-8.8h0Z"/>
    <path class="cls-3" d="M840,87.5c3.4.7,6.6,1.7,7.9,5.4h0c-4.1.9-7.5.4-8.8-4.4l.8-1.1Z"/>
    <path class="cls-3" d="M924.1,160.7c1.3,1.8,2.6,3.6,4,5.4,0,0-1.5,1.1-1.5,1.1-1.5-1.4-2.9-2.9-4.4-4.4.6-.8,1.2-1.5,1.9-2.2Z"/>
    <path class="cls-3" d="M870.7,109.4c1.6,1.3,3.2,2.7,4.8,4.1-.6.6-1.2,1.2-1.8,1.8-2.7-.2-4.3-1.5-4.5-4.3l1.4-1.5h0Z"/>
    <path class="cls-2" d="M869.3,110.9c.2,2.8,1.8,4.1,4.5,4.3,7.7,8.7,14.8,17.9,26.7,21.3.1,5.7,1.9,9.8,8.8,8.7-.9,6.7,1.9,9.8,8.7,8.8-2,4.6.9,6.8,4.2,8.8,1.5,1.4,2.9,2.9,4.4,4.4,14,20.8,26.3,42.8,43.8,61.1-.5,7.6.7,14.2,8.8,17.5,3.2,21.6,15.5,40.2,21,61.1,27.1,104.5,20.2,205.4-30.8,301.8-3,5.7-5.2,11.8-7.8,17.7l.3-.4c-5.9,4.5-10.3,9.7-9,17.9l.2-.2c-10,1.7-12.5,9.1-13.4,17.7l.3-.3c-9.4,2.2-12.3,9.3-13.4,17.8l.3-.3c-6.2-.2-8.4,3.7-9,9.1l.3-.3c-3.4-.3-4.9,1.3-4.6,4.7l.2-.2c-3.5-.4-4.8,1.3-4.6,4.6l.2-.2c-3.3-.2-4.7,1.5-4.7,4.6l.3-.3c-3,0-4.5,1.8-4.7,4.7l.3-.4-4.7,4.7.4-.4c-8.7,6.1-19.2,10.3-22.1,22.2l.2-.2c-9.7,1.9-14,8-13.4,17.7l.3-.3c-10.7,3.6-11.4,14-14.8,22.2-9.6,23.6-6.8,48.7-6.7,73.3,0,16.8-3.6,31.5-13.9,44.7l.4-.4c-1.6,1.6-3.2,3.2-4.8,4.8l.4-.4c-2.7,1-4.8,2.2-2.7,5.5-16.5,2.2-32.9,6.4-49.7,2.2,1.6-3,.2-7.5,4.6-9.1,3.8,0,7.5,0,11.3,0,4.9,1,9.8,1.9,14.5-.8,21.5-6,29.9-21.6,30.6-42.5.4-11.6.9-23.3.5-34.9-1.4-42.1,14.4-75.7,46.3-103.4,43.4-37.8,75.8-84.2,98.1-137.2,89.6-213.6-19.4-448.3-241.6-520.7-75.4-26.2-150.8-26.9-226.1.1-7.5,2.7-15.1,5.3-22.6,8.1-222.4,81-318.5,353.3-196.2,555.8,10.3,28.8,35.2,48.1,48.9,74.7-1.1,1-2.2,2.1-3.3,3.1-5.9-2.5-7-12.1-15.7-10.6,1.3-7.1-3.4-10.3-8.5-13.3-15.6-27.8-35.6-52.8-48.4-82.3-53.9-123.6-48.6-244.4,15.4-362.9,2.4-4.4,4.4-9.1,6.6-13.6,6.9-8.1,14-15.9,17.4-26.3,7-3.9,10.5-10.3,13.1-17.5,10.9-8.4,22.2-16.4,26.2-30.6,5.8,0,9.5-2.2,8.7-8.8,12.8-2.4,21-10.3,26.2-21.9,3.3.4,5.4-.5,4.4-4.4,7.1,1.1,12.2-.6,13.1-8.7,14.6-2.5,26.6-9.2,35-21.8,21.3-2.4,38.6-15.2,58.4-22,118.3-40.5,231.1-29.3,339,33.8,4.3,2.5,8.2,6.3,13.8,5.7,1.3,4.8,4.7,5.2,8.8,4.3,3.7,10.1,12.7,13.9,21.3,18h0s0,0,0,0Z"/>
    <path class="cls-2" d="M366.9,731.2c.8-11.2-12.1-11.9-15.5-19.9,1.3-1.2,2.5-2.4,3.8-3.6,22.3,7,29.4,30.5,46.5,43.1-.7,3.8,0,6.5,4.6,6.8l-.2-.2c2.2,26.5,6.1,52.8,5,79.5-.5,12.2.2,24.7,6.7,35.8,9.7,20.3,27.1,22,46.4,19.5,4.1,1.2,9.2.5,11.3,5.7-19.1,2.7-38,4.1-56-5-16.4-16.8-19.3-37.6-18.3-59.9,1.3-30.4,1.2-60.8-17.8-87-4.3-5.9-6.2-15.3-16.5-14.6h0Z"/>
    <path class="cls-10" d="M769.5,900.4c16.8,4.2,33.2,0,49.7-2.2l-.2-.5c.6,1.6,1.3,3.3,1.9,4.9,0,0-.3.8-.3.8-1.2,1.1-2.4,2.2-3.6,3.3-22.4-4.3-45-1.5-67.4-1.4-87.9.1-175.8.8-263.8,1.2-1.6-.4-3.2-.9-4.8-1.3,2.2-2,4.5-4,6.8-6,8.7-4.3,5.6-12.4,5.5-19.1-.1-27.2-.7-54.4-1.1-81.6.6-32.6-3.4-64.9-6.8-97.2-1.8-16.6-4.6-32.8-13.8-47.2-5.9-20.6-15.6-39.5-24.7-58.7-8.8-27.1-16.5-54.5-10.5-83.2,2.5-12,5.8-25.4,22.4-26.2-1.5,4-4.1,7.9-4.4,12-4.2,47.7,20.6,85.2,46.7,120.6,10.8,14.6,31.6,4.1,44.2-3.2,11.5-6.6,1.2-19.7-3.6-28.4-8.5-15.9-19.9-30.3-27.9-46.5-8.1-16.3-18.8-32.1-18.9-51.6,2.3-7.3,3.7-15.1,7-21.9,6.6-13.6,12.1-29,31.2-29.6-20,19.7-16.5,43.3-9.9,66.5,8.5,30,22.8,57.8,37.2,85.4,6.2,11.9,14,23.7,29.9,19.8,16.3-4.1,35.1-6.1,39.7-27.6,1.5,4.3,3.1,8.6,4.6,13,.3,13.9-9.1,22-18,30.4-19.3,6.6-35.6,18.8-57.8,21.4-13.4,1.6-33.1,9.9-40.8,27.8-8,3.9-8.4,11.5-8.1,18.7,3.1,60.8,6.5,121.7,9.7,182.5.5,8.7,2.1,16.2,13.2,15.9,59.5,7.3,119.1,7.6,178.7.7,10.1.9,20,1.1,26.5-8.8,1.3,3.1,2.7,6.1,4,9.2,7.2,9.7,18.3,5.4,27.5,7.9h0,0Z"/>
    <path class="cls-16" d="M492.3,798.5c.4,27.2,1,54.4,1.1,81.6,0,6.7,3.2,14.7-5.5,19.1-4.1-.5-8.2-.9-12.4-1.4-2.1-5.2-7.2-4.5-11.4-5.7-3.2-17.7-1.7-37.3-19.3-49.4-7.1-22.6,1.5-49.7-19.7-68.3,6.2-1.9,12,5.5,19.4.7-5-12.9-9.8-25.8-19.5-35.7-10.3-10.6-15.8-24-23.4-36.2-19.2-30.7-6.2-68.8,29-82.6,11,10.8,22.1,21.6,33.1,32.4-25.7,18.8-29.4,27.4-19.5,51,5.3,12.5,10.1,26.2,19,35.9,15.8,17.1,11.7,43,28.8,58.8h0Z"/>
    <path class="cls-2" d="M351.4,711.3c-1.5-1.4-3.1-2.9-4.6-4.3,1.3-1.2,2.7-2.3,4-3.5,1.5,1.4,2.9,2.8,4.4,4.2-1.3,1.2-2.5,2.4-3.8,3.6h0Z"/>
    <path class="cls-2" d="M346.8,707c-1.4-1.5-2.9-3-4.3-4.5,1.2-1,2.4-2,3.6-2.9,1.6,1.3,3.1,2.6,4.7,4-1.3,1.2-2.7,2.3-4,3.5h0Z"/>
    <path class="cls-2" d="M342.5,702.5c-1.3-1.5-2.6-3-3.9-4.5,1.1-1,2.2-2,3.4-3,1.4,1.5,2.8,3,4.2,4.5-1.2,1-2.4,2-3.6,3h0Z"/>
    <path class="cls-2" d="M338.6,698c-1.4-1.4-2.7-2.9-4.1-4.3,1.1-1,2.2-2.1,3.3-3.1,1.4,1.5,2.7,3,4.1,4.4-1.1,1-2.2,2-3.4,3h0Z"/>
    <path class="cls-3" d="M825.9,888.7c10.2-13.2,13.9-27.9,13.9-44.7,0-24.5-2.8-49.6,6.7-73.3,3.4-8.3,4.1-18.7,14.8-22.2-12.8,23.8-15.4,49.4-14.8,76,.4,16.6,1.2,33.7-6,49.3-2.9,6.3-3.9,15.8-14.6,14.9Z"/>
    <path class="cls-3" d="M874.2,731.4c2.9-11.9,13.4-16.2,22.1-22.2-2.8,12-12.9,16.6-22.1,22.2Z"/>
    <path class="cls-3" d="M861,748.8c-.6-9.7,3.7-15.8,13.4-17.7-4.5,5.9-9,11.8-13.4,17.7Z"/>
    <path class="cls-3" d="M939.7,661.5c.8-8.6,3.3-16,13.4-17.7-2.7,7.2-6.8,13.4-13.4,17.7Z"/>
    <path class="cls-3" d="M926.5,678.9c1.1-8.5,4-15.5,13.4-17.8-2.5,7.4-6.8,13.5-13.4,17.8Z"/>
    <path class="cls-3" d="M952.8,644c-1.3-8.1,3-13.4,9-17.9,1.5,8.2-3.8,13-9,17.9Z"/>
    <path class="cls-3" d="M917.8,687.7c.6-5.4,2.8-9.2,9-9.1-1.5,4.5-3.6,8.5-9,9.1Z"/>
    <path class="cls-3" d="M904.7,700.8c0-3.1,1.3-4.9,4.7-4.6.5,3.6-.4,5.8-4.7,4.6Z"/>
    <path class="cls-3" d="M895.9,709.6l4.7-4.7c1,4.2-.6,5.7-4.7,4.7Z"/>
    <path class="cls-3" d="M900.3,705.2c.2-2.9,1.7-4.6,4.7-4.7.8,4-.4,5.9-4.7,4.7Z"/>
    <path class="cls-3" d="M909.1,696.5c-.2-3.3,1.1-5,4.6-4.6.4,3.5-.9,5.2-4.6,4.6Z"/>
    <path class="cls-3" d="M913.5,692.1c-.3-3.4,1.2-5,4.6-4.7.3,3.4-1.2,5-4.6,4.7Z"/>
    <path class="cls-3" d="M821.5,893.1c1.6-1.6,3.2-3.2,4.8-4.8,1.7,4.8,0,6.3-4.8,4.8Z"/>
    <path class="cls-3" d="M819,897.7s.2.5.2.5c-2-3.3,0-4.5,2.7-5.5.8,2.7-.2,4.4-3,5Z"/>
    <path class="cls-5" d="M579.9,911.6h142.3c-14,9.5-19,20.9-25.8,31.1-27.3,40.8-69.6,40.8-96.3-.2-6.3-9.6-10.5-20.7-20.1-30.9h0Z"/>
    <path class="cls-5" d="M583.4,1021.4c41.8-5.5,83.9-9.1,125.8,1.2-41.8,13.1-83.7,11.4-125.8-1.2h0Z"/>
    <path class="cls-9" d="M613.1,1059.9c0,6.5-1,13.1-.1,19.4,3.3,25,8.9,28.9,33.7,27.5,21.9-1.2,22.6-16,22-32.1-.2-5-.7-10.1-1.1-15.1,18.2-1.6,36.2-1.3,54,3.4,11.9,3.2,21.5,7.1,21.9,22.4.4,14.8-3.2,25-18.4,30.2-58.7,20-116.9,17.5-174.9-2.8-13.5-4.7-12.6-15.7-12.9-26.8-.2-11.4,5-16.9,15.6-20.1,19.8-5.9,39.6-8.9,60.1-6.1h0Z"/>
    <path class="cls-13" d="M289,615.9c-122.4-202.6-26.2-474.9,196.2-555.9,7.5-2.7,15.1-5.4,22.6-8.1,6.6,2,12.8.5,19.3-1.1,62.5-15.7,125-16.5,187.6,0,6.4,1.7,12.7,3.2,19.3,1,222.1,72.4,331.2,307.1,241.6,520.7-22.2,53-54.7,99.5-98.1,137.2-31.9,27.8-47.7,61.3-46.3,103.4.4,11.6,0,23.3-.5,34.9-.8,20.9-9.2,36.4-30.6,42.4-4.9-.9-9.8-1.8-14.5.8-3.8,0-7.5,0-11.3,0-4.8-7-2-17.4-10-23.1-5.3-5.4-12.3-9.6-13.7-18.1,1.2-20.8-2.7-42,4.8-62.4,22.7-30.1,42.5-62.2,65-92.4,61-81.8,67.9-172.3,34-266.4-21.9-60.6-64.2-106-116.4-142.7-1.7-17,5.2-36.2-12.5-49.1l.2.3c.3-3.3-1-5.1-4.6-4.6l.2.2c.8-4.3-1.9-6.5-5.1-8.3-19.3-10.5-35.1-3-50.4,23.9-41.2-12.1-83.2-19.1-126.3-15.2-45,4.1-88.7,12.5-125.5,41.5-1.3.2-2.6.6-3.7,1.4-5.9.6-10.3,3.1-12.5,8.9l-.4.3c-1.5,1.2-3,2.3-4.4,3.5l-.5.3c-1.5,1-2.9,2-4.4,2.9l-1,.7c-3.4.4-5.8,1.9-6.9,5.3-1.4.5-2.7,1.1-3.8,2-4.1,0-5.1,3-5.6,6.2-1.2.5-2.4,1.1-3.4,1.9-4.8.4-7.3,3.3-8.4,7.7l-.5.5c-3.8.7-5,3.4-5.3,6.9l-.5.6c-1.3,1.3-2.6,2.6-3.8,3.9-1.5,1.6-3,3.3-4.5,4.9-1.3,1.4-2.6,2.8-3.9,4.2-60.1,77.8-72.1,165.6-54.4,259.7,1.2,6.3,2,12.8,3,19.2h0s0,0,0,0Z"/>
    <path class="cls-1" d="M344.3,332.9c1.5-1.6,3-3.3,4.5-4.9,2.6,0,4-1.2,3.8-3.9,0,0,.5-.6.5-.6,4-.5,5.2-3.3,5.3-6.9,0,0,.5-.5.5-.5,5-.2,7.6-3,8.4-7.7,1-.8,2.2-1.4,3.4-1.9,3.6-.5,5.1-3,5.6-6.2,1.2-.9,2.5-1.5,3.8-2,3.8.2,6.8-.6,6.9-5.3,0,0,1-.7,1-.7,2.6.7,3.9-.5,4.4-2.9,0,0,.5-.3.5-.3,1.5-1.2,3-2.3,4.4-3.5l.4-.3c6.5.4,12.5-.1,12.5-8.9,1.1-.8,2.3-1.2,3.7-1.4,3.5.2,8,1.9,10.4.4,32.5-22,67.1-28.4,104.8-16.3-5.7,16.6-2.5,32.9,1.8,49.2,3.9,14.7,7.3,29.5,10.9,44.3-7.7,1.9-15.4,3.8-23.1,5.8-100.3,26.9-149.6,136.2-103.3,228.8-.2,13.6,11.9,21.5,15.4,33.5-35.2,13.8-48.3,51.9-29,82.6,7.6,12.2,13,25.6,23.4,36.2,9.7,9.9,14.5,22.8,19.5,35.7-7.5,4.9-13.2-2.5-19.5-.7-1-1-1.7-2.1-2.2-3.4-1.3-1.5-2.6-2.9-4-4.4-4.3-3.1-8.6-6.2-13-9.3l.2.2c-1.5-2.2-3.1-4.5-4.6-6.8-17.1-12.6-24.2-36.1-46.5-43.1-1.5-1.4-2.9-2.8-4.4-4.2-1.6-1.3-3.1-2.7-4.7-4-1.4-1.5-2.8-3-4.2-4.5-1.4-1.5-2.7-3-4.1-4.4-13.6-26.7-38.5-46-48.9-74.7-1-6.3-1.8-12.8-3-19.1-17.7-94.1-5.7-181.9,54.4-259.7,2.6-.2,3.9-1.6,3.9-4.2h0s0,0,0,0Z"/>
    <path class="cls-15" d="M733.8,51.8c-6.6,2.2-12.8.7-19.3-1-62.5-16.5-125.1-15.7-187.6,0-6.4,1.6-12.7,3.1-19.3,1.1,75.4-27,150.7-26.4,226.1-.1Z"/>
    <path class="cls-16" d="M764.2,868.2c8,5.7,5.1,16,10,23.1-4.4,1.6-3,6.1-4.6,9.1-9.2-2.5-20.4,1.8-27.6-7.9.6-1.4,1.2-2.8,1.8-4.2,23.5,10.2,19.9-7,20.4-20.1h0Z"/>
    <path class="cls-16" d="M785.5,891.3c4.7-2.6,9.7-1.7,14.5-.8-4.8,2.7-9.6,1.8-14.5.8Z"/>
    <path class="cls-13" d="M423,771c.5,1.3,1.2,2.5,2.2,3.4,21.2,18.6,12.5,45.7,19.7,68.3-.5,1.6-1.1,3.3-1.6,4.9-.7,1.8-1.5,3.6-2.2,5.4-2.8,3.3-5.6,6.6-8.4,9.9-1.5,1.1-3,2.2-4.6,3.3-3.4,2.2-6.9,4.3-10.3,6.5-6.5-11.1-7.2-23.5-6.7-35.8,1-26.7-2.8-53-5-79.5,4.3,3.1,8.6,6.2,13,9.3,1.3,1.5,2.6,2.9,4,4.4h0Z"/>
    <path class="cls-1" d="M432.7,862.8c2.8-3.3,5.6-6.6,8.4-9.9,2.5-1.1,3.5-2.8,2.2-5.4.5-1.6,1.1-3.2,1.6-4.9,17.6,12.1,16.1,31.6,19.3,49.3-19.2,2.5-36.7.8-46.4-19.5,3.4-2.2,6.9-4.3,10.3-6.5,1.5-1.1,3-2.2,4.6-3.3h0Z"/>
    <path class="cls-13" d="M401.8,750.8c1.5,2.2,3,4.5,4.6,6.8-4.5-.2-5.3-3-4.6-6.8Z"/>
    <path class="cls-4" d="M711.5,892.1c-59.6,6.9-119.1,6.7-178.6-.7-3-7.4-4.8-14.9-4.5-23.1,2.5-65-11.9-129.1-10.3-194,7.7-17.9,27.4-26.2,40.8-27.8,22.2-2.6,38.5-14.8,57.8-21.4-.7,9.3-5,16.7-12.2,22.3-6.3,4.8-9.3,11.2-9.4,18.8-.3,19.1-6.5,37.2-10.1,55.7-7.3,37.8-1.6,73.3,14.6,108.2,8.5,18.4,29.8,20.5,39.8,36.1,3.7,5.7,7.2,14.5,16.3,11.6,8.2-2.5,7.9-11.2,9.5-18.2,14.7-64.5,15.8-130.1,10.7-195.5-4-50.7-3-99.8,12.2-148.7,13-41.8,12.1-85.1,9-128.6-3.1,5-4.6,10.4-6.7,15.5-6.6,15.5-8.4,34.4-31.9,36-24.5,1.7-34.7-13.5-43.8-32-5.2-10.5-8.5-22.4-21.4-34.9,0,27.9,6,52.8-1.8,72-7.1,17.5-4.7,30.4-.8,45.6-7.6,11.6,1.7,17,8.5,23.3v-.2c.8,9.4,5.4,16.7,13.1,22v-.2c5.8,15.9,11.8,31.7,17.7,47.6-4.5,21.6-23.4,23.6-39.7,27.6-15.8,4-23.6-7.8-29.9-19.8-14.4-27.6-28.7-55.4-37.2-85.4-6.6-23.2-10-46.9,9.9-66.5l-.3.6c7.2-.2,14.6-1.6,21.6-.5,18.2,2.8,23.1-6,21.7-22.2-1.3-14.5-5.4-28.2-8.7-42.3-9.2-38.4-26.2-74.8-29.1-114.8,16-16.7,31.8-12.9,47.5.5h0c4.5,14.4,8.4,29,13.7,43,12.6,33.5,15.6,70.2,33.9,101.7,1,5.8,1.6,12,10,11.4,8.3,12.2,14.4,2.5,17.8-3.3,4.1-7.3,6.5-16.2,7.2-24.6,3.4-41.7,6.4-83.5,8.9-125.2,2-33.7,11.6-40.4,44-28.9l-.2-.2c.2,2.9,1.7,4.4,4.6,4.6l-.2-.3c7,23.4,4.1,47.3,3.5,71.1-4.2,42.9-9,85.9-6.9,129.1-1.4,28.1-.2,55.8,14.6,81,1.3,8,4,15.2,10.8,20.2.5,2.6,1.7,4.4,4.7,4.3-.3,6.1,3,8.6,8.7,8.8h0c1.6,4,4.8,5,8.8,4.4h0c3.6,10.1,17.2,13.3,17.6,25.7-18.4,20.2-40.9,31.3-68.5,31.4-21.5-5.4-24.5-21.6-23.7-40.2,1.6-2.5,3.3-5.1,4.9-7.6,2.5-2.4,4.9-4.8,7.4-7.2-.6-.4-1.3-1.1-1.9-1-4.1.3-6.2,3-7.6,6.5-4,1.5-6.9,3.8-6.9,8.5-11.3,24.1-6.2,46,10.2,65.3,10,11.8,22.3,21.6,33.5,32.3,3.9,29.8-12.4,56.3-13.5,85.6-1.6,45.6-6.1,91.1-9.4,136.7h0q0,0,0,0ZM562.3,510.1c.3,28.7,14.2,52.2,26.4,76.3,2,4.1,6.8,5.8,11.4,3.9,6.4-2.6,8.7-8.7,7.1-14.4-7.6-26.7-21.5-49.4-44.9-65.9h0ZM715,251.1c-1.2-5.2-3.6-11.2-9.9-11.5-8.5-.5-10.1,6.4-9.5,13.3.5,5.6,1.2,12.6,8.5,12.5,7.6-.1,9.8-6.9,10.9-14.2ZM576.3,273.5c-1.1-6.5-2.9-13.1-11.4-13-5.9,0-9.8,4.1-8.7,10,1.3,7.3,4.4,14.8,13.3,14.7,6.7,0,6.8-6.2,6.8-11.7ZM733.9,575.9c-.8-5.5-4.8-6.9-9.4-6.7-5.7.2-10,3-9.5,9.3.4,5,4.2,7.6,9,7.2,5.8-.4,8.9-4.2,9.8-9.8ZM742.4,551.3c-11.7-19.3-18.2-1.1-28.3,3.5,10.9,1.6,19.6-.5,28.3-3.5Z"/>
    <path class="cls-14" d="M590.7,489c-3.9-15.2-6.3-28.1.8-45.6,7.8-19.2,1.8-44,1.8-72,12.9,12.6,16.2,24.5,21.4,34.9,9.2,18.5,19.3,33.7,43.8,32,23.5-1.6,25.3-20.5,31.9-36,2.2-5.1,3.6-10.5,6.7-15.5,3.1,43.4,4,86.8-9,128.6-15.2,48.9-16.2,98-12.2,148.7,5.2,65.3,4,130.9-10.7,195.5-1.6,7-1.4,15.7-9.5,18.2-9.1,2.8-12.6-5.9-16.3-11.6-10.1-15.6-31.3-17.7-39.8-36.1-16.2-34.9-22-70.4-14.6-108.2,3.6-18.5,9.8-36.6,10.1-55.7.1-7.6,3.1-14,9.4-18.8,7.3-5.6,11.6-13,12.2-22.3,8.9-8.4,18.3-16.6,18-30.4,1.9-23.7-6-43.7-22.5-60.5v.2c0-9.9-3-18.1-13-22v.2c1.8-9.4-6.4-15.3-8.4-23.3h0s0,0,0,0Z"/>
    <path class="cls-12" d="M415.5,587.1c-46.3-92.6,3-201.9,103.3-228.8,7.7-2.1,15.4-3.9,23.1-5.9,4.4,14.4,9.5,28.5,13.1,43.1,8.1,32.6,7.8,32.6-21.3,40.8-.4.1-.6,1.2-.9,1.9l.3-.6c-19.1.6-24.6,15.9-31.2,29.6-3.3,6.8-4.7,14.6-6.9,21.9-8.7-9.1-18.2-15.5-31.5-9.1-2.2,1.7-6.3,2-4.9,6.4l.3-.3c-16.6.9-20,14.2-22.4,26.2-5.9,28.7,1.8,56.1,10.5,83.2-13,6.8-22.5-.2-31.5-8.3h0Z"/>
    <path class="cls-4" d="M463.5,479.9c13.2-6.4,22.8,0,31.5,9.1,0,19.4,10.8,35.2,18.9,51.5,8,16.1,19.4,30.5,27.9,46.5,4.7,8.8,15,21.8,3.6,28.4-12.6,7.3-33.4,17.8-44.2,3.2-26.1-35.4-50.9-72.9-46.7-120.6.4-4.1,2.9-8,4.4-12l-.3.3c3.5-.7,4.5-3.3,4.9-6.4h0ZM487.5,536.5c.6,25.5,13.6,45.8,27.1,65.8,2,3,6.5,2.9,9.9.6,3-2.1,2.3-5.4,1.1-7.9-10.6-20.7-18.4-43.3-38-58.5Z"/>
    <path class="cls-7" d="M734.3,669.7c-11.2-10.7-23.5-20.5-33.5-32.3-16.4-19.2-21.5-41.2-10.2-65.3,0,0,2,.8,2,.8h2.1c-.8,18.5,2.3,34.8,23.7,40.2,17.4,7.5,35.8,9.1,54.4,7.3,11.9-1.1,22.7-5,22.6-20.2h2c0-.1,2,0,2,0,4.1,23.4-2.7,42.8-20.3,59-13.8,12.7-21.5,29-25.1,47.4-4.7,24.3-8.2,48.8-7.2,73.6-4.2,25.5-4,51.2-2.6,77-.2,10.4-.3,20.8-.5,31.2-.6,1.4-1.2,2.8-1.8,4.2-1.3-3.1-2.7-6.1-4-9.2.5-36.3,1-72.5,1.5-108.8,6.2-7.3,3.1-15.6,2.7-23.6-2-19.3,2.3-38.3,3.7-57.4.7-9.8,2.3-20.7-11.5-23.8h0,0Z"/>
    <path class="cls-6" d="M739.6,774.5c-.5,36.3-1,72.5-1.5,108.8-6.5,9.9-16.4,9.7-26.5,8.8,3.3-45.6,7.8-91.1,9.4-136.7,1-29.3,17.3-55.8,13.5-85.6,13.9,3,12.2,13.9,11.5,23.8-1.4,19.1-5.7,38-3.7,57.4-4.6,7.5-3.8,15.5-2.6,23.6h0Z"/>
    <path class="cls-13" d="M492.3,798.5c-17.1-15.8-13-41.6-28.8-58.8-8.9-9.7-13.8-23.4-19-35.9-9.9-23.6-6.3-32.2,19.5-51,2.6.4,5.2.8,7.8,1.2,9.2,14.4,12,30.7,13.8,47.2,3.4,32.3,7.5,64.6,6.8,97.2h0Z"/>
    <path class="cls-6" d="M518.1,674.3c-1.6,64.9,12.7,129,10.3,194-.3,8.2,1.6,15.7,4.5,23.1-11.1.2-12.7-7.3-13.2-15.9-3.2-60.8-6.6-121.7-9.7-182.5-.4-7.1.1-14.7,8.1-18.7h0Z"/>
    <path class="cls-2" d="M471.7,654.1c-2.6-.4-5.2-.8-7.8-1.2-11.1-10.8-22.1-21.6-33.1-32.4-3.4-11.9-15.6-19.9-15.4-33.5,9.1,8.2,18.5,15.1,31.5,8.3,9.1,19.2,18.8,38.1,24.7,58.7h0Z"/>
    <path class="cls-15" d="M612.1,534.1c16.5,16.9,24.4,36.9,22.5,60.5-1.5-4.3-3.1-8.7-4.6-13-6-15.9-11.9-31.7-17.8-47.6h0Z"/>
    <path class="cls-1" d="M746.9,780.1c-1-24.9,2.5-49.3,7.2-73.6,3.5-18.4,11.3-34.7,25.1-47.4,17.6-16.2,24.4-35.6,20.3-59-.7-21.1-7.5-38-30.1-44.1h0c-1-5.3-4-6.6-8.8-4.4h0c1.7-5.6-3.6-7.4-5.9-10.8,3-34.4,0-67.2-24.5-94.5-.5-2.5-.9-5.1-1.4-7.6,1.8-43.8,3.7-87.7,5.5-131.5,1.2-7,2.4-14,3.6-21,52.2,36.7,94.5,82.1,116.4,142.7,33.9,94.1,27,184.6-34,266.4-22.6,30.3-42.4,62.3-65,92.4-9.1,4.4-6.7-3.9-8.4-7.6h0Z"/>
    <path class="cls-16" d="M529.2,259c-37.7-12.1-72.3-5.7-104.8,16.3-2.3,1.6-6.8-.2-10.4-.4,36.8-29,80.5-37.5,125.5-41.6,43.1-3.9,85,3.1,126.3,15.2-3.6,40.6-7.2,81.3-10.8,122-10-3.8-19.9-7.5-29.9-11.3-8.4-27-16.5-54.1-25.3-81-2.5-7.6-2.7-17.7-13.9-19.3h0c-9.5-23.8-32.7-25.3-52.2-3.4-1.5,1.1-2.9,2.2-4.4,3.4h0Z"/>
    <path class="cls-10" d="M655,370.6c3.6-40.7,7.2-81.4,10.8-122,15.3-26.9,31.1-34.4,50.4-23.9,3.2,1.8,5.9,4,5.1,8.3-32.4-11.5-42.1-4.8-44,28.9-2.5,41.8-5.4,83.5-8.9,125.2-.7,8.4-3.1,17.4-7.2,24.6-3.3,5.9-9.5,15.5-17.8,3.3l-.2-.3c15.1-11.7,10.1-28.8,11.7-44.1h0Z"/>
    <path class="cls-1" d="M743.8,888.3c.2-10.4.3-20.8.5-31.2,2.1-2.3,4.2-4.7,6.2-7,1.4,8.5,8.4,12.6,13.7,18.1-.5,13.1,3.1,30.3-20.4,20.1h0Z"/>
    <path class="cls-16" d="M750.5,850.2c-2.1,2.3-4.2,4.7-6.2,7-1.4-25.8-1.7-51.5,2.6-77,1.7,3.8-.7,12.1,8.4,7.7-7.5,20.3-3.6,41.5-4.8,62.4h0Z"/>
    <path class="cls-10" d="M737.9,286.2c-1.2,7-2.4,14-3.6,21-1.8.3-3.6.7-5.4,1,.6-23.8,3.5-47.7-3.5-71.1,17.7,12.9,10.9,32.1,12.5,49.1h0Z"/>
    <path class="cls-16" d="M410.4,276.3c0,8.8-6,9.3-12.5,8.9,2.2-5.8,6.6-8.3,12.5-8.9Z"/>
    <path class="cls-16" d="M367.5,308.4c-.8,4.8-3.4,7.5-8.4,7.7,1.1-4.4,3.6-7.3,8.4-7.7Z"/>
    <path class="cls-16" d="M376.5,300.2c-.5,3.3-2,5.8-5.6,6.2.5-3.3,1.5-6.2,5.6-6.2Z"/>
    <path class="cls-16" d="M358.5,316.6c-.1,3.5-1.3,6.3-5.3,6.9.3-3.5,1.6-6.1,5.3-6.9Z"/>
    <path class="cls-16" d="M387.2,293c0,4.7-3.1,5.5-6.9,5.3,1.1-3.4,3.5-4.9,6.9-5.3Z"/>
    <path class="cls-16" d="M344.3,332.9c0,2.6-1.3,4-3.9,4.2,1.3-1.4,2.6-2.8,3.9-4.2Z"/>
    <path class="cls-16" d="M352.7,324.1c.1,2.7-1.2,3.9-3.8,3.9,1.3-1.3,2.6-2.6,3.8-3.9Z"/>
    <path class="cls-16" d="M392.6,289.3c-.5,2.5-1.8,3.7-4.4,2.9,1.5-1,2.9-2,4.4-2.9Z"/>
    <path class="cls-16" d="M397.5,285.5c-1.5,1.2-3,2.3-4.4,3.5,1.5-1.2,3-2.3,4.4-3.5Z"/>
    <path class="cls-10" d="M725.6,237.4c-2.9-.2-4.4-1.7-4.6-4.6,3.6-.5,4.9,1.3,4.6,4.6Z"/>
    <path class="cls-10" d="M529.2,259c1.5-1.1,2.9-2.2,4.4-3.4,1.6.9,3.1,1.8,4.7,2.8,2.9,40,19.9,76.4,29.1,114.8,3.4,14,7.5,27.8,8.7,42.3,1.4,16.2-3.4,25-21.7,22.2-7-1.1-14.4.3-21.6.5.3-.7.4-1.8.9-1.9,29.1-8.1,29.4-8.2,21.3-40.8-3.6-14.6-8.7-28.8-13.1-43.1-3.6-14.8-7-29.6-10.9-44.3-4.3-16.3-7.4-32.6-1.8-49.2h0s0,0,0,0Z"/>
    <path class="cls-16" d="M423,771c-1.3-1.5-2.6-2.9-4-4.4,1.3,1.5,2.6,2.9,4,4.4Z"/>
    <path class="cls-16" d="M443.2,847.6c1.2,2.6.3,4.3-2.2,5.4.7-1.8,1.5-3.6,2.2-5.4Z"/>
    <path class="cls-16" d="M432.7,862.8c-1.5,1.1-3,2.2-4.6,3.3,1.5-1.1,3-2.2,4.6-3.3Z"/>
    <path class="cls-14" d="M562.3,510.1c23.4,16.5,37.2,39.2,44.9,65.9,1.6,5.7-.7,11.8-7.1,14.4-4.6,1.8-9.3.1-11.4-3.9-12.2-24.1-26-47.7-26.4-76.4h0Z"/>
    <path class="cls-6" d="M795.4,600.2c0,15.2-10.7,19.1-22.6,20.2-18.6,1.8-37,.2-54.4-7.3,27.6-.2,50.1-11.2,68.5-31.4,2.8,6.2,5.7,12.3,8.5,18.5h0Z"/>
    <path class="cls-15" d="M728.9,308.2c1.8-.3,3.6-.7,5.4-1-1.8,43.8-3.7,87.7-5.5,131.5-2.3-.5-4.6-.9-6.8-1.4-2-43.3,2.8-86.2,6.9-129.1h0Z"/>
    <path class="cls-15" d="M585.8,259c11.2,1.6,11.4,11.7,13.9,19.3,8.8,26.9,16.9,54,25.3,81,0,15,7.4,27.9,11.5,41.8-1,.8-2.1,1.7-3.1,2.5-18.3-31.6-21.3-68.2-33.9-101.7-5.3-14-9.2-28.6-13.7-42.9h0Z"/>
    <path class="cls-3" d="M722,437.4c2.3.5,4.6.9,6.8,1.4.5,2.5.9,5.1,1.4,7.6-2,24,4.3,47,9,70.1-.9.7-1.8,1.3-2.7,1.9-14.8-25.2-16-52.9-14.6-81h0Z"/>
    <path class="cls-14" d="M715,251.1c-1.1,7.4-3.2,14.1-10.9,14.2-7.3.1-8.1-6.9-8.5-12.5-.6-6.8,1-13.8,9.5-13.3,6.3.4,8.8,6.3,9.9,11.5Z"/>
    <path class="cls-14" d="M576.3,273.5c0,5.5-.1,11.7-6.8,11.7-8.9,0-12-7.4-13.3-14.7-1.1-5.9,2.8-10,8.7-10,8.5-.1,10.3,6.5,11.4,13Z"/>
    <path class="cls-15" d="M538.2,258.4c-1.6-.9-3.1-1.9-4.7-2.8,19.5-21.9,42.7-20.4,52.2,3.3-15.7-13.5-31.5-17.3-47.5-.5h0Z"/>
    <path class="cls-15" d="M795.4,600.2c-2.8-6.2-5.7-12.3-8.5-18.5-.3-12.3-14-15.5-17.6-25.7,22.6,6.1,29.4,23,30.1,44.1h-2s-2,0-2,0h0Z"/>
    <path class="cls-14" d="M733.9,576c-1,5.6-4,9.4-9.8,9.8-4.9.4-8.6-2.3-9-7.2-.5-6.3,3.8-9,9.5-9.3,4.6-.2,8.6,1.2,9.4,6.7Z"/>
    <path class="cls-15" d="M742.4,551.3c-8.7,3-17.4,5.1-28.3,3.5,10-4.6,16.6-22.8,28.3-3.5Z"/>
    <path class="cls-15" d="M590.7,489c2,8.1,10.1,13.9,8.5,23.3-6.7-6.4-16.1-11.8-8.5-23.3Z"/>
    <path class="cls-15" d="M599,512.2c10,4,13.1,12.1,13.2,22-7.7-5.4-12.3-12.6-13.2-22Z"/>
    <path class="cls-3" d="M747.3,538.5c-6.8-5-9.5-12.3-10.8-20.2.9-.6,1.8-1.2,2.7-1.9,3.7,7,7.4,14,11.1,21-1,.5-2,.9-3.1,1.1Z"/>
    <path class="cls-15" d="M643.4,415c-8.4.6-9-5.6-10-11.4,1-.9,2-1.7,3.1-2.5,2.2,4.5,4.5,9.1,6.7,13.6l.2.3h0Z"/>
    <path class="cls-15" d="M694.7,572.9h-2.1s-2-.7-2-.8c0-4.7,2.9-7,6.9-8.5.7.5,1.4,1.1,2.1,1.6-1.6,2.5-3.3,5.1-4.9,7.6h0Z"/>
    <path class="cls-15" d="M754.7,540.9c2.3,3.4,7.6,5.2,5.9,10.8-5.6-.3-9-2.7-8.7-8.8l1.3-1.5,1.5-.5h0Z"/>
    <path class="cls-15" d="M697.5,563.7c1.4-3.5,3.5-6.2,7.6-6.5.6,0,1.2.7,1.9,1-2.5,2.4-4.9,4.8-7.4,7.2-.7-.6-1.4-1.1-2.1-1.6Z"/>
    <path class="cls-15" d="M760.6,551.6c4.8-2.2,7.8-.9,8.8,4.4-4,.6-7.2-.3-8.8-4.4Z"/>
    <path class="cls-15" d="M747.3,538.5c1.1-.2,2.1-.6,3.1-1.1,1,1.3,1.9,2.6,2.9,3.9,0,0-1.3,1.5-1.3,1.5-3,.1-4.2-1.7-4.7-4.3h0Z"/>
    <path class="cls-10" d="M463.5,479.9c-.4,3.1-1.4,5.8-4.9,6.4-1.4-4.5,2.7-4.7,4.9-6.4Z"/>
    <path class="cls-14" d="M487.5,536.5c19.6,15.2,27.4,37.8,38,58.5,1.3,2.5,1.9,5.8-1.1,7.9-3.3,2.3-7.8,2.4-9.9-.6-13.5-20-26.5-40.3-27.1-65.8Z"/>
    <path class="cls-10" d="M739.6,774.5c-1.2-8.1-1.9-16.1,2.6-23.6.5,8,3.5,16.3-2.6,23.6Z"/>
    <path class="cls-14" d="M753.3,541.3c-1-1.3-1.9-2.6-2.9-3.9-3.7-7-7.4-14-11.1-21-4.7-23.2-11-46.1-9-70.1,24.5,27.3,27.6,60.1,24.5,94.6l-1.5.5h0Z"/>
    <path class="cls-12" d="M643.2,414.7c-2.2-4.5-4.5-9.1-6.7-13.6-4.1-13.9-11.4-26.8-11.5-41.8,10,3.8,19.9,7.5,29.9,11.3-1.6,15.3,3.4,32.4-11.7,44.1h0Z"/>
  </g>
  <g id="Layer_3" data-name="Layer 3">
    <path class="cls-3" d="M960.8,139.1c.3,134.5.5,268.9,1.2,403.4,0,8.1-4.6,17.8,4.5,24.6-4.6,8.4-9.2,16.8-14,25.4-7.8-5.7-2.8-15.1-10.3-18.4-6.4-5.6-14.6-9.7-20.4-1.8-6.2,8.4,3.8,11.7,8.7,16.2,0,1.1-.3,2.1-1.1,2.9-15.3-.2-18.6-9.3-16.4-22.3.5-2.9,1.2-5.8,1.7-8.7,5.4-30.3,5.4-30.6-26.3-30.7-14.8,0-29.6.9-44.4,1.4-4.5-5.6-11.5-4.6-17.4-6.4,23.9-7.9,48.4-3.1,72.6-3.6,16.6-.4,30,3.6,26.7,25.1-.7,4.3-.7,9.8,5.5,10,5.9.3,6.8-4.9,6.9-9.4.1-16.3,0-32.6,0-48.9,13-1.1,9.8-11.5,9.8-18.8,0-110.5-.3-221-.6-331.5-.2-3.4.3-7.1-3.8-8.9l.3-.3c-8.2-49.6-53.8-84.6-111-84.6-153.4-.2-306.8-.2-460.2-.3-29.7-11.5-54.5,3.8-80,14.6-1.1-1.3-2.3-2.5-3.4-3.8,13.8-11.5,30.3-16.8,47.5-20.6,7.5-.4,15-.8,22.4-1.1,64.4,0,128.8,0,193.3,0,3.9,1.7,7.8,1.7,11.5-.5,1,.7,1.9.6,2.7-.3,4.3-.3,8.5-.5,12.8-.8,29.7,4.8,59.6,1.9,89.4,2.2,52.4.6,104.8,2,157.1-.3,60.1-2.7,102.1,21.7,128.5,74.8,2.2,7.1,4.3,14.2,6.4,21.4h0s0,0,0,0Z"/>
    <path class="cls-3" d="M966.4,1036.6c-9.3,9.2-4.5,20.8-4.2,31,.9,31.3-5.9,60.1-23.7,86.1-9,9.1-18.1,18.1-27.1,27.2-16,7.5-31.3,17.1-49.7,17.8-2.8-.9-5.5-2.6-8.2-2.6-161.8,0-323.7.3-485.5.6-22.7-7.3-48.3-10.1-58.4-37.2,26.8,16,53.9,29.9,86.7,29.8,144.5-.4,289,.4,433.4-.5,38.7-.2,73.6-12.6,96.2-47.6,5-3,7.8-7.7,9.2-13.2,8.8-11.6,14.2-24.1,12.1-39.1-.4-17.6-.8-35.1-1.3-52.7,4.1-7-1.7-19,11.1-21.5-3.2,10,8.4,13.7,9.4,21.9h0Z"/>
    <path class="cls-10" d="M372.7,53.5c153.4,0,306.8,0,460.2.3,57.3,0,102.9,35.1,111,84.6h-4c-14.8-43.8-44.2-70.5-90.5-77.2-6.4-5.7-14.2-3.6-21.5-3.6-143-.1-286.1-.1-429.2,0-7.3,0-15.1-1.8-21.6,3.6-7.9,1.9-16.1,3-23.7,5.9-37.8,14.3-63.9,49.4-62.1,82.8.5,2.1.9,4.1,1.4,6.1-13.6.3-27.3.6-41,.9-4.4-1.7-10.3,1.3-13.4-4.3.3-4.4.7-8.7,1-13.1,2-7.3,4.1-14.7,6.1-22l1.8-.9c2.8,0,5.5-.2,8.3-.2,11.7,1.9,25.6,15.6,34.5-.9,18.4-33.9,45.9-53.8,82.8-62h0s0,0,0,0ZM277.2,146.2c7-3.5,4.8-9.2,4.1-14.7-6.9,3.3-7.7,8.2-4.1,14.7Z"/>
    <path class="cls-7" d="M309.5,1159.4c10.1,27.1,35.7,29.9,58.4,37.2v1.9c-2.9.6-5.9,1.3-8.9,1.9-28.1.9-52.8-9.5-76.4-23.4-7.3-7.8-14.5-15.7-21.8-23.6-8.5-15.6-18.7-30.6-19.5-49.2,1.5-2.7,1.8-5.2-1.5-6.9-1-6.3-2.1-12.5-3.1-18.8,2.1-3.3,5.3-3.7,8.7-3.5,5.8,4.4,12.8,3.4,19.3,4.7,2.7,1,5.5,2,8.2,3,.2,5.9-.9,12.3.9,17.7,7.4,22.1,8.3,48.4,35.5,58.6v.5h0,0Z"/>
    <path class="cls-10" d="M368.1,1198.5v-1.9c161.7-.2,323.5-.5,485.4-.6,2.8,0,5.5,1.7,8.2,2.6-2.7.4-5.3.9-8,1.3-153.7-.2-307.4-.5-461.1-.8-8.2,0-16.4-.5-24.6-.8h0Z"/>
    <path class="cls-8" d="M359.1,42.7c-7.5.4-15,.8-22.4,1.1,7.2-5.4,14.7-5.4,22.4-1.1Z"/>
    <path class="cls-8" d="M563.9,42.2c-3.7,2.2-7.6,2.2-11.5.5,3.7-3.1,7.6-2.7,11.5-.5Z"/>
    <path class="cls-7" d="M929.4,591.3c.8-.8,1.1-1.8,1.1-2.9,13.4,2.9,9.2-8.5,11.7-14.4,7.5,3.3,2.5,12.8,10.3,18.4,4.7-8.6,9.3-17,14-25.4l.6-1c2.6-.7,3.6-2.3,3.1-4.9,12.7-9,27-3.1,40.5-4.1.2,1.4.4,2.8.8,4.2-7.7-1.5-10.1,4-13.2,9.3-14.9,24.9-35.6,32.4-62.3,22.3-2.1-.8-4.3-1-6.5-1.5h0Z"/>
    <path class="cls-3" d="M1016.3,560.2c17.8,8.2,32.8,20.2,46.5,33.9-1,1.2-2,2.3-2.9,3.5-15.3-11.5-30.6-22.9-45.9-34.4.7-1,1.5-2,2.3-3Z"/>
    <path class="cls-3" d="M1011.5,561.3c-.4-1.4-.6-2.8-.8-4.2,2.8-.7,4.5.7,5.6,3.1-.8,1-1.6,2-2.3,3-1.2-.2-2-.8-2.5-1.9h0Z"/>
    <path class="cls-3" d="M970.2,561.2c.4,2.6-.5,4.3-3.1,4.9,1-1.7,2.1-3.3,3.1-4.9Z"/>
    <path class="cls-7" d="M966.4,1036.6c-1-8.2-12.5-11.9-9.4-21.9,0-3.9,0-7.7.1-11.6,15.8-7.6,28.2-1.1,37.3,19.3,2.6,7.3,5.2,14.6,8.2,22.9-9.8.6-19,1.2-28.2,1.8-5.1-1.7-5.7-6.8-8.1-10.5Z"/>
    <path class="cls-3" d="M974.5,1047.1c9.2-.6,18.3-1.2,28.2-1.8-3-8.3-5.6-15.6-8.2-22.9,7.4,6.1,13.6,19,25.2,10,15.7-12.2,40.4-16.9,40.1-43.9.8-1.3,1.5-2.7,2.2-4,12.1,8.5,12.4,17.3.6,26.4-24.2,18.5-44.9,44.2-80.5,39.4-2.7-.4-5.2-2-7.7-3.1h0Z"/>
    <path class="cls-4" d="M1055.5,984c1.5,1.5,2.9,3,4.4,4.6.2,27-24.4,31.7-40.1,43.9-11.6,9-17.8-3.8-25.2-10-9.1-20.5-21.6-26.9-37.4-19.3-10.1,2.5-20.1,5.2-30.2,7.4-12,2.6-14.8,9.8-13.4,21.4,5.2,42.7,5,42.7-38.8,42-4.5,0-9-.4-13.4-.2-13.9.6-17.7-5.6-15.8-19.3,5.3-38.2,4.8-38.2-30.2-50.3-4.2-1.5-8.5-2.7-12.6-4.5-14.9-6.8-24.5-3.5-27.3,13.7-14,20.7-31.6,22.9-52.6,6.7-5.9-4.6-11.5-9.6-17.3-14.2-7-5.5-9.1-10.3-1.9-18.1,10-10.8,28.2-19.7,26.8-33.7-1.3-13-15.4-24.6-23.9-36.8-1.7-2.5-3.4-5-4.7-7.6-5.2-10.3-11.9-10.6-22-5.8-39.5,18.8-39.7,18.4-52.5-24.3-1.5-5-1.6-10.6-3.9-15.1-8.6-17.3,1.1-21.3,15.7-24.3,34.2-7.1,34.1-7.5,34.2-41.9,0-3-.5-6.1,0-9,4.2-20.2-5.2-27.1-24.5-29.5-31.7-3.9-31.7-5.1-22.8-35.5,2.9-10,6.9-19.7,10.1-29.7,2.5-7.8,6.9-13.1,15.8-13,2.7,6.1,9.4,6.8,14.1,10.2,17,12.8,30.5,13.2,40.5-8.9,6.3-14,26.4-24.7,23.2-38.7-3.3-14.1-19.6-25.1-30.2-37.5,16-19.9,33.2-38.3,60.3-42.6,1.8,2.2,3.5,4.5,5.3,6.7,1,9,5.9,15.9,12,22.1-.3,7.2,2,12.5,10.1,13.4,21-.3,39.7-8.3,57.9-17.8,1.1-1.6,2.1-3.3,3.2-4.9,3.4-17.8-4.3-34.8-4.3-52.3,14.8-.5,29.6-1.5,44.4-1.5,31.7.2,31.7.4,26.3,30.7-.5,2.9-1.2,5.8-1.7,8.7-2.2,13,1.1,22.1,16.4,22.3,2.2.5,4.4.8,6.5,1.5,26.7,10,47.4,2.6,62.3-22.3,3.1-5.2,5.6-10.8,13.2-9.3.5,1.1,1.4,1.7,2.5,1.9,15.3,11.5,30.6,23,45.9,34.4,6.8,18.9-13.4,22-19.6,33.4-4.3,8.1-18.7,14.6-2.9,24.9,1.6,5.1,3,10.3,10.3,8.3h-.6c4.7,15.5,8.3,31.8,27.1,36.8,14.9,2.2,23.2-8,32.2-17,9.7-3.1,15.8.6,19.1,9.9,2,5.6,4,11.2,5.9,16.9,12.9,37.9,13.1,38.5-24.9,47.6-14.6,3.5-20.3,10.6-18.2,25,.6,3.7.3,7.5.4,11.2.4,26.6,13.6,43.7,39.5,51.3,7.1,2.1,15.3,3.5,11.8,14.6-4.7,14.9-8.8,30-13.9,44.8-2.7,7.8-8.8,11.8-17.5,10.9-7.1-3.9-14.4-7.5-21.1-11.8-11.6-7.4-20.5-6-26.9,6.7-7.4,9.9-14.1,20.6-22.4,29.7-11.4,12.3-10.2,21.5,4.1,29.4,3.1,5.9,7.1,10.8,13.3,13.7h0ZM980.3,695.2c-2.6-2-5.2-3.9-7.7-5.9-13.2-15.7-31.1-23.3-50.3-28.4-67-18.5-130.6,8.2-164,69-32.9,59.8-20.8,134.8,29.2,181.1,49.1,45.5,118.5,49.3,177.8,9.7,7.8-4.2,14.2-10,19.6-17,57.5-56,57.5-146.8,0-204.1-1.5-1.5-3-3-4.6-4.4h0Z"/>
    <path class="cls-6" d="M759.8,563.8c-27.1,4.3-44.2,22.7-60.3,42.6,1.3-12.3-12.5-13.5-16.3-22.1,3.6-4.1,7.2-8.3,13.2-15.1-36,0-68.7.2-101.4,0-73.1-.4-146.1-1-219.2-1.5h340.5c0-2.4,0-4.7,0-7.1-91.3,0-182.5,0-273.8,0-24.9,0-49.8.6-74.7.9h0c0-21.1.1-42.2.2-63.2,0-1.6-.1-3.1-.2-4.7h0c7,1.4,7.1-6.6,11.6-8.6,10.6,6.2,18.2-4.3,27.7-5,67-4.2,133.9-10.8,201-13.1,92.7-3.2,185.5-3.4,278.3-5,5.1,0,10.6,1.4,14.8-3.2,15.2,3.6,22.1,16.6,31.2,27.2.7,4,1.6,7.8,5.5,9.9l.2,2.1c0,16.3.2,32.6,0,48.9,0,4.5-1,9.6-6.9,9.4-6.2-.3-6.1-5.8-5.5-10,3.3-21.5-10.1-25.5-26.7-25.1-24.2.5-48.8-4.3-72.6,3.6-9.6.2-20,1.3-16.3,14.4,6.5,23.2-7.8,20.6-22.7,22.3-9.2,1-19.7-9-27.8,2.4h0s0,0,0,0Z"/>
    <path class="cls-15" d="M932.5,485.9c-9.1-10.6-16.1-23.6-31.2-27.2-4.9-1.9-9.8-3.7-14.7-5.6-25.3-8.2-51.5-1.5-77.1-4-12.9-1.3-26.9,4.4-38.7-5.4.2-51.2.3-102.5.8-153.7,0-8-1.5-14.6-8-19.6.4-2,.8-4,1.3-6.1,13.3-39.1,4.7-74.6-23.5-96.6-2.8-1.2-5.5-2.4-8.3-3.6v-.5c-10-6.1-21.1-6.9-32.4-6.9-31.4,0-62.8.2-94.2.1-104.6-.3-209.3-.7-313.9-1-.5-2.1-.9-4.1-1.4-6.1,140.7-.3,281.3-1.2,422-.5,34.8.2,63.5,32.9,64.3,68.7,1,42.5,1,84.9,1.3,127.4.2,26.9.6,53.9-.2,80.8-.4,13.5,4.1,18.5,17.9,18.1,26.2-.9,52.4-.1,78.6-.2,19.8,0,36.2,7.5,50.6,20.7,4.5,4.2,7.4,13.9,14.9,10.4,6.8-3.1,3.4-12.2,3.4-18.5.2-90.6,0-181.1.3-271.6,0-15.7-.7-31.3-4.4-46.6h4l-.3.2,3.8,8.9c.3,110.5.6,221,.6,331.5,0,7.2,3.1,17.7-9.8,18.8,0,0-.2-2.1-.2-2.1.3-4.5-.5-8.4-5.5-9.9h0s0,0,0,0Z"/>
    <path class="cls-6" d="M284.7,73.5c2.7-1.8,5.3-3.6,8-5.4,25.6-10.9,50.3-26.2,80-14.6-36.9,8.2-64.4,28.2-82.8,62-8.9,16.5-22.8,2.8-34.5.9,3.4-18.6,20.5-28,29.3-42.9h0Z"/>
    <path class="cls-7" d="M759.8,563.8c8.1-11.4,18.6-1.4,27.8-2.4,14.9-1.7,29.2.9,22.7-22.3-3.7-13.1,6.7-14.2,16.3-14.4,5.9,1.8,12.9.8,17.4,6.4,0,17.6,7.7,34.5,4.3,52.4-10.7-.3-21.5-.5-32.2-.8-7.2-23.1-27-13.2-41.9-16-4.2-1.3-6.5,1.6-9,4-1.8-2.2-3.5-4.5-5.3-6.7h0Z"/>
    <path class="cls-12" d="M942.2,574.1c-2.5,5.9,1.7,17.3-11.7,14.4-4.9-4.5-14.9-7.8-8.7-16.2,5.9-7.9,14-3.8,20.4,1.8h0Z"/>
    <path class="cls-10" d="M947.4,147.5l-3.8-8.9c4.1,1.8,3.6,5.5,3.8,8.9Z"/>
    <path class="cls-10" d="M925.8,1141.2c-22.6,35-57.5,47.3-96.2,47.6-144.5.9-289,0-433.4.5-32.8,0-59.9-13.8-86.7-29.8v-.5c-13.8-25.5-30-50.2-27.8-81.2,4.3,0,8.6,0,13,0-1.4,3-2.8,6-4.1,9,0,3.3.2,6.7.2,10,6,41.2,39.4,73.2,84.2,80.5,8.1,5.6,17.4,3.6,26.2,3.6,140,0,280-.8,419.9-.2,40.5.2,75.2-10.4,101.9-41.9.9.8,1.8,1.7,2.8,2.6h0Z"/>
    <path class="cls-10" d="M775.4,1013.2c2.8-17.2,12.4-20.4,27.3-13.7,4,1.8,8.4,3.1,12.6,4.5,35,12,35.5,12.1,30.2,50.3-1.9,13.7,1.8,19.8,15.8,19.3,4.5-.2,8.9.2,13.4.2,43.8.8,44,.7,38.8-42-1.4-11.5,1.5-18.8,13.4-21.4,10.1-2.2,20.2-4.9,30.2-7.4,0,3.9,0,7.7-.1,11.6-12.8,2.5-7,14.6-11.1,21.5-2-1.9-5.2-3.6-5.8-5.9-1.4-5.4,4.2-14.8-8.1-13.3-9.6,1.2-11.8,7.7-10.5,16.1,1,6.5,2.2,13,4,19.3,4,14.1,1.1,24.5-13.8,29.6-26.7,0-53.4.1-80-.4-8.6-.2-18.2,1-24.2-8,.1-5.6.2-11.1.3-16.7,1.8-7.1,4.4-14.2,5.2-21.4.6-6.1,2.5-14.2-7.2-16-9.3-1.7-18.8-2.8-28.2-4.1-.7-.8-1.4-1.5-2.1-2.2h0Z"/>
    <path class="cls-13" d="M911.6,1082c14.9-5,17.8-15.5,13.8-29.6-1.8-6.3-3-12.8-4-19.3-1.3-8.3,1-14.9,10.5-16.1,12.4-1.5,6.7,7.9,8.1,13.3.6,2.3,3.8,3.9,5.8,5.9.4,17.6.8,35.2,1.3,52.7-2.7,4.1-5.3,8.2-8,12.3-4.4-12.9-16.8-14-27-18.5l-.6-.8h0Z"/>
    <path class="cls-10" d="M939.2,1101.3c2.7-4.1,5.3-8.2,8-12.4,2.1,14.9-3.4,27.5-12.1,39.1-1.2-1.1-2.4-2.2-3.6-3.2,2.6-7.8,5.1-15.6,7.7-23.5h0Z"/>
    <path class="cls-10" d="M935.1,1128c-1.4,5.6-4.2,10.2-9.2,13.2-.9-.8-1.8-1.7-2.8-2.6,2.8-4.6,5.6-9.3,8.4-13.9,1.2,1.1,2.4,2.2,3.6,3.2h0Z"/>
    <path class="cls-1" d="M939.9,138.4c3.7,15.3,4.5,30.9,4.4,46.7-.2,90.6,0,181.1-.3,271.6,0,6.4,3.4,15.4-3.4,18.5-7.5,3.5-10.3-6.2-14.9-10.4-14.4-13.2-30.8-20.8-50.6-20.7-26.2.1-52.4-.6-78.6.2-13.8.5-18.3-4.6-17.9-18.1.8-26.9.4-53.9.2-80.8-.3-42.5-.3-84.9-1.3-127.4-.8-35.8-29.5-68.6-64.3-68.7-140.7-.8-281.3.2-422,.5-1.8-33.3,24.3-68.5,62.1-82.8,7.6-2.9,15.8-4,23.7-5.9,157.4,0,314.8,0,472.3,0,46.4,6.8,75.8,33.5,90.5,77.3h0Z"/>
    <path class="cls-9" d="M292.6,155.9c104.6.3,209.3.7,313.9,1,31.4,0,62.8,0,94.2-.1,11.3,0,22.4.8,32.4,6.9-34.2,2-68.4,6.1-102.6,5.5-135.1-2.3-269.7,4.8-404,18.1-4.8.5-8.9-.4-11.1-5.4,8.1-14.1,23.3-17.9,36.2-25.1,13.7-.3,27.3-.6,41-.9h0Z"/>
    <path class="cls-15" d="M849.4,61.1c-157.4,0-314.8,0-472.3,0,6.5-5.4,14.3-3.6,21.6-3.6,143-.1,286.1-.1,429.2,0,7.3,0,15.1-2,21.5,3.6h0Z"/>
    <path class="cls-5" d="M275,1077.2c-9.4-1.2-18.8-2.5-28.2-3.7-32.3-13.3-45.5-37.5-45.5-72.2.4-232.6.1-465.1,0-697.7,0-20.8,9.8-32.2,29.4-34.2,17.9.2,35.8.6,53.7.6,159.7.1,319.4.2,479.1.3,6.5,5,8,11.6,8,19.6-.5,51.2-.6,102.5-.8,153.7-10.5.2-20.9.7-31.4.7-100.3.1-200.7,0-301,.3-17.9,0-36,.7-48.1,17.4h0c-13.7,6-20.7,16.9-22.5,31.5h0c-3.2.7-3.8,2.9-3.3,5.8,0,20.8-6.8,41.9,3.4,62.1h0c-5.7,7.6-6,16.4-6,25.5,0,138.8.2,277.6-.3,416.4-.1,26.2,7.5,48.2,26.9,66-8.3,7.2-18.4,4-27.8,4.7-21.3,1.6-42.9-3.3-64,2.7-1-.4-1.6-.1-2,.8-4.3,0-8.6,0-13,0-2.2-.2-4.5-.4-6.7-.6h0Z"/>
    <path class="cls-10" d="M763.6,270.4c-159.7,0-319.4-.2-479.1-.3-17.9,0-35.8-.4-53.7-.6-6.9-.3-13.8-.6-20.6-.9-1.3-1.7-2.7-3.4-4-5,186.2.3,372.4.5,558.6.8-.4,2-.8,4-1.3,6.1h0Z"/>
    <path class="cls-6" d="M764.9,264.3c-186.2-.3-372.4-.5-558.7-.8-6.4-28.3-11.4-56.4,9.2-81.6,2.2,4.9,6.2,5.8,11.1,5.4,134.4-13.3,269-20.4,404-18.1,34.1.6,68.4-3.5,102.6-5.5,0,0,0,.5,0,.5,1.4,4.4,4.2,5.5,8.3,3.6,28.1,22,36.7,57.5,23.5,96.6h0ZM724.8,225.6c13.5-11.5,10.7-22.6-.9-33.5-4-10-14.1-14.4-21.7-11.1-18.2,7.8-34.4,12.2-52.7-.1-5.8-3.9-15.9.8-20.2,6.1-8.1,10.3-15.3,6.1-23.4,1.7h0c-13.9-15.2-27-8.6-38.2,2.8-11,11.2-10.2,24.6-.2,36.3,11.5,13.3,27.9,15.8,39.6,4.5,10.9-10.5,14.2-5.6,23.4.7,22.6,15.4,49.4-16.7,73.2,4.7,3.7,3.4,13-.4,17.1-7,1.2-1.7,2.5-3.4,3.7-5.1h0Z"/>
    <path class="cls-10" d="M652.1,681.2c-8.9,0-13.3,5.2-15.8,13-3.2,9.9-7.2,19.7-10.1,29.7-8.8,30.4-8.8,31.5,22.8,35.5,19.3,2.4,28.7,9.3,24.5,29.5-.6,2.9,0,6,0,9,0,34.4,0,34.8-34.2,41.9-14.5,3-24.2,7-15.7,24.3,2.3,4.6,2.4,10.1,3.9,15.1,12.8,42.8,12.9,43.1,52.5,24.3,10-4.8,16.8-4.5,22,5.8,1.3,2.7,3,5.2,4.7,7.6,8.4,12.2,22.5,23.9,23.9,36.8,1.5,14-16.8,23-26.8,33.7-7.2,7.8-5.1,12.7,1.9,18.1,5.9,4.6,11.4,9.6,17.3,14.2,21,16.3,38.6,14,52.6-6.7.7.7,1.4,1.5,2.1,2.2-2.4,7.5-4.8,14.9-7.1,22.3-6,14.7-19,13.3-31.3,13.7-24.4-2.1-39.1-22.1-59.2-32.1-3.1-3.4-4.4-9-10.6-8.4-2-3-3.9-6.1-5.8-9.1,1.9-16.2,17.2-23.1,24.5-35.6,9.7-5.4,10.7-12.5,2.2-19.2-10.1-8-10.4-30.7-29.3-24-13.1,4.7-25.8,5.5-38.9,7-9.8.5-14.1-5.5-16.9-13.8-4.5-13-9.3-25.8-13.9-38.8-1.5-14.1-11.4-30.6,10.8-38,8.4,1.6,16-2.4,23.9-3.4,8.6-1,15.1-2.5,11.2-13.4,0-5.6-.1-11.2-.2-16.9,2.7-24.4-7.3-37.9-30.1-40.6-1.8-.2-3.7-.3-5.5-.5-2.8-.4-5.6-.8-8.4-1.1-9.4-3.9-12.6-12.8-8-19.9,8.5-13,9.5-28.1,14.9-41.8,11.1-28.1,21.3-32.6,52.2-20.2v-.5c.1,0,.1,0,.1,0h0Z"/>
    <path class="cls-10" d="M965.3,920.7c-59.3,39.6-128.7,35.8-177.8-9.7-50-46.3-62.1-121.3-29.2-181.1,33.4-60.8,97-87.6,164-69-4.2,4.5-10.2,2.6-15.2,4.1-39.5-4.5-76.1,2.2-106.8,29.3-51.3,45.2-60.8,125.5-21.9,183.9,39.2,58.7,110.6,74.7,178.5,40,2.8.9,5.7,1.7,8.5,2.6h0Z"/>
    <path class="cls-10" d="M683.3,584.3c3.7,8.6,17.6,9.8,16.3,22.1,10.6,12.4,26.9,23.4,30.2,37.5,3.2,14-16.8,24.7-23.2,38.7-10,22.1-23.4,21.7-40.5,8.9-4.6-3.5-11.3-4.1-14.1-10.2,0,0-.1.5-.1.5,12.3,4.1,23.3,5,27-11.4,23.3-18.1,10.5-32.5-4.8-46.7-20-18.4-3.9-28.5,9.1-39.2h0Z"/>
    <path class="cls-15" d="M984.8,699.6c57.5,57.2,57.5,148.1,0,204.1-1.7-1.7-3.4-3.4-5.1-5,52.9-64.7,53-127.9.4-195,1.5-1.3,3.1-2.7,4.6-4.1h0Z"/>
    <path class="cls-6" d="M845.1,588.3c-18.2,9.5-36.8,17.5-57.9,17.8,0-6.4,5.9-8,9.3-11.7,16.2-2,32.4-4,48.5-6.1Z"/>
    <path class="cls-15" d="M907.1,665c5-1.6,11,.4,15.2-4.1,19.2,5.2,37,12.8,50.3,28.4-1.1,1.3-2.3,2.5-3.4,3.8-19-13-40.2-21.3-62.1-28.1h0Z"/>
    <path class="cls-3" d="M845.1,588.3c-16.2,2-32.4,4-48.5,6.1-1.1-1.3-2.2-2.7-3.3-4,7.6-2.6,15.2-5.2,22.8-7.8,10.8.3,21.5.5,32.2.8-1.1,1.6-2.1,3.3-3.2,4.9h0Z"/>
    <path class="cls-15" d="M965.3,920.7c-2.8-.9-5.7-1.7-8.5-2.6,7.7-6.5,15.3-13,23-19.5,1.7,1.7,3.4,3.4,5.1,5-5.4,7-11.8,12.8-19.6,17h0Z"/>
    <path class="cls-3" d="M765.1,570.5c2.5-2.5,4.8-5.3,9-4-4.5,9.3,4.6,15.5,5.5,23.6-.8.9-1.7,1.7-2.6,2.6-6.1-6.2-11-13.1-12-22.1Z"/>
    <path class="cls-3" d="M796.6,594.3c-3.4,3.7-9.4,5.3-9.3,11.7-8.1-.9-10.3-6.2-10.1-13.4.8-.9,1.7-1.7,2.6-2.6,4.5,2.8,9,1.3,13.5.3,1.1,1.3,2.2,2.7,3.3,4h0Z"/>
    <path class="cls-15" d="M972.5,689.3c2.6,2,5.2,3.9,7.7,5.9-1.3,1.5-2.7,3.1-4,4.6-2.4-2.2-4.8-4.5-7.1-6.7,1.1-1.3,2.3-2.5,3.4-3.8h0Z"/>
    <path class="cls-15" d="M980.3,695.2c1.5,1.5,3,3,4.6,4.4-1.5,1.3-3.1,2.7-4.6,4.1-1.3-1.3-2.6-2.6-4-3.9,1.3-1.5,2.7-3.1,4-4.6Z"/>
    <path class="cls-5" d="M683.3,584.3c-13,10.8-29.2,20.8-9.1,39.2-8.8,16.6-7,32.2,4.8,46.7-3.7,16.4-14.6,15.5-27,11.4-30.9-12.4-41.1-7.9-52.2,20.2-5.4,13.7-6.5,28.8-14.9,41.8-4.6,7.1-1.4,15.9,8,19.9,1.2,2.9,2.4,5.8,3.7,8.7-.2,3-.4,6-.6,9-13,6.9-6.6,17.5-5.3,27.3,1.5,11.2,12.6,18.8,11.3,31-22.2,7.4-12.3,23.9-10.8,38-8.5,24.7-5.4,50.6-1.2,74.7,6.8,39.2,42.9,41.9,73.5,49.6,2,3,3.9,6.1,5.8,9.1-1.4,9.5-3.6,19-4.1,28.5-1.7,29.9-1.5,30-32.2,30-75.2,0-150.4,0-225.6,0-28.3-12.7-38-36.7-38.1-65.3-.4-139.1-.3-278.2-.2-417.4,0-7-3-15.5,6.9-19.2,73.1.5,146.2,1.1,219.2,1.5,32.7.2,65.3,0,101.4,0-6,6.8-9.6,11-13.2,15.1h0Z"/>
    <path class="cls-9" d="M886.6,453.1c4.9,1.9,9.8,3.8,14.7,5.6-4.2,4.6-9.7,3.1-14.8,3.2-92.8,1.6-185.6,1.8-278.3,5-67.1,2.4-134,8.9-201,13.1-9.6.6-17.2,11.1-27.7,5-.2-9.4,14.2-12,11-22.9h0c35.1-12.2,71.5-9,107.6-9,129.5,0,259.1,0,388.6,0h0Z"/>
    <path class="cls-10" d="M375.9,567.6c-9.9,3.6-6.9,12.2-6.9,19.2,0,139.1-.1,278.2.2,417.4,0,28.7,9.9,52.7,38.1,65.3,6.9,6.4,16.4,5.5,24.5,8.6-13.8,10.1-27.5.9-41.2-.3,2.2-3.6,1.8-6.4-2.2-8.4-19.3-17.8-27-39.8-26.9-66,.5-138.8.4-277.6.3-416.4,0-9.1.2-17.9,6-25.5,24.9-.3,49.8-.9,74.7-.9,91.3-.1,182.5,0,273.8,0,0,2.4,0,4.7,0,7.1h-340.5,0,0Z"/>
    <path class="cls-3" d="M390.4,462.1c3.2,10.9-11.1,13.5-11,22.9-4.5,2-4.5,10-11.6,8.6,1.8-14.6,8.8-25.4,22.5-31.5h0Z"/>
    <path class="cls-10" d="M367.9,561.5c-10.2-20.2-3.3-41.4-3.4-62.1,1.3,0,2.5-.4,3.5-1.1,0,21.1-.1,42.2-.2,63.3h0Z"/>
    <path class="cls-3" d="M932.5,485.9c5,1.5,5.8,5.4,5.5,9.9-3.9-2.1-4.8-6-5.5-9.9Z"/>
    <path class="cls-3" d="M368.1,498.2c-1,.8-2.2,1.1-3.5,1.1-.5-2.9,0-5.1,3.3-5.8,0,1.6.1,3.1.2,4.7h0Z"/>
    <path class="cls-3" d="M886.6,453.1c-129.5,0-259.1,0-388.6,0-36.1,0-72.5-3.2-107.6,9,12.1-16.7,30.2-17.4,48.1-17.4,100.3-.3,200.7-.2,301-.3,10.5,0,21-.5,31.4-.7,11.7,9.8,25.7,4.2,38.7,5.4,25.6,2.5,51.7-4.2,77.1,4h0Z"/>
    <path class="cls-9" d="M741.4,167.7c-4.1,1.9-6.9.8-8.3-3.6,2.8,1.2,5.5,2.4,8.3,3.6Z"/>
    <path class="cls-12" d="M793.3,590.3c-4.5,1-9.1,2.5-13.5-.3-1-8.1-10.1-14.2-5.5-23.6,15,2.8,34.7-7,41.9,16-7.6,2.6-15.2,5.2-22.8,7.8h0Z"/>
    <path class="cls-1" d="M375,1177.2c-44.8-7.3-78.2-39.3-84.2-80.5,34.9,1.2,70.4-7,104.4,6.7,17.6,7.1,35.6,10.6,54.5,10.6,50.9,0,101.8.5,152.8,0,25.6-.3,50.4,1.5,74.9,10.5,15.7,5.8,32.3,8.1,50.2,4.2,12.8-2.8,29.7-6.8,40.2,6.1,11,13.4,22.5,25.9,42.1,34.2-20.5,5.4-36.5,7.2-53,7.2-127.3.1-254.6.6-381.9,1h0Z"/>
    <path class="cls-13" d="M390.6,1077.8c13.7,1.2,27.4,10.4,41.2.3,88.7-2.8,177.6,3.7,267.8-4.9-13.2-23.6-19.8-41.5-19.7-53.8,20.1,10,34.8,30,59.2,32.1-.8,7.3-14.1,9.8-8.8,18.4,3.7,5.9,12.3,3.9,18.8,4,19.4.2,38.9-.1,58.3-.3,5.9,9,15.6,7.8,24.2,8,26.7.5,53.3.3,80,.4l.6.8c-1,9.4-9.5,10.8-15.9,14-11.8,5.8-20.6,13.9-27,25.7-18.7,34.2-40.6,35.2-61.7,2.3-9.6-15-21.7-20.4-39.1-20.4-38.8,0-77.8-2.4-116.3-2.4-120.8,0-241.4-3.5-361.6-15.3,1.4-3,2.8-6,4.1-9,.3-1,1-1.2,1.9-.8,31.3.3,62.7.7,94,1h0Z"/>
    <path class="cls-16" d="M290.6,1086.7c120.3,11.8,240.8,15.2,361.6,15.3,38.6,0,77.5,2.5,116.3,2.4,17.4,0,29.5,5.4,39.1,20.4,21.1,32.8,42.9,31.8,61.7-2.3,6.5-11.8,15.2-19.9,27-25.7,6.4-3.2,14.8-4.6,15.9-14,10.2,4.5,22.6,5.6,27,18.5-2.6,7.8-5.1,15.7-7.7,23.5-2.8,4.6-5.6,9.3-8.4,13.9-26.8,31.5-61.4,42.1-101.9,41.9-140-.6-280,.2-419.9.2-8.8,0-18.1,2-26.2-3.6,127.3-.4,254.6-.9,381.9-1,16.5,0,32.5-1.8,53-7.2-19.7-8.4-31.1-20.8-42.1-34.2-10.6-12.9-27.4-8.8-40.2-6.1-17.9,3.9-34.5,1.6-50.2-4.2-24.5-9-49.3-10.8-74.9-10.5-50.9.5-101.8,0-152.8,0-18.9,0-36.9-3.5-54.5-10.6-34-13.8-69.5-5.5-104.4-6.7,0-3.3-.2-6.7-.2-10h0,0Z"/>
    <path class="cls-2" d="M807.4,1073.6c-19.4.1-38.9.5-58.3.3-6.5,0-15.2,1.9-18.8-4-5.3-8.6,7.9-11.1,8.8-18.4,12.3-.4,25.3,1,31.3-13.7,7.4,16.3,25.5,11.7,37.4,19.2-.1,5.6-.2,11.1-.3,16.7h0Z"/>
    <path class="cls-13" d="M807.7,1056.9c-11.9-7.4-30-2.9-37.4-19.2,2.4-7.4,4.8-14.9,7.1-22.3,9.4,1.3,18.8,2.5,28.2,4.1,9.7,1.7,7.9,9.9,7.2,16-.7,7.2-3.4,14.3-5.2,21.4h0Z"/>
    <path class="cls-16" d="M390.6,1077.8c-31.3-.3-62.7-.7-94-1,21.1-5.9,42.7-1.1,64-2.7,9.4-.7,19.5,2.5,27.8-4.7,4,1.9,4.4,4.8,2.2,8.4h0Z"/>
    <path class="cls-3" d="M721.1,230.7c-4.1,6.7-13.4,10.4-17.1,7-23.9-21.5-50.7,10.7-73.2-4.7-9.3-6.3-12.5-11.2-23.4-.7-11.8,11.3-28.2,8.9-39.6-4.5-10-11.6-10.8-25,.2-36.3,11.2-11.5,24.4-18,38.2-2.7-4.2,0-8.5,0-12.7-.3-9.7-.4-17.9,2.2-21.2,12.1-3.3,10.1-.5,19.4,8.2,25.4,7.1,4.9,15.6,5,22.9,0,9.5-6.4,9.5-15.7,6.7-25.7-1.2-4-6.3-6.7-3.9-11.8,8.1,4.4,15.3,8.6,23.4-1.7,4.3-5.4,14.4-10.1,20.2-6.1,18.2,12.3,34.5,8,52.7.1,7.6-3.3,17.6,1.1,21.7,11.1-1,.9-2,1.9-3,2.9-11.6-7.9-23.6-11.6-33.4,1.7-7.4,10-4,20.1,4.5,28.1,7.5,7.1,16.7,4.6,25.5,2.5,1.2,1.1,2.4,2.2,3.6,3.3h0ZM669.3,208.1c-1.7-10.9-7.9-19.2-21.4-19.5-12.8-.3-19.5,6.7-19.5,19.3,0,13.3,7,21.4,20.5,21.4,12.2,0,19.2-7,20.4-21.2Z"/>
    <path class="cls-3" d="M723.9,192.1c11.7,10.8,14.4,21.9.9,33.5-.9-.8-1.8-1.6-2.6-2.3,3.9-9.6,4.3-19.1-1.3-28.2,1-1,2-1.9,3-2.9Z"/>
    <path class="cls-3" d="M724.8,225.6c-1.2,1.7-2.5,3.4-3.7,5.1-1.2-1.1-2.4-2.2-3.5-3.3,1.5-1.4,3.1-2.7,4.7-4.1.9.8,1.7,1.6,2.6,2.3Z"/>
    <path class="cls-2" d="M663.4,1001.8c-30.7-7.7-66.7-10.4-73.5-49.6-4.2-24.1-7.2-50,1.2-74.7,4.7,12.9,9.5,25.8,13.9,38.8,2.8,8.2,7.2,14.2,16.9,13.8,2.2,16.9,9.3,24.2,28.2,19.8,14.7-3.4,29,2,37.7,16.3-7.3,12.5-22.6,19.4-24.5,35.6h0Z"/>
    <path class="cls-2" d="M679.8,1019.4c0,12.3,6.5,30.2,19.7,53.8-90.1,8.6-179.1,2.1-267.8,4.9-8.1-3.1-17.6-2.1-24.5-8.6,75.2,0,150.4,0,225.6,0,30.7,0,30.5,0,32.2-30,.5-9.5,2.7-19,4.1-28.5,6.2-.5,7.5,5,10.6,8.4h0Z"/>
    <path class="cls-13" d="M687.9,966.2c-8.7-14.3-23.1-19.7-37.7-16.3-19,4.4-26-2.9-28.2-19.8,13.1-1.4,25.8-2.3,38.9-7,18.9-6.7,19.2,16,29.3,24,8.5,6.7,7.4,13.8-2.2,19.2h0Z"/>
    <path class="cls-12" d="M601.9,839.5c1.3-12.2-9.8-19.8-11.3-31-1.3-9.8-7.7-20.4,5.4-27.3,4.1,30.4,12.2,38.5,41.1,41.5,3.8,10.9-2.7,12.4-11.2,13.4-8,.9-15.5,5-23.9,3.4h0Z"/>
    <path class="cls-13" d="M606.8,765.2c22.8,2.7,32.9,16.2,30.1,40.6-30.5-5.6-32.6-8.3-30.1-40.6Z"/>
    <path class="cls-2" d="M606.8,765.2c-2.5,32.3-.4,35.1,30.1,40.6,0,5.6.1,11.2.2,16.9-28.9-2.9-37-11-41.1-41.5.2-3,.4-6,.6-9,3.6-1.3,4.3-4.3,4.8-7.5,1.8.2,3.7.3,5.5.5Z"/>
    <path class="cls-12" d="M601.3,764.6c-.4,3.2-1.2,6.3-4.8,7.5-1.2-2.9-2.5-5.8-3.7-8.7,2.8.4,5.6.8,8.4,1.1Z"/>
    <path class="cls-1" d="M976.3,699.8c1.3,1.3,2.6,2.6,4,3.9,52.6,67,52.4,130.3-.4,195-7.7,6.5-15.3,13-23,19.5-67.9,34.7-139.3,18.7-178.5-40-38.9-58.4-29.5-138.6,21.9-183.9,30.8-27.1,67.3-33.7,106.8-29.3,21.8,6.8,43,15.1,62.1,28.1,2.4,2.2,4.8,4.5,7.1,6.7h0ZM822.3,754.9l.2-.3c-2.9.3-4.6,1.8-4.7,4.8l.3-.3c-5.5,2.1-7.9,5.5-5.1,11.3-.3.9-1,1.5-1.9,1.9-4.9-1.9-7.1,0-6.9,5l.3-.2c-4.3-1.1-6,.3-4.7,4.7l.2-.2c-4.4-1.3-6,.3-4.7,4.7l.2-.2c-4.4-1.3-5.7.5-4.7,4.7l.2-.2c-4.1-.9-5.4.9-4.7,4.8l.2-.2c-15.8,6.1-9.7,11.9.2,17.7l-.2-.3c0,3.2,1.5,4.8,4.7,4.7l-.2-.2c0,3.2,1.4,4.9,4.7,4.7l-.2-.2c-.2,3.3,1.4,4.9,4.7,4.7l-.2-.2c0,3,1.7,4.7,4.7,4.7l-.2-.2c0,3.1,1.6,4.7,4.7,4.8l-.2-.2c0,3.1,1.6,4.7,4.7,4.8l-.2-.2c-.1,3.2,1.3,5,4.7,4.7l-.2-.2c-.4,3.5,1.1,5,4.6,4.7l-.2-.2c-.4,3.5,1,5.2,4.7,4.7l-.2-.2c1.9,9.9,8.5,11.7,15.6,6.7,5.5-3.8,9.9-4.8,15.4-1.6,16.6,12.2,20.5,0,24.2-12.6,12.8-19.8,23.3-40.8,31.4-63,9-3.6,4.5-22,20.2-18.2,1.4,1.6,2.9,3.2,4.3,4.8,1.5,1.5,3,3,4.5,4.5,1.6,1.5,3.1,2.9,4.7,4.3,2.9,11.6,20,14.6,17.8,29.3-1.4,1.6-2.9,3.2-4.3,4.7-1.4,1.6-2.8,3.2-4.2,4.7-1.5,1.5-3,3-4.5,4.5-1.5,1.5-3,3-4.5,4.5-1.5,1.5-3.1,2.9-4.6,4.4-1.5,1.5-2.9,3-4.4,4.5-1.5,1.5-3,3-4.5,4.5-5.8,5-6.2,9.9,0,14.8,4.8,9.5,11.5,11.1,19,3.7,6.7-6.6,12.3-14.3,18.4-21.5,1.5-1.5,3-3,4.5-4.5,1.5-1.5,3-3,4.5-4.5,1.5-1.5,3-3,4.5-4.5,1.4-1.6,2.8-3.2,4.3-4.7,1.5-1.5,3.1-2.9,4.6-4.4,1.4-1.6,2.9-3.1,4.3-4.7,5.2-3.1,5.2-6.9,1.5-11.3-2-5.5-5.2-9.8-10.8-12-1.4-1.6-2.9-3.2-4.3-4.7-1.4-1.6-2.8-3.1-4.3-4.7-1.5-1.5-2.9-3.1-4.4-4.6-1.5-1.5-3-3-4.5-4.5-1.5-1.5-3.1-2.9-4.7-4.3-1.5-1.5-3-3-4.5-4.5-1.5-1.5-3-2.9-4.6-4.4-1.5-1.5-3-3-4.4-4.6-6.5-10.1-12.8-9-19.2.1-13.5-2.6-30.7-20.8-36.3,8.8-4.2,3.1-4.7,7.9-5.5,12.5-1.6,3-3.2,6-4.8,9-5.9,4.5-7.1,11.2-8.8,17.8l-3,6c-2.2,4-4.3,8-6.5,12-1.6,2.9-3.1,5.8-4.7,8.6-2.8,6.2-5.7,12.5-8.5,18.7-18.5-6.2-23.6-29.3-43.1-34.2l.2.2c0-4.7,0-9.4,0-14.1l-.2.2c3.9.7,5.3-1,4.7-4.8l-.2.2c3.6.5,5.2-1.1,4.7-4.7l-.2.2c3.7.5,5.2-1,4.7-4.7l-.2.2c3.9.8,5.3-1,4.7-4.7l-.2.2c4,.9,5.6-.6,4.6-4.6h-.1c4.1,1.1,5.4-.7,4.7-4.5l-.2.2c12-2.8,13.2-10.6,6.8-18.9-6.3-8.1-14.1-10.3-19.8,1.5l.3-.3c-3.1,0-4.6,1.7-4.8,4.7h0s0,0,0,0Z"/>
    <path class="cls-2" d="M678.9,670.2c-11.8-14.5-13.6-30.1-4.8-46.7,15.3,14.2,28.1,28.6,4.8,46.7Z"/>
    <path class="cls-12" d="M722.2,223.2c-1.5,1.4-3.1,2.7-4.7,4.1-8.8,2.1-18,4.5-25.5-2.5-8.5-7.9-11.9-18.1-4.5-28.1,9.8-13.3,21.8-9.6,33.4-1.7,5.5,9.2,5.2,18.6,1.3,28.2h0Z"/>
    <path class="cls-12" d="M606,188.7c-2.4,5.2,2.8,7.8,3.9,11.8,2.8,9.9,2.8,19.3-6.7,25.7-7.3,5-15.8,4.9-22.9,0-8.7-6.1-11.5-15.3-8.2-25.4,3.3-10,11.5-12.6,21.2-12.1,4.2.2,8.5.2,12.7.3h0c0,0,0,0,0,0h0Z"/>
    <path class="cls-12" d="M669.3,208.1c-1.2,14.2-8.2,21.2-20.4,21.2-13.5,0-20.5-8.1-20.5-21.4,0-12.6,6.6-19.6,19.5-19.3,13.5.4,19.7,8.6,21.4,19.5Z"/>
    <path class="cls-12" d="M811.1,772.2c.9-.3,1.5-.9,1.9-1.9,2.2-3.6,8.5-5.3,5.1-11.3l-.3.3c4.9,1.7,6-.4,4.7-4.8l-.2.3c4.2,1.1,6.7.4,4.8-4.7l-.3.3c14-1.5,20.5,2.7,13,17.4l.2-.2c-3.5-.4-5,1.2-4.7,4.6h.1c-3.5-.5-5,1.1-4.6,4.5l.2-.2c-3.4-.3-4.8,1.4-4.7,4.7l.2-.2c-3.2,0-4.8,1.5-4.7,4.7l.2-.2c-3.2,0-4.8,1.5-4.7,4.7l.2-.2c-3.3-.1-4.9,1.4-4.7,4.8l.2-.2c-8.6,4.7-8.3,9.4,0,14.1l-.2-.2c3.5,12.3,15.3,17.6,22.3,26.9,3.3,4.3,11,6.8,7.5,14.4-3.7,7.8-10.7,1.2-15.8,3.1l.2.2c1.2-4.2-.4-5.8-4.7-4.7l.2.2c.9-3.9.6-6.7-4.6-4.7l.2.2c1.7-4.8.1-6.4-4.7-4.7l.2.2c1.5-4.7.5-6.8-4.7-4.8l.2.2c1.8-5,.5-6.8-4.7-4.8l.2.2c2-5.1.4-6.7-4.7-4.7,0,0,.2.2.2.2,1.9-5,.4-6.7-4.7-4.7,0,0,.2.2.2.2,1.9-5.1.4-6.7-4.7-4.7l.2.2c2-5.1.4-6.7-4.7-4.7l.2.3c0-5.9-.2-11.8-.2-17.7l-.2.2c3-.2,4.3-2,4.7-4.8l-.2.2c2.9-.2,4.5-1.8,4.7-4.7l-.2.2c2.9-.2,4.5-1.8,4.7-4.7l-.2.2c2.9-.2,4.5-1.8,4.7-4.7l-.3.2c2.3-1.7,4.6-3.3,6.9-5h0s0,0,0,0Z"/>
    <path class="cls-15" d="M826.8,852.9c5.1-1.9,12.2,4.6,15.8-3.1,3.6-7.6-4.2-10.1-7.5-14.4-7.1-9.2-18.9-14.6-22.3-26.9,19.5,4.9,24.6,28.1,43.1,34.2.9.6,1.8,1.3,2.7,2,.8,3.3,1.7,6.6,2.5,9.9-1.1,1.2-2.2,2.3-3.3,3.5-5.5-3.2-9.9-2.3-15.4,1.6-7.1,5-13.7,3.2-15.6-6.7h0Z"/>
    <path class="cls-15" d="M897.7,758.2c5.6-29.6,22.8-11.5,36.3-8.8,1.2,1.1,2.3,2.2,3.5,3.3,0,2.8,0,5.5-.1,8.3-1.2,1.1-2.5,2.2-3.7,3.2-15.6-3.8-11.2,14.7-20.2,18.2-.9-.7-1.8-1.5-2.8-2.2,1.6-4.1,3.6-8.1,4.6-12.4,1.4-6.3,11.5-13.8.9-18.9-10-4.8-9.9,7.8-14.7,12.2-1.3-1-2.5-2-3.8-3h0Z"/>
    <path class="cls-15" d="M913.4,782.5c-8.1,22.2-18.6,43.1-31.4,63-1-.8-1.9-1.5-2.9-2.3,8-22.2,18.7-43.1,31.5-62.9.9.8,1.8,1.5,2.8,2.2Z"/>
    <path class="cls-15" d="M971.3,836.2c-6.1,7.2-11.8,14.8-18.4,21.4-7.5,7.5-14.3,5.8-19-3.7,1.1-1.1,2.2-2.1,3.2-3.2,19.1,9.3,19.7-14,31.4-17.7,1,1,1.9,2.1,2.9,3.1h0Z"/>
    <path class="cls-15" d="M964.8,807.2c2.2-14.7-14.8-17.7-17.7-29.3.9-1,1.8-2.1,2.8-3.1,5.9,5.6,12.1,11.1,17.8,16.9,5.8,6,9.1,12.3,0,18.4-.9-1-1.8-1.9-2.7-2.9h0Z"/>
    <path class="cls-15" d="M839.8,767.8c7.5-14.6,1-18.8-13-17.4,5.7-11.8,13.6-9.7,19.8-1.5,6.4,8.4,5.2,16.1-6.8,18.9Z"/>
    <path class="cls-15" d="M882,845.5c-3.6,12.7-7.5,24.8-24.2,12.6,1.1-1.2,2.2-2.3,3.3-3.5,13.1,7.4,11.7-8.1,18-11.4.9.8,1.9,1.5,2.9,2.3Z"/>
    <path class="cls-15" d="M786.5,795c0,5.9.2,11.8.2,17.7-10-5.8-16-11.6-.2-17.7Z"/>
    <path class="cls-15" d="M933.9,749.4c6.3-9.1,12.7-10.2,19.2-.1-.9,1-1.7,2-2.6,3-4.5-2.7-8.9-3.3-13.1.5-1.2-1.1-2.3-2.2-3.5-3.3h0Z"/>
    <path class="cls-15" d="M878.6,797.5c1.7-6.5,2.9-13.3,8.8-17.8,1,.7,1.9,1.5,2.9,2.2-1.2,6.9-3.6,13.2-8.7,18.3-1-.9-2-1.8-2.9-2.7h0Z"/>
    <path class="cls-15" d="M855.9,842.7c2.8-6.2,5.7-12.5,8.5-18.7,1.1,1,2.3,2,3.4,3-3.1,5.9-6.2,11.8-9.3,17.7-.9-.7-1.8-1.3-2.7-2h0Z"/>
    <path class="cls-15" d="M988.7,785.6c5.6,2.2,8.8,6.6,10.8,12-1.1.8-2.1,1.7-3.2,2.5l-11-11.6c1.1-1,2.3-2,3.4-3Z"/>
    <path class="cls-15" d="M813,808.7c-8.2-4.7-8.6-9.4,0-14.1,0,4.7,0,9.4,0,14.1Z"/>
    <path class="cls-15" d="M933.8,854c-6.2-4.9-5.9-9.9,0-14.8,1.3,1,2.5,2.1,3.8,3.1-.2,2.8-.3,5.7-.5,8.5-1.1,1.1-2.2,2.1-3.2,3.2h0Z"/>
    <path class="cls-15" d="M892.2,770.8c.8-4.6,1.3-9.4,5.5-12.5,1.3,1,2.5,2,3.8,3-2.2,3.9-4.5,7.8-6.7,11.7-.9-.7-1.7-1.5-2.6-2.2h0Z"/>
    <path class="cls-15" d="M869.1,815.4c2.2-4,4.3-8,6.5-11.9,1.2,1,2.4,2.1,3.7,3.1-2.3,3.8-4.5,7.7-6.8,11.5-1.1-1-2.2-1.9-3.4-2.7h0Z"/>
    <path class="cls-15" d="M818.1,759c3.4,6.1-2.9,7.8-5.1,11.3-2.8-5.8-.3-9.3,5.1-11.3Z"/>
    <path class="cls-15" d="M887.4,779.7c1.6-3,3.2-6,4.8-9,.8.7,1.7,1.5,2.6,2.2-.1,3.7-1,7-4.5,9-.9-.8-1.9-1.5-2.9-2.2h0Z"/>
    <path class="cls-15" d="M999.5,797.7c3.7,4.3,3.7,8.1-1.5,11.3-1.2-1-2.4-2-3.5-2.9.6-1.9,1.2-3.8,1.9-5.8,1-.9,2.1-1.7,3.2-2.5h0Z"/>
    <path class="cls-15" d="M864.4,824.1c1.6-2.9,3.1-5.8,4.7-8.6,1.2.8,2.3,1.7,3.4,2.7-1.5,3-3.1,5.9-4.6,8.9-1.1-1-2.3-2-3.4-3h0Z"/>
    <path class="cls-15" d="M942.7,830.1c1.5-1.5,3.1-2.9,4.6-4.4,1,1,2.1,2,3.1,3.1-1.5,1.5-3,3-4.5,4.5-1.1-1-2.1-2.1-3.2-3.1h0Z"/>
    <path class="cls-15" d="M799.9,825.9c5.1-2,6.7-.4,4.7,4.7-3.1,0-4.6-1.7-4.7-4.7Z"/>
    <path class="cls-15" d="M984.8,822.8c-1.5,1.5-3,3-4.5,4.5l-3-3c1.5-1.5,2.9-3.1,4.3-4.6,1.1,1.1,2.2,2.1,3.2,3.2h0Z"/>
    <path class="cls-15" d="M817.9,843.9c5.2-2,5.5.8,4.6,4.7-3.5.3-5-1.2-4.6-4.7Z"/>
    <path class="cls-15" d="M933.8,839.2c1.5-1.5,3-3,4.5-4.5,1.1,1.1,2.2,2.2,3.3,3.3l-4.1,4.3c-1.3-1-2.5-2.1-3.8-3.1h0Z"/>
    <path class="cls-15" d="M947.3,825.7c1.5-1.5,3-3,4.5-4.5,1,1,1.9,1.9,2.9,2.9-1.4,1.6-2.8,3.2-4.2,4.7-1-1-2.1-2-3.1-3.1h0Z"/>
    <path class="cls-15" d="M795.4,821.4c5.1-2,6.6-.3,4.7,4.7-3.3.2-4.9-1.4-4.7-4.7Z"/>
    <path class="cls-15" d="M989.1,818c-1.4,1.6-2.8,3.2-4.3,4.7-1.1-1.1-2.2-2.1-3.2-3.2,1.6-1.4,3.2-2.8,4.9-4.1.9.9,1.8,1.7,2.6,2.6h0Z"/>
    <path class="cls-15" d="M951.8,821.2c1.5-1.5,3-3,4.5-4.5,1,1,1.9,1.9,2.9,2.9-1.5,1.5-3,3-4.5,4.5-1-1-1.9-1.9-2.9-2.9h0Z"/>
    <path class="cls-15" d="M822.3,848.5c4.2-1.2,5.8.4,4.7,4.7-3.6.5-5.1-1.1-4.7-4.7Z"/>
    <path class="cls-15" d="M790.9,816.9c5.1-2,6.6-.4,4.7,4.7-3.3.2-4.8-1.5-4.7-4.7Z"/>
    <path class="cls-15" d="M993.7,813.7c-1.5,1.5-3.1,2.9-4.6,4.4-.9-.9-1.8-1.7-2.6-2.6,1.3-1.7,2.7-3.3,4-5,1.1,1.1,2.2,2.1,3.3,3.2h0Z"/>
    <path class="cls-15" d="M956.3,816.7c1.4-1.6,2.8-3.2,4.2-4.7,1.1,1,2.1,2.1,3.2,3.1-1.5,1.5-3,3-4.5,4.5-1-1-1.9-1.9-2.9-2.9h0Z"/>
    <path class="cls-15" d="M786.4,812.4c5.1-2,6.7-.4,4.7,4.7-3.2.1-4.8-1.5-4.7-4.7Z"/>
    <path class="cls-15" d="M998,808.9c-1.4,1.6-2.9,3.1-4.3,4.7-1.1-1.1-2.2-2.1-3.3-3.2,1.3-1.5,2.7-3,4-4.5,1.2,1,2.4,2,3.5,2.9h0Z"/>
    <path class="cls-15" d="M808.9,834.9c5.2-2,6.2.1,4.7,4.8-3.1,0-4.7-1.7-4.7-4.8Z"/>
    <path class="cls-15" d="M960.5,811.9c1.4-1.6,2.9-3.2,4.3-4.7.9,1,1.8,1.9,2.7,2.9-1.3,1.7-2.6,3.3-3.9,5l-3.2-3.1h0Z"/>
    <path class="cls-15" d="M813.3,839.4c4.8-1.7,6.4-.1,4.7,4.7-3.4.3-4.8-1.4-4.7-4.7Z"/>
    <path class="cls-15" d="M875.6,803.5c1-2,2-4,3-6,1,.9,2,1.8,2.9,2.7-.7,2.1-1.5,4.2-2.2,6.3-1.2-1-2.4-2.1-3.7-3.1h0Z"/>
    <path class="cls-15" d="M812.8,794.8c-.2-3.3,1.4-4.9,4.7-4.8.7,3.8-.8,5.5-4.7,4.8Z"/>
    <path class="cls-15" d="M790.9,790.5c-.4,2.8-1.7,4.6-4.7,4.8-.7-3.8.6-5.7,4.7-4.8Z"/>
    <path class="cls-15" d="M817.3,790.3c0-3.2,1.5-4.8,4.7-4.7.5,3.6-1.1,5.2-4.7,4.7Z"/>
    <path class="cls-15" d="M795.4,786c-.3,2.9-1.8,4.5-4.7,4.7-1-4.2.3-6,4.7-4.7Z"/>
    <path class="cls-15" d="M975.8,831.7c-1.5,1.5-3,3-4.5,4.5-1-1-1.9-2.1-2.9-3.1,1.5-1.5,2.9-2.9,4.4-4.4,1,1,2,2,3.1,3h0Z"/>
    <path class="cls-15" d="M984.4,780.9c1.4,1.6,2.9,3.2,4.3,4.7-1.1,1-2.3,2-3.4,3-1.4-1.4-2.8-2.9-4.2-4.3,1.1-1.1,2.2-2.3,3.4-3.4Z"/>
    <path class="cls-15" d="M821.8,785.8c-.1-3.2,1.5-4.8,4.7-4.7.5,3.7-1,5.2-4.7,4.7Z"/>
    <path class="cls-15" d="M799.9,781.5c-.2,2.9-1.8,4.5-4.7,4.7-1.3-4.4.3-6,4.7-4.7Z"/>
    <path class="cls-15" d="M980.1,776.2c1.4,1.6,2.8,3.1,4.3,4.7-1.1,1.1-2.2,2.3-3.4,3.4-1.5-1.5-3-3-4.5-4.5,1.2-1.2,2.4-2.4,3.6-3.6h0Z"/>
    <path class="cls-15" d="M826.3,781.3c-.1-3.2,1.3-5,4.7-4.7.6,3.7-.8,5.4-4.7,4.7Z"/>
    <path class="cls-15" d="M938.3,834.7c1.5-1.5,2.9-3,4.4-4.6,1.1,1,2.1,2.1,3.2,3.1-1.4,1.6-2.9,3.1-4.3,4.7-1.1-1.1-2.2-2.2-3.3-3.3Z"/>
    <path class="cls-15" d="M804.4,777c-.2,2.9-1.8,4.5-4.7,4.7-1.3-4.4.4-5.8,4.7-4.7Z"/>
    <path class="cls-15" d="M975.7,771.6c1.5,1.5,2.9,3.1,4.4,4.6-1.2,1.2-2.4,2.4-3.6,3.6l-4.5-4.5c1.2-1.2,2.4-2.4,3.6-3.7Z"/>
    <path class="cls-15" d="M947.1,777.9c-1.6-1.5-3.1-2.9-4.7-4.3,1.2-1.2,2.3-2.4,3.5-3.6,1.3,1.6,2.6,3.2,3.9,4.8-.9,1-1.8,2.1-2.8,3.1h0Z"/>
    <path class="cls-15" d="M830.8,776.8c-.3-3.4,1.2-5,4.6-4.6.9,4-.6,5.5-4.6,4.6Z"/>
    <path class="cls-15" d="M811.1,772.2c-2.3,1.7-4.6,3.3-6.9,5-.1-5.1,2-6.9,6.9-5Z"/>
    <path class="cls-15" d="M971.2,767.1c1.5,1.5,3,3,4.5,4.5-1.2,1.2-2.4,2.4-3.6,3.7-1.4-1.6-2.8-3.2-4.2-4.8,1.1-1.1,2.2-2.3,3.3-3.4h0Z"/>
    <path class="cls-15" d="M942.4,773.5c-1.5-1.5-3-3-4.5-4.5,1.2-1.2,2.3-2.4,3.5-3.6l4.5,4.5c-1.2,1.2-2.3,2.4-3.5,3.6h0Z"/>
    <path class="cls-15" d="M835.3,772.3c-.3-3.5,1.2-5,4.7-4.6.7,3.8-.6,5.6-4.7,4.6Z"/>
    <path class="cls-15" d="M966.6,762.8c1.5,1.5,3.1,2.9,4.7,4.3-1.1,1.1-2.2,2.2-3.3,3.4-1.4-1.6-2.8-3.2-4.2-4.8,1-1,1.9-2,2.9-3Z"/>
    <path class="cls-15" d="M937.9,769c-1.4-1.6-2.9-3.2-4.3-4.8,1.2-1.1,2.5-2.2,3.7-3.2,1.4,1.5,2.8,3,4.1,4.4-1.2,1.2-2.3,2.4-3.5,3.6h0Z"/>
    <path class="cls-15" d="M962.1,758.2c1.5,1.5,3,3,4.5,4.5-1,1-1.9,2-2.9,3-1.5-1.5-2.9-3.1-4.4-4.6.9-1,1.9-1.9,2.8-2.8h0Z"/>
    <path class="cls-15" d="M804.4,830.4c5.2-2,6.5-.2,4.7,4.8-3.1,0-4.7-1.7-4.7-4.8Z"/>
    <path class="cls-15" d="M957.5,753.8c1.5,1.5,3,2.9,4.6,4.4-.9,1-1.9,1.9-2.8,2.8-1.5-1.5-3-3-4.5-4.5.9-.9,1.8-1.8,2.7-2.8h0Z"/>
    <path class="cls-15" d="M822.5,754.6c1.2,4.4.1,6.4-4.7,4.8.2-3,1.8-4.5,4.7-4.8Z"/>
    <path class="cls-15" d="M953.1,749.3c1.5,1.5,3,3,4.4,4.6-.9.9-1.8,1.8-2.7,2.8-1.4-1.5-2.9-2.9-4.3-4.3.8-1,1.7-2,2.6-3h0Z"/>
    <path class="cls-15" d="M827,750.2c1.9,5.1-.6,5.8-4.8,4.7.1-3,1.7-4.6,4.8-4.7Z"/>
    <path class="cls-15" d="M980.3,827.2c-1.5,1.5-3,3-4.5,4.5-1-1-2-2-3.1-3,1.5-1.5,3-3,4.5-4.5l3,3h0Z"/>
    <path class="cls-12" d="M879.3,806.6c.7-2.1,1.5-4.2,2.2-6.3,5.1-5,7.5-11.4,8.7-18.3,3.6-2,4.4-5.3,4.5-9,2.2-3.9,4.5-7.8,6.7-11.7,4.8-4.5,4.7-17,14.7-12.2,10.5,5.1.5,12.6-.9,18.9-1,4.3-3,8.3-4.6,12.4-12.8,19.8-23.5,40.7-31.5,62.9-6.3,3.3-4.9,18.8-18,11.4-.8-3.3-1.7-6.6-2.5-9.9,3.1-5.9,6.2-11.8,9.3-17.7,1.5-3,3.1-5.9,4.6-8.9,2.3-3.8,4.5-7.7,6.8-11.5h0Z"/>
    <path class="cls-12" d="M977.3,824.2c-1.5,1.5-3,3-4.5,4.5-1.5,1.5-2.9,2.9-4.4,4.4-11.7,3.7-12.3,27-31.4,17.7.2-2.8.3-5.7.5-8.5,1.4-1.5,2.7-2.9,4.1-4.3,1.4-1.6,2.9-3.1,4.3-4.7,1.5-1.5,3-3,4.5-4.5,1.4-1.6,2.8-3.2,4.2-4.7,1.5-1.5,3-3,4.5-4.5s3-3,4.5-4.5c1.3-1.7,2.6-3.3,3.9-5,9.2-6.1,5.9-12.5,0-18.4-5.7-5.9-11.8-11.3-17.8-16.9-1.3-1.6-2.6-3.2-3.9-4.8l-4.5-4.5c-1.4-1.5-2.8-3-4.1-4.4,0-2.8,0-5.5.1-8.3,4.2-3.9,8.6-3.2,13.1-.5,1.4,1.5,2.9,2.9,4.3,4.3,1.5,1.5,3,3,4.5,4.5,1.5,1.5,2.9,3.1,4.4,4.6,1.4,1.6,2.8,3.2,4.2,4.8,1.4,1.6,2.8,3.2,4.2,4.8l4.5,4.5c1.5,1.5,3,3,4.5,4.5,1.4,1.4,2.8,2.9,4.2,4.3l11,11.6c-.6,1.9-1.2,3.8-1.9,5.8-1.3,1.5-2.7,3-4,4.5-1.3,1.7-2.7,3.3-4,5-1.6,1.4-3.2,2.8-4.9,4.1-1.5,1.5-2.9,3.1-4.3,4.6h0s0,0,0,0Z"/>
    <path class="cls-3" d="M1093.9,944.3c7-5.9,14.1-11.8,21.6-18.2-7.3-4.9-13.8-9.2-20.2-13.5,9.6.5,22.2,7.2,26.2-7,5.4-19.1,22.4-37.6,6.2-59.2-.2-1.5-.4-3-.6-4.6,14.8-.4,20.3,6.6,16.2,20.8-8.5,29.3-9.9,62.2-41.4,79.5-2.4,1.3-5.4,1.4-8.1,2.1h0s0,0,0,0Z"/>
    <path class="cls-7" d="M1081,936.3c-4.5-6.9-16.5-5.1-18.2-15.4-1.7-3.5-3.4-6.9-5.1-10.4,10.7-13.8,24.8-13.6,42,.7,5.6,5.4,11.2,10.7,17.5,16.8-8.5,4.9-16.5,9.6-24.4,14.2-5.3.7-8.1-3.5-11.9-5.8Z"/>
    <path class="cls-3" d="M1134.5,783.6c2.6-8.8,5.1-17.7,7.8-27.1-8.8,0-16.6,0-24.3,0,8.3-4.9,22.5-6.4,17.9-20.4-6.1-18.9-2.2-43.7-27.7-52.6-1-1.2-2-2.3-3-3.5,12.1-8.5,20.5-5.8,25,8.3,9.2,29,26.4,57.3,9.8,89.1-1.2,2.4-3.7,4.2-5.5,6.2h0s0,0,0,0Z"/>
    <path class="cls-7" d="M1119.3,784.1c-7.6-3.2-16.6,5-23.7-2.7-3.3-2-6.7-3.9-10-5.9,1.3-17.5,13-25.1,35.3-22.8,7.6,1.4,15.3,2.7,23.9,4.3-4.3,8.9-8.4,17.1-12.4,25.3-4,3.6-8.7,1.6-13.2,1.8Z"/>
  </g>
</svg>