<?xml version="1.0" encoding="utf-8"?>
<!-- Generator: Adobe Illustrator 27.9.6, SVG Export Plug-In . SVG Version: 9.03 Build 54986)  -->
<svg version="1.1" id="Layer_1" xmlns="http://www.w3.org/2000/svg" xmlns:xlink="http://www.w3.org/1999/xlink" x="0px" y="0px"
	 viewBox="0 0 432 144" style="enable-background:new 0 0 432 144;" xml:space="preserve">
<style type="text/css">
	.st0{fill:#FFFFFF;}
</style>
<path class="st0" d="M293.3,113.7c-15,0-26.3-9.9-26.3-24.7V49.5h-13.2v-18H267V11.8h20.1v19.8h19v18h-19V89c0,4.3,1.9,6.7,6.2,6.7
	H306v18L293.3,113.7 M255.4,73.1c0,28-21.3,42.8-43.2,42.8s-43.3-14.8-43.3-42.8s21.3-43,43.3-43S255.4,44.9,255.4,73.1z
	 M234.6,73.1c0-15.5-9.4-24.2-22.3-24.2s-22.4,8.8-22.4,24.2s9.4,24.1,22.4,24.1S234.6,88.4,234.6,73.1z M165,73.1
	c0,28-18.8,42.8-38.4,42.8c-11.5,0-20.9-4.1-27.1-11.9v40H79.5V31.5h20.1v10.7c6.2-8,15.6-12.1,27.1-12.1
	C146.2,30.1,165,44.9,165,73.1z M144.1,73.1c0-15.5-9.2-24.2-22.3-24.2s-22.3,8.8-22.3,24.2s9.2,24.1,22.3,24.1
	S144.1,88.4,144.1,73.1z M38.8,115.9c18.3,0,35.5-14,35.5-34.1c0-43-50.5-26.9-50.5-49.8c0-6.7,4.8-11.6,12.4-11.6
	s12.3,3.8,14.3,11.1h22.4C69.1,10.2,54.9,0,36.3,0C18.8,0,2.1,12.4,2.1,32.5c0,42.7,50.5,26.3,50.5,49.8c0,7-5.1,13.2-13.7,13.2
	s-14.5-4.8-16.4-12.7H0C3.7,103.8,18,115.9,38.8,115.9 M374,115.9c32,0,58-25.9,58-58S406,0,374,0s-58,26-58,58S342,115.9,374,115.9
	"/>
</svg>
