<?xml version="1.0" encoding="UTF-8"?>
<svg id="Layer_1" data-name="Layer 1" xmlns="http://www.w3.org/2000/svg" version="1.1" viewBox="0 0 96.4 100.1">
  <defs>
    <style>
      .cls-1 {
        fill: none;
        stroke: #000;
        stroke-width: 6px;
      }

      .cls-2 {
        fill: #000;
      }

      .cls-2, .cls-3 {
        stroke-width: 0px;
      }

      .cls-3 {
        fill: #b37dff;
      }
    </style>
  </defs>
  <path class="cls-2" d="M48.4,15.1c6.2-7,17.7-4.6,20.4,4.4l3.4,10.7c1,3.3,3.5,6,6.7,7.4l10.3,4.5c8.6,3.7,9.8,15.4,2.2,20.8l-9.2,6.5c-2.8,2-4.7,5.2-5,8.6l-1.1,11.2c-.9,9.3-11.6,14.1-19.1,8.5l-9-6.7c-2.8-2.1-6.4-2.8-9.8-2.1l-11,2.4c-9.1,2-17-6.7-14-15.6l3.6-10.7c1.1-3.3.7-6.9-1-9.9l-5.7-9.7c-4.7-8.1,1.1-18.2,10.5-18.1h11.2c3.5.2,6.8-1.3,9.1-3.9l7.5-8.4Z"/>
  <path class="cls-3" d="M40.3,7.7c5.8-6.5,16.5-4.2,19.1,4.1l3.1,10c1,3.1,3.2,5.6,6.2,6.9l9.6,4.2c8,3.5,9.1,14.3,2,19.4l-8.6,6.1c-2.7,1.9-4.4,4.8-4.7,8.1l-1,10.4c-.8,8.7-10.8,13.1-17.8,7.9l-8.4-6.3c-2.6-1.9-5.9-2.7-9.1-1.9l-10.2,2.3c-8.5,1.9-15.8-6.2-13-14.5l3.4-9.9c1-3.1.7-6.5-1-9.3l-5.3-9C.2,28.6,5.7,19.1,14.4,19.2h10.5c3.2.2,6.4-1.2,8.5-3.7l6.9-7.9Z"/>
  <path class="cls-1" d="M42.3,6.9c4.6-5.3,13.2-3.4,15.3,3.3l3.4,10.7c1.3,4.2,4.3,7.6,8.3,9.3l10.3,4.5c6.4,2.8,7.3,11.5,1.6,15.6l-9.2,6.5c-3.6,2.5-5.8,6.5-6.3,10.8l-1.1,11.2c-.7,7-8.7,10.5-14.3,6.4l-9-6.7c-3.5-2.6-8-3.6-12.2-2.6l-11,2.4c-6.8,1.5-12.7-5-10.5-11.7l3.6-10.7c1.4-4.1.9-8.7-1.3-12.4l-5.7-9.7c-3.6-6,.8-13.7,7.9-13.6h11.2c4.4.2,8.5-1.7,11.4-4.9l7.5-8.4Z"/>
</svg>