<?xml version="1.0" encoding="UTF-8"?>
<svg id="Layer_1" data-name="Layer 1" xmlns="http://www.w3.org/2000/svg" version="1.1" viewBox="0 0 263 49">
  <defs>
    <style>
      .cls-1 {
        fill: #fff;
        stroke-width: 0px;
      }
    </style>
  </defs>
  <path class="cls-1" d="M26.2,1.5c-2.6,1.1-3.3,2-3,3.7.4,3.2,6.3,4.6,10.4,2.7,3.9-1.9,4.4-5.6.9-6.9-3.4-1.3-4.3-1.2-8.3.5Z"/>
  <path class="cls-1" d="M16.1,8.8c4.8,2,11,6,16.8,10.9l3.3,2.8-4.1,5.3c-7.7,9.7-18,15.3-24,13.1-1.4-.6-3.6-2-4.8-3.1-2-1.9-2.3-1.9-2.3-.4,0,2.3,2.9,7.8,4.9,9.3.9.7,3.4,1.2,5.6,1.3,7.5,0,18-7.9,23.7-17.9,1.3-2.3,2.6-4.1,3-4.1,1.1,0,4.8,6.6,5.4,9.9.9,4.1-1.6,7.7-6.9,10.2l-4.2,1.9h5.7c7,0,10.3-1.4,11.8-5,1.9-4.6-1.6-13.5-7.4-19-2.5-2.2-2.6-2.9-2.1-8l.5-5.5-1.6,4.1-1.5,4.2-5.2-3.5c-6.3-4.3-11.9-6.8-17.2-7.6l-4-.7,4.6,1.8Z"/>
  <path class="cls-1" d="M54.2,18.2c.3.7,2.6,7.7,5.3,15.6l4.7,14.3,3-.3c3-.3,3.2-.6,8.3-15.6l5.1-15.2h-2.7c-2.5,0-2.8.6-6.4,12-2.1,6.6-4.1,11.7-4.4,11.4s-2.2-5.6-4.1-11.7c-3.4-10.6-3.7-11.2-6.4-11.5-2.1-.3-2.7,0-2.4,1Z"/>
  <path class="cls-1" d="M207,32.5v15.5h3q2.9,0,3.2-6.8l.3-6.7h13l.3,6.7q.3,6.8,3.2,6.8h3v-31h-6v12h-14v-12h-6v15.5Z"/>
  <path class="cls-1" d="M236,32.5v15.5h7v-12h4.8c5.4,0,7.2,1.2,7.2,4.9,0,5.4,1.1,7.1,4.2,7.1s3-.2,2.4-3.1c-.3-1.7-.6-4.2-.6-5.5s-.9-3.3-2-4.4-1.7-2.1-.6-2.7c4.3-2.6,4.2-9.9-.1-13.3-2.2-1.7-4.1-2-12.4-2h-9.9v15.5ZM253.8,23.2c.7.7,1.2,2.1,1.2,3.3,0,3.3-2,4.5-7.2,4.5h-4.8v-9h4.8c2.6,0,5.3.5,6,1.2Z"/>
  <path class="cls-1" d="M84.1,26.4c-3.4,1.9-5,5.4-5.1,11.2,0,8.1,3.7,11.2,13,10.4,2.8-.2,7-3.6,7-5.7s-3.5-1.6-5.5.7c-2.5,2.8-6,2.5-8.4-.6-1.2-1.5-2.1-3.1-2.1-3.5s3.9-.9,8.6-.9h8.7l-.6-3.8c-1.2-7.3-9.2-11.3-15.6-7.8ZM93.2,30.7c3.4,3.1,2.3,4.3-4.2,4.3s-6-.3-6-.8.7-1.8,1.6-3c1.8-2.6,6-2.9,8.6-.5Z"/>
  <path class="cls-1" d="M109.2,26.6c-1.2.8-2.2,1-2.2.5s-1.1-1.1-2.5-1.1h-2.5v22h2.5c2.5,0,2.5-.1,2.5-7.8s1.4-11.2,5.6-11.2,4.4,2,4.4,10.7,0,8.3,2.5,8.3,2.5,0,2.5-9.5-.2-9.6-2.2-11.5c-2.6-2.4-7.5-2.6-10.6-.4Z"/>
  <path class="cls-1" d="M128.2,26.2c-2.5,1.2-3.7,4.6-2.8,7.6.7,2,3.1,3.2,9.6,4.9,2.1.5,3.6,1.6,3.8,2.7.8,3.8-5.7,5-8.5,1.6-2.3-2.7-6.3-2.7-5.6-.1.9,3.6,3.8,5.2,9.2,5.3,6.9,0,10.1-2.1,10.1-6.7s-1.1-4.8-9.1-7.1c-3.8-1.1-4.9-1.9-4.7-3.2.4-2.3,6.6-2.9,7.4-.8.8,2,5.4,2.1,5.4.2,0-4.3-9.3-7-14.8-4.4Z"/>
  <path class="cls-1" d="M176.6,27.1c-2.1,1.7-2.6,1.8-2.6.5s-.8-1.6-2-1.6c-1.9,0-2,.7-2,11s.2,11,1.9,11,1.9-.9,2.3-7c.4-7.6,2.4-10.9,6.6-11.3,1.6-.1,2.2-.8,2.2-2.4,0-2.9-2.8-3-6.4-.2Z"/>
  <path class="cls-1" d="M188.1,26.4c-3.3,1.8-5,5.3-5.1,10.3,0,8.1,3.2,11.5,10.9,11.5s5-.5,7.5-3.4l3-3.3-2.3-.3c-1.4-.2-3.1.5-4.2,1.7-2.7,2.9-6.3,2.7-8.8-.5-1.2-1.5-2.1-3.1-2.1-3.5s3.9-.9,8.6-.9h8.7l-.6-3.8c-1.2-7.3-9.2-11.3-15.6-7.8ZM197.2,30.7c3.3,3,2.3,4.3-3.7,4.3s-5.5-.3-5.5-2c0-3.7,5.9-5.3,9.2-2.3Z"/>
  <path class="cls-1" d="M147,35.4c0,7.3.4,9.8,1.6,11,2.2,2.3,8.6,2.4,11.3.3,1.1-.9,1.5-.9,1.8,0,.3.7,1.3,1.3,2.4,1.3,1.8,0,1.9-.8,1.9-11v-11h-2.5c-2.5,0-2.5.1-2.5,7.8s-1.4,11.2-5.3,11.2-4.7-2.8-4.7-11.1-.2-7.9-2-7.9-2,.7-2,9.4Z"/>
</svg>